<?xml version="1.0" standalone="no"?>
<!DOCTYPE svg PUBLIC "-//W3C//DTD SVG 1.1//EN" "http://www.w3.org/Graphics/SVG/1.1/DTD/svg11.dtd" >
<svg>
<metadata>
Created by FontForge 20120731 at Sat May 20 19:07:58 2017
 By www-data
Copyright 2014 Google Inc. All Rights Reserved.
</metadata>
<defs>
<font id="PlayBook" horiz-adv-x="500" >
  <font-face 
    font-family="Literata"
    font-weight="400"
    font-stretch="normal"
    units-per-em="1000"
    panose-1="2 0 5 5 6 0 0 2 0 4"
    ascent="800"
    descent="-200"
    x-height="507"
    cap-height="700"
    bbox="-365 -268 1429 1137"
    underline-thickness="50"
    underline-position="-50"
    unicode-range="U+0020-FB02"
  />
<missing-glyph horiz-adv-x="495" 
 />
    <glyph glyph-name="fi" unicode="fi" horiz-adv-x="665" 
d="M553 505v-400q0 -23 6 -33t26 -14l56 -10v-48h-255v46l43 8q21 4 26 13.5t5 41.5v273q0 37 -7.5 50.5t-36.5 13.5h-194v-345q0 -24 4.5 -32t24.5 -12l54 -10v-47h-264v48l57 9q20 3 25.5 14.5t5.5 36.5v336h-80v50l80 10v21q0 257 244 257q66 0 113 -30t47 -76
q0 -27 -16 -46.5t-44 -19.5q-26 0 -40.5 15t-14.5 34q0 5 1.5 9t3.5 7.5t8 13t12 19.5q-36 22 -74 22q-73 0 -110 -32t-37 -119v-72h161l158 3z" />
    <glyph glyph-name="fl" unicode="fl" horiz-adv-x="665" 
d="M460 109v476q0 70 -30.5 107.5t-84.5 37.5q-56 0 -89.5 -33t-33.5 -118v-72h161v-61h-161v-345q0 -24 4.5 -32t24.5 -12l54 -10v-47h-264v48l57 9q20 3 25.5 14.5t5.5 36.5v336h-80v50l80 10v21q0 129 63.5 193t151.5 64t138 -45l60 29l11 -11v-650q0 -23 6 -33t26 -14
l56 -10v-48h-255v46l43 8q21 4 26 13.5t5 41.5z" />
    <glyph glyph-name=".notdef" horiz-adv-x="495" 
 />
    <glyph glyph-name=".null" horiz-adv-x="0" 
 />
    <glyph glyph-name="nonmarkingreturn" horiz-adv-x="333" 
 />
    <glyph glyph-name="space" unicode=" " horiz-adv-x="250" 
 />
    <glyph glyph-name="exclam" unicode="!" horiz-adv-x="322" 
d="M135 193v72q0 88 -18.5 220t-18.5 164t20 48.5t50 16.5q29 0 46.5 -16.5t17.5 -47.5q0 -25 -20.5 -156.5t-20.5 -229.5v-71h-56zM93 55q0 31 20 51t51 20t50.5 -19.5t19.5 -50.5q0 -30 -19.5 -50t-50.5 -20t-51 19.5t-20 49.5z" />
    <glyph glyph-name="quotedbl" unicode="&#x22;" horiz-adv-x="401" 
d="M328 719l-30 -170h-34l-26 158q-2 14 -2 19q0 23 14.5 39.5t38.5 16.5q16 0 29 -10.5t13 -26.5q0 -9 -3 -26zM177 719l-30 -170h-34l-26 158q-2 14 -2 19q0 23 14.5 39.5t38.5 16.5q16 0 29 -10.5t13 -26.5q0 -9 -3 -26z" />
    <glyph glyph-name="numbersign" unicode="#" horiz-adv-x="674" 
d="M201 0h-54l21 140h-123l11 51h121l27 176h-125l10 52h123l20 131h54l-20 -131h184l19 131h55l-20 -131h125l-9 -52h-123l-27 -176h130l-9 -51h-129l-22 -140h-54l22 140h-185zM443 367h-186l-26 -176h185z" />
    <glyph glyph-name="dollar" unicode="$" horiz-adv-x="518" 
d="M284 -96h-50v88q-72 11 -109 50l-13 -47h-46l-16 177l57 4q38 -108 127 -124v196q-39 11 -62.5 21t-51 28.5t-41 48t-13.5 70.5q0 59 44.5 102.5t123.5 48.5v91h50v-93q60 -8 93 -37l10 40h49l18 -162l-56 -6q-31 103 -114 112v-179q33 -10 44.5 -14t40 -15.5t41 -22.5
t29 -28.5t23 -40.5t6.5 -52q0 -65 -48 -116t-136 -55v-85zM379 136q0 38 -24.5 59t-70.5 37v-183q44 4 69.5 26.5t25.5 60.5zM155 438q0 -59 79 -88v162q-79 -9 -79 -74z" />
    <glyph glyph-name="percent" unicode="%" horiz-adv-x="851" 
d="M491 141q0 86 46 127t114 41q66 0 109.5 -39t43.5 -113q0 -81 -45 -126t-113 -45q-72 0 -113.5 43t-41.5 112zM569 152q0 -49 22 -79t60 -30q73 0 73 104q0 51 -21 79t-59 28q-34 0 -54.5 -26t-20.5 -76zM204 -14l363 611h74l-362 -611h-75zM47 429q0 86 46 127t114 41
q66 0 109.5 -39t43.5 -113q0 -81 -45 -126t-113 -45q-72 0 -113.5 43t-41.5 112zM125 440q0 -49 22 -79t60 -30q73 0 73 104q0 51 -21 79t-59 28q-34 0 -54.5 -26t-20.5 -76z" />
    <glyph glyph-name="ampersand" unicode="&#x26;" horiz-adv-x="794" 
d="M325 394l157 -163q32 145 82 200.5t111 55.5q32 0 54.5 -19t22.5 -50q0 -25 -13.5 -43t-35.5 -18q-15 0 -26 7q-13 9 -32 55q-32 -7 -66 -61t-54 -170q57 -56 88 -76t56 -20q27 0 77 37l20 -34q-34 -47 -62 -67.5t-65 -20.5q-59 0 -150 88q-28 -48 -81 -78.5t-128 -30.5
q-104 0 -169.5 52.5t-65.5 142.5q0 137 156 202q-82 82 -82 161q0 80 51.5 125t134.5 45q67 0 108.5 -39.5t41.5 -101.5q0 -115 -130 -179zM301 45q103 0 146 88l-214 216q-86 -47 -86 -151q0 -73 42 -113t112 -40zM206 568q0 -37 21.5 -69t63.5 -73q99 53 99 144
q0 45 -25 67t-66 22q-42 0 -67.5 -24.5t-25.5 -66.5z" />
    <glyph glyph-name="quotesingle" unicode="'" horiz-adv-x="250" 
d="M177 719l-30 -170h-34l-26 158q-2 14 -2 19q0 23 14.5 39.5t38.5 16.5q16 0 29 -10.5t13 -26.5q0 -9 -3 -26z" />
    <glyph glyph-name="parenleft" unicode="(" horiz-adv-x="332" 
d="M74 306q0 155 58.5 292t137.5 219l36 -20q-62 -103 -100 -230t-38 -250q0 -246 134 -500l-37 -21q-80 84 -135.5 220t-55.5 290z" />
    <glyph glyph-name="parenright" unicode=")" horiz-adv-x="332" 
d="M258 307q0 -155 -58.5 -292t-137.5 -219l-36 20q62 103 100 230t38 250q0 246 -134 500l37 21q80 -84 135.5 -220t55.5 -290z" />
    <glyph glyph-name="asterisk" unicode="*" horiz-adv-x="473" 
d="M135 697l87 -77l-19 104q-5 25 5.5 41.5t34.5 16.5q19 0 27.5 -13.5t3.5 -34.5l-23 -115l82 70q18 15 38 15t31 -20q21 -34 -27 -51l-110 -39l100 -38q22 -8 31 -24.5t-1 -38.5q-11 -18 -26 -17t-31 15l-87 77l19 -103q4 -22 -6 -40t-34 -18q-40 0 -31 49l22 113l-81 -70
q-15 -15 -35.5 -15t-33.5 20q-21 35 27 51l109 40l-99 36q-20 9 -30.5 26.5t0.5 37.5q12 17 27 16t30 -14z" />
    <glyph glyph-name="plus" unicode="+" horiz-adv-x="582" 
d="M505 276h-184v-195h-67v195h-177v63h177v182h67v-182h184v-63z" />
    <glyph glyph-name="comma" unicode="," horiz-adv-x="328" 
d="M115 -168l-29 37q81 62 87 131h-24q-62 0 -62 55q0 32 20 53t53 21q42 0 63.5 -28t21.5 -70q0 -49 -34 -106t-96 -93z" />
    <glyph glyph-name="hyphen" unicode="-" horiz-adv-x="354" 
d="M44 247v82h267v-82h-267z" />
    <glyph glyph-name="period" unicode="." horiz-adv-x="333" 
d="M90 58q0 33 21.5 54.5t54.5 21.5q34 0 55.5 -21t21.5 -54t-21.5 -54.5t-55.5 -21.5q-33 0 -54.5 21t-21.5 54z" />
    <glyph glyph-name="slash" unicode="/" horiz-adv-x="428" 
d="M20 -110l325 912h63l-324 -912h-64z" />
    <glyph glyph-name="zero" unicode="0" horiz-adv-x="609" 
d="M42 270q0 147 78 222.5t190 75.5q51 0 95 -15t81.5 -46.5t59 -88t21.5 -131.5q0 -78 -22.5 -138t-61 -94.5t-84.5 -51.5t-98 -17q-123 0 -191 75t-68 209zM145 276q0 -118 41.5 -177t116.5 -59q161 0 161 240q0 232 -157 232q-75 0 -118.5 -57.5t-43.5 -178.5z" />
    <glyph glyph-name="one" unicode="1" horiz-adv-x="400" 
d="M165 97v342q0 32 -8 42.5t-35 10.5h-82l6 51l195 25l17 -10v-462q0 -21 5.5 -29t25.5 -10l77 -10v-47h-315v46l84 11q19 2 24.5 10t5.5 30z" />
    <glyph glyph-name="two" unicode="2" horiz-adv-x="550" 
d="M350 393q0 67 -28.5 94t-78.5 27q-70 0 -106 -45q32 -44 32 -62t-18 -33t-42 -15q-59 0 -59 60q0 59 61 104t145 45q90 0 143 -43t53 -124q0 -49 -18 -91.5t-53 -78.5t-68.5 -61.5t-83.5 -56.5l-56 -35v-5h136q66 0 91 18.5t49 86.5h51l-14 -178h-432v53q56 35 153 110
q143 111 143 230z" />
    <glyph glyph-name="three" unicode="3" horiz-adv-x="524" 
d="M180 192l-9 57q175 45 175 164q0 45 -28.5 71t-79.5 26q-82 0 -111 -44q28 -48 28 -57q0 -19 -15 -34t-38 -15q-65 0 -65 62q0 58 62 102t150 44t141.5 -40t53.5 -115q0 -100 -120 -166q70 -18 111 -53.5t41 -106.5q0 -114 -108 -185t-290 -77l-8 53q143 15 221 70
t78 141q0 104 -105 130q-38 -15 -84 -27z" />
    <glyph glyph-name="four" unicode="4" horiz-adv-x="614" 
d="M440 -164h-92v164h-324l-9 50l333 503l81 15l11 -9v-491h38q23 0 31 5.5t11 22.5l9 50h45v-205h-46l-8 31q-4 18 -11.5 23t-30.5 5h-38v-164zM99 68h249v375z" />
    <glyph glyph-name="five" unicode="5" horiz-adv-x="523" 
d="M451 626l-18 -161h-267l-18 -193q61 37 137 37q88 0 138.5 -51.5t50.5 -140.5q0 -133 -109 -208t-290 -85l-8 52q300 44 300 232q0 58 -34 90.5t-98 32.5q-58 0 -126 -29l-26 38l27 314h181q58 0 77 11.5t31 60.5h52z" />
    <glyph glyph-name="six" unicode="6" horiz-adv-x="567" 
d="M523 237q0 -120 -66.5 -185.5t-171.5 -65.5q-122 0 -178.5 80.5t-56.5 208.5q0 108 31 192.5t86 138t126.5 83t158.5 36.5l12 -52q-269 -40 -315 -302l4 -3q22 36 66 60.5t102 24.5q88 0 145 -57.5t57 -158.5zM423 226q0 159 -135 159q-53 0 -94.5 -39.5t-41.5 -113.5
q0 -185 137 -185q62 0 98 45t36 134z" />
    <glyph glyph-name="seven" unicode="7" horiz-adv-x="558" 
d="M247 -164h-110l-9 16q236 375 306 613h-222q-63 0 -81 -15.5t-41 -84.5h-50l18 189h453l8 -64q-166 -440 -272 -654z" />
    <glyph glyph-name="eight" unicode="8" horiz-adv-x="567" 
d="M320 411q82 55 82 137q0 52 -36.5 81.5t-88.5 29.5t-86.5 -26.5t-34.5 -75.5q0 -44 35 -76t129 -70zM373 390q152 -67 152 -196q0 -97 -74 -152.5t-176 -55.5q-106 0 -173 47t-67 138q0 62 37 115t124 81q-75 37 -103.5 75.5t-28.5 95.5q0 69 57 122.5t160 53.5
q100 0 156.5 -42.5t56.5 -109.5q0 -111 -121 -172zM244 340q-110 -56 -110 -160q0 -63 40.5 -99.5t109.5 -36.5q64 0 101 34.5t37 96.5q0 60 -43 97.5t-135 67.5z" />
    <glyph glyph-name="nine" unicode="9" horiz-adv-x="567" 
d="M44 328q0 114 66.5 177t171.5 63q83 0 137 -41t76 -106.5t22 -155.5q0 -110 -33 -194.5t-90.5 -135.5t-127.5 -78.5t-151 -31.5l-8 54q124 15 207.5 92t99.5 217q-56 -85 -159 -85q-95 0 -153 57.5t-58 167.5zM144 340q0 -89 35 -127t102 -38q53 0 93.5 37.5t40.5 113.5
q0 181 -139 181q-60 0 -96 -42t-36 -125z" />
    <glyph glyph-name="colon" unicode=":" horiz-adv-x="333" 
d="M90 58q0 33 21.5 54.5t54.5 21.5q34 0 55.5 -21t21.5 -54t-21.5 -54.5t-55.5 -21.5q-33 0 -54.5 21t-21.5 54zM90 445q0 33 21.5 54.5t54.5 21.5q34 0 55.5 -21t21.5 -54t-21.5 -54.5t-55.5 -21.5q-33 0 -54.5 21t-21.5 54z" />
    <glyph glyph-name="semicolon" unicode=";" horiz-adv-x="328" 
d="M86 -131l29 -37q62 36 96 93t34 106q0 42 -21.5 70t-63.5 28q-33 0 -53 -21t-20 -53q0 -55 62 -55h24q-6 -69 -87 -131zM83 445q0 33 21.5 54.5t54.5 21.5q34 0 55.5 -21t21.5 -54t-21.5 -54.5t-55.5 -21.5q-33 0 -54.5 21t-21.5 54z" />
    <glyph glyph-name="less" unicode="&#x3c;" horiz-adv-x="582" 
d="M70 305l378 227l30 -52l-330 -195l330 -194l-30 -54l-378 226v42z" />
    <glyph glyph-name="equal" unicode="=" horiz-adv-x="582" 
d="M505 362h-428v63h428v-63zM505 182h-428v63h428v-63z" />
    <glyph glyph-name="greater" unicode="&#x3e;" horiz-adv-x="582" 
d="M134 532l378 -227v-42l-378 -226l-30 54l330 194l-330 195z" />
    <glyph glyph-name="question" unicode="?" horiz-adv-x="538" 
d="M357 560q0 45 -29.5 72.5t-79.5 27.5q-64 0 -96 -38q32 -44 32 -62t-18 -33t-42 -15q-59 0 -59 60q0 58 59.5 100t137.5 42q86 0 138.5 -44t52.5 -119q0 -47 -28.5 -93.5t-62.5 -77t-62.5 -64.5t-28.5 -59v-63h-56v123q0 29 14.5 55t35.5 46t42 40.5t35.5 46.5t14.5 55z
M173 55q0 31 20 51t51 20t50.5 -19.5t19.5 -50.5q0 -30 -19.5 -50t-50.5 -20t-51 19.5t-20 49.5z" />
    <glyph glyph-name="at" unicode="@" horiz-adv-x="849" 
d="M425 395q63 0 104 -23l52 22l14 -6l-10 -287q-1 -26 0 -35t8.5 -15.5t25.5 -6.5q48 0 81.5 51.5t33.5 141.5q0 132 -73.5 204.5t-220.5 72.5q-140 0 -230.5 -87t-90.5 -241q0 -86 27 -150t72 -98t94 -50t102 -16q118 0 207 72l32 -39q-91 -88 -243 -88q-72 0 -134 21.5
t-113 64.5t-80 115t-29 166q0 167 104 275.5t282 108.5q166 0 260.5 -82.5t94.5 -241.5q0 -126 -57.5 -190.5t-143.5 -64.5q-49 0 -63 22t-11 72l6 127h-4l-21 -73q-21 -73 -56 -110.5t-81 -37.5q-133 0 -133 158q0 124 55.5 186t138.5 62zM485 223l32 107q-37 17 -82 17
q-62 0 -93 -57t-31 -137q0 -101 62 -101q37 0 62 44t50 127z" />
    <glyph glyph-name="A" unicode="A" horiz-adv-x="735" 
d="M530 105l-43 126h-268l-42 -122q-9 -26 -4 -37.5t27 -16.5l57 -8v-47h-242v48l48 8q18 4 26 14t20 40l211 590h106l209 -591q11 -29 17.5 -37.5t26.5 -13.5l41 -8v-50h-267v48l58 7q20 3 24.5 13.5t-5.5 36.5zM353 617l-114 -329h229l-111 329h-4z" />
    <glyph glyph-name="B" unicode="B" horiz-adv-x="660" 
d="M62 0v48l58 9q20 3 25.5 14.5t5.5 36.5v488q0 25 -6 34t-27 13l-56 9v48h255q125 0 192 -38t67 -128q0 -60 -42.5 -102.5t-102.5 -56.5v-5q88 -8 136.5 -50.5t48.5 -120.5q0 -93 -75 -146t-218 -53h-261zM250 333v-273q22 -5 71 -5q91 0 139.5 37t48.5 110
q0 135 -184 135q-44 0 -75 -4zM250 646v-255q13 -2 55 -2q77 0 120.5 36.5t43.5 104.5q0 67 -40 91.5t-121 24.5h-58z" />
    <glyph glyph-name="C" unicode="C" horiz-adv-x="708" 
d="M377 714q105 0 166 -61l10 63h49l39 -233l-54 -12q-30 94 -79 137t-129 43q-106 0 -159.5 -77.5t-53.5 -221.5q0 -127 63.5 -212t174.5 -85q68 0 116 28t87 84l47 -34q-36 -61 -102.5 -104t-157.5 -43q-83 0 -148.5 30t-105.5 81.5t-60.5 116t-20.5 137.5q0 167 89 265
t229 98z" />
    <glyph glyph-name="D" unicode="D" horiz-adv-x="775" 
d="M62 0v48l58 9q20 3 25.5 14.5t5.5 36.5v488q0 25 -6 34t-27 13l-56 9v48h287q170 0 268 -81t98 -247q0 -172 -103 -272t-291 -100h-259zM341 646h-91v-586q28 -5 72 -5q147 0 216.5 75.5t69.5 233.5q0 138 -68 210t-199 72z" />
    <glyph glyph-name="E" unicode="E" horiz-adv-x="637" 
d="M337 325h-87v-271h129q72 0 100.5 24.5t49.5 105.5h55l-24 -184h-498v48l58 9q20 3 25.5 14.5t5.5 36.5v488q0 25 -6 34t-27 13l-56 9v48h463l37 -163l-52 -17q-30 79 -60 102.5t-103 23.5h-97v-259h87h24.5t19 2t14 2t10 6t7 6.5t5 11l4.5 13.5t4.5 19t4.5 22l46 6v-227
l-46 -8q-9 60 -21.5 72.5t-71.5 12.5z" />
    <glyph glyph-name="F" unicode="F" horiz-adv-x="615" 
d="M62 0v48l58 9q20 3 25.5 14.5t5.5 36.5v488q0 25 -6 34t-27 13l-56 9v48h474l36 -179l-52 -18q-33 89 -63 116t-103 27h-104v-279h87q55 0 68 11t25 71l46 6v-247l-46 -8q-12 73 -24 89t-69 16h-87v-199q0 -26 7 -36.5t30 -13.5l70 -8v-48h-295z" />
    <glyph glyph-name="G" unicode="G" horiz-adv-x="760" 
d="M377 714q108 0 169 -61l10 63h49l46 -233l-55 -12q-30 93 -81 136.5t-132 43.5q-108 0 -162.5 -79t-54.5 -223q0 -126 58 -211.5t163 -85.5q111 0 162 68v110q0 25 -6 34t-27 13l-60 9v48h271v-48l-53 -9q-19 -3 -24.5 -14.5t-5.5 -36.5v-229h-43l-26 47
q-80 -58 -195 -58q-81 0 -144.5 30t-101 81t-56.5 113t-19 130q0 174 89 274t229 100z" />
    <glyph glyph-name="H" unicode="H" horiz-adv-x="840" 
d="M590 108v220h-340v-224q0 -25 5.5 -34t26.5 -13l56 -9v-48h-276v48l58 9q20 3 25.5 14.5t5.5 36.5v488q0 25 -6 34t-27 13l-56 9v48h276v-48l-58 -9q-19 -3 -24.5 -14.5t-5.5 -36.5v-201h340v205q0 25 -6 34t-27 13l-55 9v48h275v-48l-57 -9q-20 -3 -25.5 -14.5
t-5.5 -36.5v-488q0 -25 6 -34t27 -13l55 -9v-48h-275v48l57 9q20 3 25.5 14.5t5.5 36.5z" />
    <glyph glyph-name="I" unicode="I" horiz-adv-x="401" 
d="M151 108v488q0 25 -6 34t-27 13l-60 9v48h285v-48l-63 -9q-19 -3 -24.5 -14.5t-5.5 -36.5v-488q0 -25 5.5 -34t26.5 -13l61 -9v-48h-285v48l62 9q20 3 25.5 14.5t5.5 36.5z" />
    <glyph glyph-name="J" unicode="J" horiz-adv-x="575" 
d="M243 50q55 0 80 37.5t25 113.5v393q0 25 -6 34.5t-27 12.5l-70 10v49h295v-48l-63 -9q-19 -3 -24.5 -14t-5.5 -37v-368q0 -44 -9 -82t-30.5 -75t-65 -59t-105.5 -22q-74 0 -126.5 32.5t-52.5 89.5q0 34 20.5 58t54.5 24q31 0 47 -12.5t16 -32.5q0 -21 -30 -71
q27 -24 77 -24z" />
    <glyph glyph-name="K" unicode="K" horiz-adv-x="754" 
d="M155 108v488q0 25 -6 34t-27 13l-60 9v48h285v-48l-63 -9q-19 -3 -24.5 -14t-5.5 -37v-242l243 243q17 18 12 32.5t-25 17.5l-48 8l10 49h237v-50l-38 -8q-18 -4 -31 -13t-37 -33l-194 -195l175 -265q34 -51 58 -67t64 -16q18 0 45 9l10 -36q-38 -40 -103 -40
q-54 0 -90.5 22.5t-70.5 76.5l-157 251l-60 -61v-171q0 -25 5.5 -34t26.5 -13l61 -9v-48h-285v48l62 9q20 3 25.5 14.5t5.5 36.5z" />
    <glyph glyph-name="L" unicode="L" horiz-adv-x="637" 
d="M250 596v-541h113q71 0 100.5 32t58.5 127h55l-25 -214h-490v48l58 9q20 3 25.5 14.5t5.5 36.5v488q0 25 -6 34t-27 13l-56 9v48h286v-48l-66 -9q-21 -4 -26.5 -13t-5.5 -34z" />
    <glyph glyph-name="M" unicode="M" horiz-adv-x="1003" 
d="M748 108l-30 514l-187 -509h-100l-180 510l-30 -519q0 -25 5.5 -34t26.5 -13l56 -9v-48h-246v48l58 9q19 3 24.5 14.5t5.5 36.5l30 488q0 25 -5.5 34t-26.5 13l-56 9v48h232l171 -507l183 507h231v-48l-63 -9q-19 -3 -24.5 -14t-5.5 -37l30 -488q0 -25 5.5 -34t26.5 -13
l61 -9v-48h-285v48l62 9q20 3 25.5 14.5t5.5 36.5z" />
    <glyph glyph-name="N" unicode="N" horiz-adv-x="824" 
d="M686 592v-592h-103l-362 609v-505q0 -25 5.5 -34t26.5 -13l56 -9v-48h-246v48l58 9q19 3 24.5 14.5t5.5 36.5v488q0 25 -5.5 34t-26.5 13l-56 9v48h222l332 -571v467q0 25 -6 34t-27 13l-55 9v48h245v-48l-57 -9q-20 -3 -25.5 -14.5t-5.5 -36.5z" />
    <glyph glyph-name="O" unicode="O" horiz-adv-x="779" 
d="M59 336q0 79 18.5 143t50.5 107t75.5 72.5t91.5 42.5t101 13q138 0 230.5 -90.5t92.5 -255.5q0 -178 -94.5 -280t-237.5 -102q-151 0 -239.5 98t-88.5 252zM165 357q0 -140 63 -222t171 -82q100 0 155.5 73.5t55.5 222.5q0 145 -61.5 223t-165.5 78q-99 0 -158.5 -72
t-59.5 -221z" />
    <glyph glyph-name="P" unicode="P" horiz-adv-x="602" 
d="M62 0v48l58 9q20 3 25.5 14.5t5.5 36.5v488q0 25 -6 34t-27 13l-56 9v48h246q269 0 269 -198q0 -60 -23 -106t-60.5 -70.5t-79 -36.5t-85.5 -12q-57 0 -79 5v-176q0 -26 7 -36.5t30 -13.5l70 -8v-48h-295zM250 646v-310q17 -5 58 -5q162 0 162 168q0 82 -43.5 114.5
t-125.5 32.5h-51z" />
    <glyph glyph-name="Q" unicode="Q" horiz-adv-x="779" 
d="M67 336q0 79 18.5 143t50.5 107t75.5 72.5t91.5 42.5t101 13q138 0 230.5 -90.5t92.5 -255.5q0 -115 -41.5 -200t-112.5 -132q45 -64 82 -97t79 -33q73 0 141 49l20 -30q-48 -61 -91.5 -88.5t-97.5 -27.5q-40 0 -73 15t-60 44.5t-45.5 58t-40.5 71.5q-43 -12 -92 -12
q-151 0 -239.5 98t-88.5 252zM173 357q0 -91 27 -161q58 53 130 53q58 0 104.5 -40.5t99.5 -114.5q84 71 84 255q0 145 -61.5 223t-165.5 78q-99 0 -158.5 -72t-59.5 -221zM317 193q-54 0 -95 -40q62 -100 185 -100q29 0 49 4q-34 66 -65.5 101t-73.5 35z" />
    <glyph glyph-name="R" unicode="R" horiz-adv-x="725" 
d="M402 229q-23 55 -41.5 73.5t-65.5 18.5q-25 0 -45 -3v-212q0 -26 7 -36.5t30 -13.5l70 -8v-48h-295v48l58 9q20 3 25.5 14.5t5.5 36.5v488q0 25 -6 34t-27 13l-56 9v48h251q269 0 269 -179q0 -42 -18.5 -77t-47 -56t-56 -33t-52.5 -17v-3q40 -11 62.5 -32t38.5 -59
l35 -82q14 -34 20 -47t18.5 -31.5t26.5 -24.5t34 -6q18 0 45 9l10 -36q-42 -40 -101 -40q-58 0 -88.5 30t-58.5 98zM250 646v-275q16 -2 56 -2q83 0 126 39.5t43 106.5q0 74 -43.5 102.5t-125.5 28.5h-56z" />
    <glyph glyph-name="S" unicode="S" horiz-adv-x="613" 
d="M308 659q-53 0 -86.5 -30t-33.5 -80q0 -51 37.5 -82.5t90.5 -48.5t106 -37.5t90.5 -65t37.5 -115.5q0 -84 -57.5 -149t-166.5 -65q-59 0 -105.5 20t-74.5 47l-16 -59h-44l-20 216l57 5q61 -165 200 -165q63 0 96.5 30.5t33.5 84.5q0 48 -27 80t-67 46t-87 31.5t-87 36
t-67 60t-27 102.5q0 80 55.5 136.5t158.5 56.5q87 0 148 -52l13 52h47l22 -202l-56 -8q-25 86 -68.5 120.5t-102.5 34.5z" />
    <glyph glyph-name="T" unicode="T" horiz-adv-x="738" 
d="M659 700l37 -200l-55 -13q-32 99 -62 128.5t-104 29.5h-56v-539q0 -24 6.5 -33t27.5 -13l79 -12v-48h-325v48l80 12q20 3 26.5 14t6.5 36v535h-55q-74 0 -105 -29.5t-64 -128.5l-54 13l39 200h578z" />
    <glyph glyph-name="U" unicode="U" horiz-adv-x="810" 
d="M677 592v-301q0 -305 -273 -305q-145 0 -205.5 73.5t-60.5 205.5v331q0 25 -6 34t-27 13l-56 9v48h276v-48l-58 -9q-19 -3 -24.5 -14.5t-5.5 -36.5v-320q0 -113 41.5 -164.5t139.5 -51.5q93 0 141 52t48 171v317q0 25 -6 34t-27 13l-55 9v48h246v-48l-57 -9
q-20 -3 -25.5 -14.5t-5.5 -36.5z" />
    <glyph glyph-name="V" unicode="V" horiz-adv-x="739" 
d="M212 595l167 -509h4l168 503q9 26 4 37t-26 16l-49 11v47h237v-48l-49 -8q-17 -4 -25 -14t-20 -40l-203 -590h-106l-207 591q-10 28 -17 36.5t-28 13.5l-40 8v51h264v-48l-55 -7q-20 -3 -24.5 -13.5t5.5 -36.5z" />
    <glyph glyph-name="W" unicode="W" horiz-adv-x="1084" 
d="M208 595l117 -509h5l161 614h109l179 -609h5l118 498q6 26 1.5 37.5t-25.5 15.5l-49 11v47h237v-48l-47 -8q-19 -3 -29.5 -14t-17.5 -40l-151 -590h-113l-174 601h-3l-156 -601h-120l-152 591q-7 27 -15 36.5t-30 13.5l-40 8v51h264v-48l-51 -7q-20 -3 -24.5 -13t1.5 -37
z" />
    <glyph glyph-name="X" unicode="X" horiz-adv-x="707" 
d="M115 100l183 240l-186 253q-20 24 -31 33t-31 14l-35 8l10 52h244v-49l-40 -7q-37 -5 -6 -43l136 -186l128 182q11 14 14 22.5t-2 13t-20 8.5l-38 10l10 49h215v-50l-38 -8q-19 -4 -31 -12.5t-31 -33.5l-170 -232l189 -257q34 -43 69 -49l38 -6v-52h-269v50l45 6
q40 5 8 44l-140 189l-140 -190q-9 -12 -12 -19t1.5 -12.5t18.5 -8.5l44 -10v-49h-233v50l38 8q17 4 27.5 11t34.5 31z" />
    <glyph glyph-name="Y" unicode="Y" horiz-adv-x="708" 
d="M302 108v185l-187 298q-16 26 -27.5 36.5t-32.5 14.5l-37 7v51h279v-48l-55 -7q-22 -2 -27.5 -14.5t8.5 -35.5l146 -237h5l138 233q29 41 -17 51l-46 11v47h241v-48l-49 -8q-17 -3 -27.5 -14t-29.5 -41l-183 -297v-188q0 -25 5.5 -34t26.5 -13l61 -9v-48h-285v48l62 9
q20 3 25.5 14.5t5.5 36.5z" />
    <glyph glyph-name="Z" unicode="Z" horiz-adv-x="657" 
d="M588 700v-50l-410 -595h211q63 0 93.5 30t59.5 114h55l-19 -199h-520v48l412 599h-214q-59 0 -82 -27t-48 -106l-59 -5l12 191h509z" />
    <glyph glyph-name="bracketleft" unicode="[" horiz-adv-x="333" 
d="M188 711v-822q0 -28 5 -36.5t23 -9.5l77 -6l-4 -49h-184v1024h184l4 -49l-77 -6q-18 -1 -23 -9.5t-5 -36.5z" />
    <glyph glyph-name="backslash" unicode="\" horiz-adv-x="428" 
d="M83 802l325 -912h-64l-324 912h63z" />
    <glyph glyph-name="bracketright" unicode="]" horiz-adv-x="333" 
d="M145 -111v822q0 28 -5 36.5t-23 9.5l-77 6l4 49h184v-1024h-184l-4 49l77 6q18 1 23 9.5t5 36.5z" />
    <glyph glyph-name="asciicircum" unicode="^" horiz-adv-x="582" 
d="M312 712l222 -338l-49 -30l-194 291l-194 -291l-49 30l222 338h42z" />
    <glyph glyph-name="underscore" unicode="_" 
d="M485 -103h-470v63h470v-63z" />
    <glyph glyph-name="grave" unicode="`" 
d="M223 747l105 -142l-24 -25l-133 92q-35 24 -35 53q0 20 13.5 35.5t34.5 15.5q16 0 39 -29z" />
    <glyph glyph-name="a" unicode="a" horiz-adv-x="539" 
d="M432 100q0 -62 92 -36l10 -38q-42 -40 -92 -40q-86 0 -95 89q-56 -89 -155 -89q-56 0 -98 33t-42 102q0 64 40.5 102t114.5 49q54 8 132 12v68q0 64 -27.5 91t-80.5 27q-30 0 -55.5 -9t-36.5 -21q26 -44 26 -56q0 -18 -15 -31.5t-39 -13.5q-57 0 -57 52q0 53 58 91.5
t133 38.5q87 0 137 -40t50 -140v-241zM339 161v71q-43 0 -97 -9q-50 -7 -71.5 -32.5t-21.5 -58.5q0 -39 23 -58t58 -19q39 0 74 25.5t35 80.5z" />
    <glyph glyph-name="b" unicode="b" horiz-adv-x="607" 
d="M336 449q-59 0 -99 -34.5t-40 -111.5v-207q49 -47 124 -47q69 0 104 57t35 151q0 192 -124 192zM197 755v-328q20 29 38 47t53 32.5t80 14.5q90 0 141.5 -66t51.5 -184q0 -138 -62 -211.5t-171 -73.5q-89 0 -151 45l-47 -45l-26 8v650q0 34 -7 45t-36 15l-44 7l6 50
l163 5z" />
    <glyph glyph-name="c" unicode="c" 
d="M291 521q76 0 127.5 -37t51.5 -94q0 -28 -16.5 -46.5t-49.5 -18.5q-59 0 -59 48q0 21 28 68q-38 24 -90 24q-59 0 -97 -54.5t-38 -142.5q0 -96 43.5 -150.5t116.5 -54.5q77 0 129 52l34 -35q-30 -41 -79.5 -67.5t-108.5 -26.5q-114 0 -175 73t-61 188q0 126 68 200
t176 74z" />
    <glyph glyph-name="d" unicode="d" horiz-adv-x="614" 
d="M507 755v-657q0 -24 6 -32.5t27 -12.5l49 -9v-47l-154 -6l-14 79h-3q-66 -84 -166 -84q-98 0 -151.5 67t-53.5 185q0 130 65.5 206.5t178.5 76.5q72 0 123 -33v156q0 34 -7 45t-36 15l-44 7l6 50l163 5zM281 58q53 0 93 38.5t40 115.5v201q-52 41 -125 41
q-143 0 -143 -206q0 -86 32.5 -138t102.5 -52z" />
    <glyph glyph-name="e" unicode="e" horiz-adv-x="520" 
d="M47 247q0 126 68 200t176 74q80 0 132 -47.5t52 -129.5q0 -48 -14 -98h-313q3 -86 45 -136t116 -50q80 0 138 60l35 -35q-31 -42 -82.5 -70.5t-113.5 -28.5q-114 0 -176.5 73.5t-62.5 187.5zM148 302h230q3 20 3 46q0 120 -101 120q-117 0 -132 -166z" />
    <glyph glyph-name="f" unicode="f" horiz-adv-x="387" 
d="M49 494l80 10v41q0 111 47.5 174t136.5 63q60 0 100 -25.5t40 -70.5q0 -27 -16 -46.5t-44 -19.5q-55 0 -55 39q0 17 25 59q-23 12 -54 12q-45 0 -66 -30.5t-21 -100.5v-92h146v-63h-146v-340q0 -23 6 -32.5t26 -12.5l87 -11v-48h-300v48l57 9q20 3 25.5 14.5t5.5 36.5
v336h-80v50z" />
    <glyph glyph-name="g" unicode="g" horiz-adv-x="558" 
d="M459 348q0 -81 -56 -127.5t-146 -46.5q-48 0 -81 10q-32 -36 -32 -60q0 -23 17 -32t53 -9h128q83 0 130 -27t47 -102q0 -93 -73 -138t-192 -45q-229 0 -229 123q0 72 91 114v4q-29 9 -43.5 32t-14.5 45q0 29 14.5 52.5t50.5 61.5v3q-74 38 -74 137q0 82 57 130t150 48
q76 0 130 -33q33 94 104 94q27 0 47 -14t20 -39q0 -22 -17.5 -39t-39.5 -17q-26 0 -40 27l-10 21q-18 -27 -29 -63q38 -45 38 -110zM364 345q0 59 -30 92t-85 33q-105 0 -105 -122q0 -57 31 -89t80 -32q53 0 81 31t28 87zM424 -70q0 62 -93 62h-168q-46 -35 -46 -83
q0 -41 34 -58t111 -17q78 0 120 26t42 70z" />
    <glyph glyph-name="h" unicode="h" horiz-adv-x="662" 
d="M222 755v-327q21 39 66 66t101 27q87 0 125.5 -47.5t38.5 -123.5v-254q0 -21 5.5 -29t25.5 -12l47 -8v-47h-245v46l44 8q19 4 24.5 12t5.5 30v225q0 31 -3 50.5t-12.5 39t-30.5 29t-54 9.5q-57 0 -97.5 -35t-40.5 -104v-210q0 -22 4.5 -31t20.5 -12l53 -11v-46h-245v47
l48 9q18 3 22 13t4 35v540q0 34 -7 45t-36 15l-44 7l6 50l163 5z" />
    <glyph glyph-name="i" unicode="i" horiz-adv-x="333" 
d="M221 505v-400q0 -23 6 -33t26 -14l56 -10v-48h-269v49l57 9q15 2 22 9.5t8 15.5t1 26v273q0 36 -6 48t-30 15l-48 7l7 50l158 8zM93 686q0 29 19 48t48 19q30 0 49 -18.5t19 -47.5t-19 -48t-49 -19q-29 0 -48 18.5t-19 47.5z" />
    <glyph glyph-name="j" unicode="j" horiz-adv-x="309" 
d="M214 505v-410q0 -136 -33 -206.5t-119 -117.5l-28 41q48 38 67.5 89t19.5 127v354q0 36 -6 48t-30 15l-48 7l8 50l157 8zM86 686q0 29 19 48t48 19q30 0 49 -18.5t19 -47.5t-19 -48t-49 -19q-29 0 -48 18.5t-19 47.5z" />
    <glyph glyph-name="k" unicode="k" horiz-adv-x="610" 
d="M131 108v536q0 34 -7 45t-36 15l-44 7l5 50l164 5l11 -11v-651q0 -23 5 -33t22 -14l36 -8v-49h-244v48l57 9q15 2 22 9.5t8 15.5t1 26zM330 290l166 -189q12 -14 21 -21.5t23 -14.5t30.5 -6.5t37.5 8.5l10 -36q-42 -40 -90 -40q-44 0 -68.5 16t-59.5 58l-169 201v8
l159 143q14 13 13 24t-13 13l-45 7l9 46h224v-45l-29 -8q-38 -11 -70 -38z" />
    <glyph glyph-name="l" unicode="l" horiz-adv-x="333" 
d="M128 109v534q0 34 -7 45t-36 15l-44 7l6 51l163 5l11 -11v-650q0 -23 6 -33t26 -14l56 -10v-48h-269v49l57 9q15 2 22 9.5t8 15.5t1 26z" />
    <glyph glyph-name="m" unicode="m" horiz-adv-x="970" 
d="M533 416q22 43 67.5 74t102.5 31q83 0 120.5 -47.5t37.5 -123.5v-254q0 -21 5.5 -29t25.5 -12l47 -8v-47h-237v46l36 8q19 4 24.5 12t5.5 30v225q0 24 -1.5 40.5t-7 34.5t-15.5 28.5t-27.5 17.5t-42.5 7q-53 0 -92.5 -35t-39.5 -104v-210q0 -22 4 -30.5t20 -12.5l46 -11
v-46h-230v46l36 8q19 4 24.5 12t5.5 30v225q0 31 -2.5 50.5t-11.5 39.5t-29 29t-51 9q-53 0 -92.5 -35t-39.5 -104v-210q0 -22 4.5 -31t20.5 -12l45 -11v-46h-237v47l48 9q18 3 22 13t4 35v282q0 35 -6 46.5t-28 15.5l-49 7l7 48l139 11l12 -7l7 -89h3q24 41 68.5 72
t100.5 31q119 0 150 -105z" />
    <glyph glyph-name="n" unicode="n" horiz-adv-x="662" 
d="M55 47l48 9q18 3 22 13t4 35v282q0 35 -6 46.5t-28 15.5l-49 7l7 48l139 11l12 -7l7 -89h3q24 42 69.5 72.5t105.5 30.5q87 0 125.5 -47.5t38.5 -123.5v-254q0 -21 5.5 -29t25.5 -12l47 -8v-47h-245v46l44 8q19 4 24.5 12t5.5 30v225q0 31 -3 50.5t-12.5 39t-30.5 29
t-54 9.5q-57 0 -97.5 -35t-40.5 -104v-210q0 -22 4.5 -31t20.5 -12l53 -11v-46h-245v47z" />
    <glyph glyph-name="o" unicode="o" horiz-adv-x="587" 
d="M47 242q0 141 74 210t183 69q104 0 170.5 -66t66.5 -188q0 -133 -70 -207t-181 -74q-115 0 -179 71t-64 185zM148 272q0 -103 41 -163.5t115 -60.5q64 0 99.5 50t35.5 145q0 103 -41 161t-110 58q-65 0 -102.5 -47t-37.5 -143z" />
    <glyph glyph-name="p" unicode="p" horiz-adv-x="618" 
d="M204 19v-132q0 -24 7 -35t25 -14l61 -10v-47h-263v48l48 8q29 5 29 47v500q0 36 -6 48.5t-31 16.5l-46 6l8 49l137 10l14 -6l6 -90h3q31 47 72.5 75t108.5 28q90 0 142 -66t52 -184q0 -138 -62.5 -211.5t-171.5 -73.5q-82 0 -133 33zM345 450q-59 0 -100 -35t-41 -112
v-208q22 -20 57.5 -31.5t68.5 -11.5q69 0 104.5 55.5t35.5 149.5q0 193 -125 193z" />
    <glyph glyph-name="q" unicode="q" horiz-adv-x="601" 
d="M281 58q53 0 93 39t40 110v207q-51 41 -124 41q-144 0 -144 -206q0 -90 33.5 -140.5t101.5 -50.5zM507 513v-628q0 -42 29 -47l48 -8v-49h-263v48l61 10q18 3 25 14t7 35v183q-64 -85 -166 -85q-90 0 -145.5 67t-55.5 184q0 135 69 209.5t175 74.5q79 0 143 -43l45 43z
" />
    <glyph glyph-name="r" unicode="r" horiz-adv-x="473" 
d="M363 521q45 0 74 -24.5t29 -71.5q0 -79 -67 -79q-29 0 -44 12t-15 32t19 58q-45 23 -91 -26t-46 -116v-203q0 -23 4 -31.5t21 -11.5l86 -13v-47h-278v48l48 9q17 3 21.5 13.5t4.5 34.5v280q0 35 -6 46.5t-28 15.5l-49 7l7 49l135 11l12 -7l11 -90h3q60 104 149 104z" />
    <glyph glyph-name="s" unicode="s" horiz-adv-x="452" 
d="M235 467q-42 0 -66 -18.5t-24 -54.5q0 -33 28.5 -53t69.5 -30.5t81.5 -24.5t69 -47t28.5 -87q0 -68 -47 -117t-132 -49q-76 0 -125 34l-11 -34h-42l-16 172l56 4q41 -116 140 -116q42 0 68 22t26 62q0 29 -20.5 48.5t-51.5 27.5t-67 19.5t-67 25t-51.5 44.5t-20.5 76
q0 66 45.5 108t126.5 42q69 0 110 -34l8 34h44l13 -163l-57 5q-10 49 -43 76.5t-73 27.5z" />
    <glyph glyph-name="t" unicode="t" horiz-adv-x="404" 
d="M37 444v52q56 4 80.5 47.5t30.5 130.5l48 6l13 -6v-167h156v-63h-156v-302q0 -83 71 -83q49 0 96 32l23 -36q-67 -69 -150 -69q-72 0 -102.5 38.5t-30.5 110.5v309h-79z" />
    <glyph glyph-name="u" unicode="u" horiz-adv-x="634" 
d="M435 75h-3q-35 -42 -73.5 -65.5t-93.5 -23.5q-160 0 -160 171v229q0 35 -6 46.5t-28 15.5l-44 7l8 48l151 11l12 -7v-321q0 -33 2.5 -51t11 -38.5t29 -29.5t53.5 -9q57 0 96 34.5t39 104.5v189q0 35 -6 46.5t-28 15.5l-45 7l8 48l152 11l12 -7v-406q0 -24 6 -32.5
t26 -12.5l50 -9v-47l-155 -6z" />
    <glyph glyph-name="v" unicode="v" horiz-adv-x="592" 
d="M193 404l116 -321h5l115 314q9 26 4 37.5t-27 16.5l-44 10l10 46h208v-47l-37 -8q-18 -4 -26 -14t-20 -40l-155 -398h-96l-155 399q-11 29 -17.5 37.5t-26.5 13.5l-35 8l10 49h238v-46l-48 -7q-20 -3 -24.5 -13.5t5.5 -36.5z" />
    <glyph glyph-name="w" unicode="w" horiz-adv-x="860" 
d="M500 507l112 -422h5l87 312q8 26 3 37.5t-26 16.5l-43 10l9 46h206v-47l-37 -8q-19 -4 -28 -14t-18 -40l-121 -398h-105l-109 412h-5l-111 -412h-110l-123 399q-8 27 -15.5 36.5t-28.5 14.5l-35 8l10 49h235v-46l-48 -7q-20 -3 -23.5 -13t3.5 -37l88 -321h5l116 424h107z
" />
    <glyph glyph-name="x" unicode="x" horiz-adv-x="567" 
d="M109 97l121 150l-126 156q-20 24 -31 33t-31 14l-35 8l10 49h240v-46l-40 -7q-37 -5 -6 -43l84 -105l77 101q11 14 14 22.5t-2 13t-20 8.5l-38 10l10 46h205v-47l-38 -8q-19 -4 -31 -12.5t-31 -33.5l-113 -142l129 -160q34 -43 69 -49l38 -6v-49h-265v47l45 6q40 5 8 44
l-88 108l-84 -109q-9 -12 -12 -19t1.5 -12.5t18.5 -8.5l44 -10v-46h-223v47l38 8q17 4 27.5 11t34.5 31z" />
    <glyph glyph-name="y" unicode="y" horiz-adv-x="576" 
d="M195 404l111 -280h5l111 273q9 26 4 37.5t-27 16.5l-44 10l10 46h209v-47l-37 -8q-18 -4 -25.5 -13.5t-21.5 -40.5l-193 -452q-16 -36 -25 -54.5t-26 -45.5t-34 -40.5t-42.5 -24t-56.5 -10.5q-52 0 -77.5 23t-25.5 57q0 30 19 48.5t46 18.5q49 0 53 -36q1 -11 -4 -57
q32 -1 54 26t55 99l25 57l-165 392q-2 5 -6.5 14.5t-6 12.5t-5 8.5t-6.5 7l-8 4t-12 4.5l-35 8l10 49h238v-46l-48 -7q-20 -3 -24.5 -13.5t5.5 -36.5z" />
    <glyph glyph-name="z" unicode="z" horiz-adv-x="486" 
d="M445 507v-46l-298 -406h118q36 0 55.5 4t35 20.5t24.5 36t25 65.5h54l-14 -181h-408v44l299 410h-117q-58 0 -79.5 -20t-42.5 -89l-57 -5l12 167h393z" />
    <glyph glyph-name="braceleft" unicode="{" horiz-adv-x="372" 
d="M55 335q24 0 38 3t28.5 12t21 29t6.5 52q0 39 -9.5 140t-9.5 132q0 55 33 87t92 32q38 0 72 -9l-10 -49q-30 4 -49 4q-22 0 -34 -13.5t-12 -52.5q0 -20 8.5 -123t8.5 -139q0 -35 -9 -59t-27.5 -38t-33.5 -21t-40 -14q25 -8 40.5 -15.5t33.5 -22t27 -38.5t9 -58
q0 -36 -8.5 -148t-8.5 -129q0 -40 14.5 -55t40.5 -15q20 0 48 4l10 -49q-33 -9 -72 -9q-62 0 -97.5 32.5t-35.5 88.5q0 29 9.5 140t9.5 148q0 59 -23.5 77t-70.5 19v57z" />
    <glyph glyph-name="bar" unicode="|" horiz-adv-x="424" 
d="M242 802l1 -912h-62v912h61z" />
    <glyph glyph-name="braceright" unicode="}" horiz-adv-x="372" 
d="M317 335v-57q-47 -1 -70.5 -19t-23.5 -77q0 -37 9.5 -148t9.5 -140q0 -56 -35.5 -88.5t-97.5 -32.5q-39 0 -72 9l10 49q28 -4 48 -4q26 0 40.5 15t14.5 55q0 17 -8.5 129t-8.5 148q0 34 9 58t27 38.5t33.5 22t40.5 15.5q-25 7 -40 14t-33.5 21t-27.5 38t-9 59
q0 36 8.5 139t8.5 123q0 39 -12 52.5t-34 13.5q-19 0 -49 -4l-10 49q34 9 72 9q59 0 92 -32t33 -87q0 -31 -9.5 -132t-9.5 -140q0 -60 23 -77.5t71 -18.5z" />
    <glyph glyph-name="asciitilde" unicode="~" horiz-adv-x="582" 
d="M421 241q-34 0 -129 21t-127 21q-15 0 -23.5 -8t-24.5 -36l-52 19q24 55 43.5 73.5t53.5 18.5q32 0 130 -21t129 -21q13 0 22 9t23 35l52 -19q-24 -57 -44.5 -74.5t-52.5 -17.5z" />
    <glyph glyph-name="uni00A0" unicode="&#xa0;" horiz-adv-x="250" 
 />
    <glyph glyph-name="exclamdown" unicode="&#xa1;" horiz-adv-x="322" 
d="M187 316v-72q0 -88 18.5 -218.5t18.5 -162.5t-20 -48.5t-50 -16.5q-29 0 -46.5 16.5t-17.5 47.5q0 25 20.5 155t20.5 228v71h56zM229 452q0 -31 -20 -51t-51 -20t-50.5 19.5t-19.5 50.5q0 30 19.5 50t50.5 20t51 -19.5t20 -49.5z" />
    <glyph glyph-name="cent" unicode="&#xa2;" 
d="M233 -29h-50l16 79q-66 23 -100 79.5t-34 135.5q0 111 63.5 173.5t162.5 64.5l13 65h50l-14 -69q55 -11 88 -42t33 -73q0 -24 -14.5 -40.5t-43.5 -16.5q-48 0 -48 43q0 17 23 55q-27 16 -49 21l-67 -332q18 -5 46 -5q74 0 122 48l32 -34q-64 -86 -176 -86q-15 0 -39 2z
M161 283q0 -102 55 -146l64 313q-57 -2 -88 -46.5t-31 -120.5z" />
    <glyph glyph-name="sterling" unicode="&#xa3;" horiz-adv-x="553" 
d="M27 312l7 56h75q-34 70 -34 141q0 95 61.5 150.5t165.5 55.5q79 0 128 -37t49 -95q0 -28 -16.5 -46.5t-49.5 -18.5q-59 0 -59 48q0 21 28 68q-38 25 -87 25q-119 0 -119 -127q0 -72 44 -164h203v-56h-177q13 -35 14 -64q1 -46 -19.5 -91t-62.5 -76l2 -4h127q71 0 96 17.5
t53 83.5h54l-24 -178h-439l-8 46q69 27 98 62t29 103q0 39 -30 101h-109z" />
    <glyph glyph-name="currency" unicode="&#xa4;" horiz-adv-x="539" 
d="M94 312q0 63 26 104l-65 84l30 30l82 -65q47 30 107 30q56 0 99 -25l81 63l30 -30l-63 -80q25 -41 25 -102q0 -67 -29 -112l66 -84l-30 -30l-86 67q-42 -26 -99 -26q-60 0 -100 24l-82 -64l-30 30l64 82q-26 41 -26 104zM168 315q0 -60 26.5 -93t73.5 -33q104 0 104 128
q0 123 -100 123q-49 0 -76.5 -31.5t-27.5 -93.5z" />
    <glyph glyph-name="yen" unicode="&#xa5;" horiz-adv-x="595" 
d="M90 276l6 54h95l-90 129q-12 20 -22.5 28.5t-27.5 12.5l-31 6v48h237v-47l-39 -5q-39 -3 -16 -40l112 -159h4l113 156q22 33 -14 41l-39 8v46h206v-46l-41 -6q-13 -2 -22.5 -11.5t-25.5 -33.5l-87 -127h101v-54h-137l-21 -31v-33h158v-54h-158v-65q0 -20 4.5 -27.5
t22.5 -10.5l63 -7v-48h-278v48l64 7q17 3 21.5 12t4.5 30v61h-163l6 54h157v30l-24 34h-139z" />
    <glyph glyph-name="brokenbar" unicode="&#xa6;" horiz-adv-x="424" 
d="M242 289v-399h-61v399h61zM242 803v-371h-61v371h61z" />
    <glyph glyph-name="section" unicode="&#xa7;" horiz-adv-x="618" 
d="M322 660q-43 0 -66 -20.5t-23 -58.5q0 -30 17.5 -57t46 -48t62.5 -42t68 -44t62.5 -48t46 -60t17.5 -76t-24 -81.5t-75 -64.5q11 -28 11 -59q0 -70 -51.5 -113.5t-135.5 -43.5q-66 0 -107 25.5t-41 70.5q0 28 16.5 48.5t45.5 20.5q55 0 55 -39q0 -16 -25 -59
q22 -12 64 -12q45 0 72 22t27 62q0 38 -33 72.5t-80 63t-94 59.5t-80 77t-33 101q0 41 23 79t75 62q-10 28 -10 61q0 69 49 112.5t124 43.5q60 0 101 -25.5t41 -70.5q0 -27 -17 -47.5t-45 -20.5q-55 0 -55 39q0 17 25 59q-23 12 -54 12zM147 376q0 -32 21 -60.5t55 -53
t70 -47t75 -52.5t61 -59q42 31 42 81q0 39 -33.5 74.5t-77 60t-95.5 61t-78 72.5q-40 -30 -40 -77z" />
    <glyph glyph-name="dieresis" unicode="&#xa8;" 
d="M86 682q0 27 18 45t45 18q28 0 46.5 -17.5t18.5 -44.5t-18.5 -45t-46.5 -18q-27 0 -45 17.5t-18 44.5zM284 682q0 27 18 45t46 18t46 -17.5t18 -44.5t-18 -45t-46 -18t-46 17.5t-18 44.5z" />
    <glyph glyph-name="copyright" unicode="&#xa9;" horiz-adv-x="795" 
d="M735 325q0 -152 -92.5 -244.5t-245.5 -92.5q-163 0 -250 89.5t-87 233.5q0 153 98 244.5t241 91.5q153 0 244.5 -87.5t91.5 -234.5zM675 319q0 129 -76 202.5t-200 73.5q-121 0 -199 -77t-78 -206q0 -125 74 -198.5t203 -73.5q127 0 201.5 76.5t74.5 202.5zM400 519
q55 0 91 -31l5 32h31l22 -132l-40 -7q-16 49 -41.5 70t-66.5 21q-47 0 -76 -42t-29 -116q0 -66 33 -112t86 -46q36 0 61 14.5t52 45.5l28 -27q-63 -83 -147 -83q-93 0 -143.5 60t-50.5 147q0 94 52.5 150t132.5 56z" />
    <glyph glyph-name="ordfeminine" unicode="&#xaa;" horiz-adv-x="420" 
d="M335 611v-161q0 -50 71 -27l9 -32q-32 -29 -81 -29q-63 0 -69 55q-39 -55 -116 -55q-47 0 -79 24.5t-32 74.5q0 89 121 107q33 5 97 9v40q0 44 -19.5 62.5t-58.5 18.5q-44 0 -65 -16q19 -28 19 -38q0 -15 -11.5 -25.5t-33.5 -10.5q-45 0 -45 42q0 37 43 64.5t104 27.5
q146 0 146 -131zM256 489v45q-33 0 -69 -6q-38 -6 -52 -21t-14 -40t16.5 -38t39.5 -13q29 0 54 18t25 55z" />
    <glyph glyph-name="guillemotleft" unicode="&#xab;" horiz-adv-x="483" 
d="M268 449l-123 -183l123 -187l-30 -24l-166 168q-22 22 -22 43q0 16 28 45l159 163zM443 449l-123 -183l123 -187l-30 -24l-166 168q-22 22 -22 43q0 16 28 45l159 163z" />
    <glyph glyph-name="logicalnot" unicode="&#xac;" horiz-adv-x="582" 
d="M505 367v-213h-67v150h-361v63h428z" />
    <glyph glyph-name="uni00AD" unicode="&#xad;" horiz-adv-x="354" 
d="M44 247v82h267v-82h-267z" />
    <glyph glyph-name="registered" unicode="&#xae;" horiz-adv-x="487" 
d="M427 586q0 -81 -51.5 -131.5t-132.5 -50.5q-88 0 -135.5 48.5t-47.5 126.5q0 83 52.5 133t131.5 50q84 0 133.5 -48t49.5 -128zM214 576h14q24 0 40 -41q1 -4 4.5 -12.5t4.5 -11.5t3.5 -10t4.5 -9.5t4.5 -7.5t5 -7t6.5 -5t7.5 -4t8.5 -2t10 -1q17 0 28 6v16h-9
q-6 0 -10.5 2t-7.5 7.5t-5 9t-5 12.5l-4 12q-8 21 -18.5 31.5t-30.5 16.5v3q24 4 43 19t19 43q0 60 -94 60h-82l-4 -16l16 -2q13 -1 13 -17v-163q0 -17 -13 -18l-16 -2v-16h97v16l-17 2q-13 1 -13 18v71zM214 595v88h17q56 0 56 -42q0 -46 -55 -46h-18z" />
    <glyph glyph-name="macron" unicode="&#xaf;" 
d="M110 635v73h280v-73h-280z" />
    <glyph glyph-name="degree" unicode="&#xb0;" horiz-adv-x="329" 
d="M101 665q0 -30 16.5 -48.5t48.5 -18.5q29 0 46 19t17 48q0 31 -17.5 49t-48.5 18q-29 0 -45.5 -18.5t-16.5 -48.5zM43 665q0 49 32.5 83t91.5 34q57 0 88 -31.5t31 -83.5t-32.5 -86t-89.5 -34q-60 0 -90.5 32.5t-30.5 85.5z" />
    <glyph glyph-name="plusminus" unicode="&#xb1;" horiz-adv-x="582" 
d="M505 306h-184v-165h-67v165h-177v63h177v152h67v-152h184v-63zM505 1h-428v63h428v-63z" />
    <glyph glyph-name="twosuperior" unicode="&#xb2;" horiz-adv-x="397" 
d="M351 711q0 -49 -46 -105t-179 -164h97q46 0 59.5 10.5t34.5 59.5h45l-13 -138h-309l-6 46q146 136 188 188t42 100q0 36 -23.5 59.5t-63.5 23.5q-57 0 -73 -25q20 -31 20 -39q0 -15 -12 -26.5t-33 -11.5q-27 0 -40.5 14.5t-13.5 37.5q0 43 46 70.5t114 27.5
q75 0 120.5 -33.5t45.5 -94.5z" />
    <glyph glyph-name="threesuperior" unicode="&#xb3;" horiz-adv-x="423" 
d="M253 614v-2q115 -19 115 -114q0 -60 -51 -98t-119 -38q-124 0 -173 86l37 31q49 -58 121 -58q46 0 70.5 22t24.5 57q0 89 -124 85l4 41q54 5 82 31.5t28 63.5q0 29 -22 50t-59 21q-53 0 -70 -28q19 -26 19 -36q0 -16 -11.5 -27t-32.5 -11q-26 0 -39.5 14t-13.5 36
q0 40 44 69.5t112 29.5q67 0 111 -32t44 -84q0 -38 -27.5 -67.5t-69.5 -41.5z" />
    <glyph glyph-name="acute" unicode="&#xb4;" 
d="M173 605l108 143q23 29 39 29q21 0 34.5 -15.5t13.5 -35.5q0 -32 -35 -53l-136 -93z" />
    <glyph glyph-name="mu" unicode="&#xb5;" horiz-adv-x="621" 
d="M167 23h-2q0 -54 7.5 -112.5t15.5 -90.5l8 -31l-90 -18l-12 5q-10 106 -10 228l-10 504l92 8l12 -5q-11 -182 -11 -421q15 -15 42 -23.5t49 -8.5q64 0 101.5 38t37.5 101l-4 311l92 8l12 -5q0 -1 -5 -53.5t-9 -122t-4 -144.5q0 -82 10.5 -107t53.5 -25q16 0 43 8l10 -41
q-40 -40 -94 -40q-26 0 -43 8.5t-27 27.5t-14 32t-9 39h-3q-21 -52 -60.5 -79.5t-84.5 -27.5q-59 0 -94 37z" />
    <glyph glyph-name="paragraph" unicode="&#xb6;" horiz-adv-x="578" 
d="M301 700v-462h-16q-101 0 -158 60.5t-57 169.5q0 112 55.5 172t163.5 60h12zM451 597v-741h-199v47l80 7q18 1 25 12.5t7 36.5v741h169v-47l-50 -6q-18 -2 -25 -13.5t-7 -36.5z" />
    <glyph glyph-name="periodcentered" unicode="&#xb7;" horiz-adv-x="319" 
d="M83 310q0 33 21.5 54.5t54.5 21.5q34 0 55.5 -21t21.5 -54t-21.5 -54.5t-55.5 -21.5q-33 0 -54.5 21t-21.5 54z" />
    <glyph glyph-name="cedilla" unicode="&#xb8;" 
d="M224 13h46l-27 -70q49 6 77.5 -14t28.5 -62q0 -44 -29 -70t-86 -26q-31 0 -57 13.5t-38 26.5l24 37q29 -22 64 -22q21 0 35.5 11t14.5 32q0 38 -50 38q-17 0 -30 -3l-8 21z" />
    <glyph glyph-name="onesuperior" unicode="&#xb9;" horiz-adv-x="323" 
d="M211 829v-374q0 -15 5 -21.5t20 -8.5l62 -10v-41h-260v41l65 10q14 2 19 9.5t5 22.5v272q0 22 -5 29t-26 10l-61 5l5 40l163 23z" />
    <glyph glyph-name="ordmasculine" unicode="&#xba;" horiz-adv-x="427" 
d="M35 544q0 101 52.5 149.5t133.5 48.5q77 0 124 -46t47 -134q0 -95 -50 -147.5t-132 -52.5q-85 0 -130 50t-45 132zM114 566q0 -74 27.5 -115t79.5 -41q44 0 67.5 35t23.5 100q0 70 -27.5 110.5t-75.5 40.5q-95 0 -95 -130z" />
    <glyph glyph-name="guillemotright" unicode="&#xbb;" horiz-adv-x="483" 
d="M40 80l123 183l-123 187l30 24l166 -168q22 -22 22 -43q0 -16 -28 -45l-159 -163zM215 80l123 183l-123 187l30 24l166 -168q22 -22 22 -43q0 -16 -28 -45l-159 -163z" />
    <glyph glyph-name="onequarter" unicode="&#xbc;" horiz-adv-x="958" 
d="M206 -14l417 728h67l-416 -728h-68zM211 715v-374q0 -15 5 -21.5t20 -8.5l62 -10v-41h-260v41l65 10q14 2 19 9.5t5 22.5v272q0 22 -5 29t-26 10l-61 5l5 40l163 23zM907 350q0 -49 -46 -105t-179 -164h97q46 0 59.5 10.5t34.5 59.5h45l-13 -138h-309l-6 46
q146 136 188 188t42 100q0 36 -23.5 59.5t-63.5 23.5q-57 0 -73 -25q20 -31 20 -39q0 -15 -12 -26.5t-33 -11.5q-27 0 -40.5 14.5t-13.5 37.5q0 43 46 70.5t114 27.5q75 0 120.5 -33.5t45.5 -94.5z" />
    <glyph glyph-name="onehalf" unicode="&#xbd;" horiz-adv-x="966" 
d="M207 -14l417 728h67l-416 -728h-68zM211 715v-374q0 -15 5 -21.5t20 -8.5l62 -10v-41h-260v41l65 10q14 2 19 9.5t5 22.5v272q0 22 -5 29t-26 10l-61 5l5 40l163 23zM834 460v-315h78v-54h-78v-91h-81v91h-218l-8 49l215 316l84 10zM590 145h163v242z" />
    <glyph glyph-name="threequarters" unicode="&#xbe;" horiz-adv-x="966" 
d="M240 -14l417 728h67l-416 -728h-68zM870 460v-315h78v-54h-78v-91h-81v91h-218l-8 49l215 316l84 10zM626 145h163v242zM253 500v-2q115 -19 115 -114q0 -60 -51 -98t-119 -38q-124 0 -173 86l37 31q49 -58 121 -58q46 0 70.5 22t24.5 57q0 89 -124 85l4 41q54 5 82 31.5
t28 63.5q0 29 -22 50t-59 21q-53 0 -70 -28q19 -26 19 -36q0 -16 -11.5 -27t-32.5 -11q-26 0 -39.5 14t-13.5 36q0 40 44 69.5t112 29.5q67 0 111 -32t44 -84q0 -38 -27.5 -67.5t-69.5 -41.5z" />
    <glyph glyph-name="questiondown" unicode="&#xbf;" horiz-adv-x="538" 
d="M282 -48q0 -45 29.5 -72.5t79.5 -27.5q64 0 96 38q-32 44 -32 62t18 33t42 15q59 0 59 -60q0 -58 -59.5 -100t-137.5 -42q-86 0 -138.5 44t-52.5 119q0 39 18.5 76t45.5 65.5t54 54t45.5 50.5t18.5 46v63h56v-123q0 -29 -14.5 -54.5t-35.5 -45.5t-42 -40.5t-35.5 -46
t-14.5 -54.5zM466 452q0 -31 -20 -51t-51 -20t-50.5 19.5t-19.5 50.5q0 30 19.5 50t50.5 20t51 -19.5t20 -49.5z" />
    <glyph glyph-name="Agrave" unicode="&#xc0;" horiz-adv-x="735" 
d="M530 105l-43 126h-268l-42 -122q-9 -26 -4 -37.5t27 -16.5l57 -8v-47h-242v48l48 8q18 4 26 14t20 40l211 590h106l209 -591q11 -29 17.5 -37.5t26.5 -13.5l41 -8v-50h-267v48l58 7q20 3 24.5 13.5t-5.5 36.5zM353 617l-114 -329h229l-111 329h-4zM337 899l131 -119
l-20 -28l-151 66q-42 18 -42 56q0 18 12.5 33t30.5 15q13 0 39 -23z" />
    <glyph glyph-name="Aacute" unicode="&#xc1;" horiz-adv-x="735" 
d="M530 105l-43 126h-268l-42 -122q-9 -26 -4 -37.5t27 -16.5l57 -8v-47h-242v48l48 8q18 4 26 14t20 40l211 590h106l209 -591q11 -29 17.5 -37.5t26.5 -13.5l41 -8v-50h-267v48l58 7q20 3 24.5 13.5t-5.5 36.5zM353 617l-114 -329h229l-111 329h-4zM278 780l131 119
q26 23 39 23q18 0 30.5 -15t12.5 -33q0 -38 -42 -56l-151 -66z" />
    <glyph glyph-name="Acircumflex" unicode="&#xc2;" horiz-adv-x="735" 
d="M530 105l-43 126h-268l-42 -122q-9 -26 -4 -37.5t27 -16.5l57 -8v-47h-242v48l48 8q18 4 26 14t20 40l211 590h106l209 -591q11 -29 17.5 -37.5t26.5 -13.5l41 -8v-50h-267v48l58 7q20 3 24.5 13.5t-5.5 36.5zM353 617l-114 -329h229l-111 329h-4zM511 750l-137 84
l-140 -84l-24 25l125 137q20 22 39 22q14 0 41 -28l121 -130z" />
    <glyph glyph-name="Atilde" unicode="&#xc3;" horiz-adv-x="735" 
d="M530 105l-43 126h-268l-42 -122q-9 -26 -4 -37.5t27 -16.5l57 -8v-47h-242v48l48 8q18 4 26 14t20 40l211 590h106l209 -591q11 -29 17.5 -37.5t26.5 -13.5l41 -8v-50h-267v48l58 7q20 3 24.5 13.5t-5.5 36.5zM353 617l-114 -329h229l-111 329h-4zM450 777q-36 0 -92 24
q-58 24 -73 24q-14 0 -23 -6.5t-24 -29.5l-31 19q26 56 45 75t48 19q26 0 89 -26q58 -24 76 -24q10 0 17.5 5t11.5 10.5t15 21.5l31 -19q-25 -53 -44 -73t-46 -20z" />
    <glyph glyph-name="Adieresis" unicode="&#xc4;" horiz-adv-x="735" 
d="M530 105l-43 126h-268l-42 -122q-9 -26 -4 -37.5t27 -16.5l57 -8v-47h-242v48l48 8q18 4 26 14t20 40l211 590h106l209 -591q11 -29 17.5 -37.5t26.5 -13.5l41 -8v-50h-267v48l58 7q20 3 24.5 13.5t-5.5 36.5zM353 617l-114 -329h229l-111 329h-4zM206 834q0 28 18 46
t46 18q29 0 47.5 -17.5t18.5 -45.5t-18.5 -46t-47.5 -18q-28 0 -46 17.5t-18 45.5zM408 834q0 28 18.5 46t46.5 18q29 0 47 -17.5t18 -45.5t-18.5 -46t-46.5 -18q-29 0 -47 17.5t-18 45.5z" />
    <glyph glyph-name="Aring" unicode="&#xc5;" horiz-adv-x="735" 
d="M530 105l-43 126h-268l-42 -122q-9 -26 -4 -37.5t27 -16.5l57 -8v-47h-242v48l48 8q18 4 26 14t20 40l211 590h106l209 -591q11 -29 17.5 -37.5t26.5 -13.5l41 -8v-50h-267v48l58 7q20 3 24.5 13.5t-5.5 36.5zM353 617l-114 -329h229l-111 329h-4zM320 847q0 -58 53 -58
q50 0 50 58q0 25 -13 41t-39 16q-51 0 -51 -57zM262 847q0 45 29 74.5t83 29.5q52 0 80 -27.5t28 -74.5q0 -48 -29 -77.5t-81 -29.5q-56 0 -83 28t-27 77z" />
    <glyph glyph-name="AE" unicode="&#xc6;" horiz-adv-x="997" 
d="M422 48l58 9q20 3 25.5 14.5t5.5 36.5v207h-226l-99 -206q-23 -48 17 -54l57 -8v-47h-245v48l48 8q16 3 25.5 13.5t24.5 40.5l263 533l-64 9v48h573l37 -163l-52 -17q-30 79 -60 102.5t-103 23.5h-97v-274h87h24.5t19 2t14 2t10 6t7 6.5t5 11l4.5 13.5t4.5 19t4.5 22
l46 6v-222l-46 -8q-9 60 -21.5 72.5t-71.5 12.5h-87v-261h129q72 0 100.5 24.5t49.5 105.5h55l-24 -184h-498v48zM512 646h-67l-132 -274h198z" />
    <glyph glyph-name="Ccedilla" unicode="&#xc7;" horiz-adv-x="708" 
d="M377 714q105 0 166 -61l10 63h49l39 -233l-54 -12q-30 94 -79 137t-129 43q-106 0 -159.5 -77.5t-53.5 -221.5q0 -127 63.5 -212t174.5 -85q68 0 116 28t87 84l47 -34q-36 -61 -102.5 -104t-157.5 -43q-83 0 -148.5 30t-105.5 81.5t-60.5 116t-20.5 137.5q0 167 89 265
t229 98zM363 13h46l-27 -70q49 6 77.5 -14t28.5 -62q0 -44 -29 -70t-86 -26q-31 0 -57 13.5t-38 26.5l24 37q29 -22 64 -22q21 0 35.5 11t14.5 32q0 38 -50 38q-16 0 -30 -3l-8 21z" />
    <glyph glyph-name="Egrave" unicode="&#xc8;" horiz-adv-x="637" 
d="M337 325h-87v-271h129q72 0 100.5 24.5t49.5 105.5h55l-24 -184h-498v48l58 9q20 3 25.5 14.5t5.5 36.5v488q0 25 -6 34t-27 13l-56 9v48h463l37 -163l-52 -17q-30 79 -60 102.5t-103 23.5h-97v-259h87h24.5t19 2t14 2t10 6t7 6.5t5 11l4.5 13.5t4.5 19t4.5 22l46 6v-227
l-46 -8q-9 60 -21.5 72.5t-71.5 12.5zM289 899l131 -119l-20 -28l-151 66q-42 18 -42 56q0 18 12.5 33t30.5 15q13 0 39 -23z" />
    <glyph glyph-name="Eacute" unicode="&#xc9;" horiz-adv-x="637" 
d="M337 325h-87v-271h129q72 0 100.5 24.5t49.5 105.5h55l-24 -184h-498v48l58 9q20 3 25.5 14.5t5.5 36.5v488q0 25 -6 34t-27 13l-56 9v48h463l37 -163l-52 -17q-30 79 -60 102.5t-103 23.5h-97v-259h87h24.5t19 2t14 2t10 6t7 6.5t5 11l4.5 13.5t4.5 19t4.5 22l46 6v-227
l-46 -8q-9 60 -21.5 72.5t-71.5 12.5zM230 780l131 119q26 23 39 23q18 0 30.5 -15t12.5 -33q0 -38 -42 -56l-151 -66z" />
    <glyph glyph-name="Ecircumflex" unicode="&#xca;" horiz-adv-x="637" 
d="M337 325h-87v-271h129q72 0 100.5 24.5t49.5 105.5h55l-24 -184h-498v48l58 9q20 3 25.5 14.5t5.5 36.5v488q0 25 -6 34t-27 13l-56 9v48h463l37 -163l-52 -17q-30 79 -60 102.5t-103 23.5h-97v-259h87h24.5t19 2t14 2t10 6t7 6.5t5 11l4.5 13.5t4.5 19t4.5 22l46 6v-227
l-46 -8q-9 60 -21.5 72.5t-71.5 12.5zM463 750l-137 84l-140 -84l-24 25l125 137q20 22 39 22q14 0 41 -28l121 -130z" />
    <glyph glyph-name="Edieresis" unicode="&#xcb;" horiz-adv-x="637" 
d="M337 325h-87v-271h129q72 0 100.5 24.5t49.5 105.5h55l-24 -184h-498v48l58 9q20 3 25.5 14.5t5.5 36.5v488q0 25 -6 34t-27 13l-56 9v48h463l37 -163l-52 -17q-30 79 -60 102.5t-103 23.5h-97v-259h87h24.5t19 2t14 2t10 6t7 6.5t5 11l4.5 13.5t4.5 19t4.5 22l46 6v-227
l-46 -8q-9 60 -21.5 72.5t-71.5 12.5zM158 834q0 28 18 46t46 18q29 0 47.5 -17.5t18.5 -45.5t-18.5 -46t-47.5 -18q-28 0 -46 17.5t-18 45.5zM360 834q0 28 18.5 46t46.5 18q29 0 47 -17.5t18 -45.5t-18.5 -46t-46.5 -18q-29 0 -47 17.5t-18 45.5z" />
    <glyph glyph-name="Igrave" unicode="&#xcc;" horiz-adv-x="401" 
d="M151 108v488q0 25 -6 34t-27 13l-60 9v48h285v-48l-63 -9q-19 -3 -24.5 -14.5t-5.5 -36.5v-488q0 -25 5.5 -34t26.5 -13l61 -9v-48h-285v48l62 9q20 3 25.5 14.5t5.5 36.5zM164 899l131 -119l-20 -28l-151 66q-42 18 -42 56q0 18 12.5 33t30.5 15q13 0 39 -23z" />
    <glyph glyph-name="Iacute" unicode="&#xcd;" horiz-adv-x="401" 
d="M151 108v488q0 25 -6 34t-27 13l-60 9v48h285v-48l-63 -9q-19 -3 -24.5 -14.5t-5.5 -36.5v-488q0 -25 5.5 -34t26.5 -13l61 -9v-48h-285v48l62 9q20 3 25.5 14.5t5.5 36.5zM105 780l131 119q26 23 39 23q18 0 30.5 -15t12.5 -33q0 -38 -42 -56l-151 -66z" />
    <glyph glyph-name="Icircumflex" unicode="&#xce;" horiz-adv-x="401" 
d="M151 108v488q0 25 -6 34t-27 13l-60 9v48h285v-48l-63 -9q-19 -3 -24.5 -14.5t-5.5 -36.5v-488q0 -25 5.5 -34t26.5 -13l61 -9v-48h-285v48l62 9q20 3 25.5 14.5t5.5 36.5zM338 750l-137 84l-140 -84l-24 25l125 137q20 22 39 22q14 0 41 -28l121 -130z" />
    <glyph glyph-name="Idieresis" unicode="&#xcf;" horiz-adv-x="401" 
d="M151 108v488q0 25 -6 34t-27 13l-60 9v48h285v-48l-63 -9q-19 -3 -24.5 -14.5t-5.5 -36.5v-488q0 -25 5.5 -34t26.5 -13l61 -9v-48h-285v48l62 9q20 3 25.5 14.5t5.5 36.5zM33 834q0 28 18 46t46 18q29 0 47.5 -17.5t18.5 -45.5t-18.5 -46t-47.5 -18q-28 0 -46 17.5
t-18 45.5zM235 834q0 28 18.5 46t46.5 18q29 0 47 -17.5t18 -45.5t-18.5 -46t-46.5 -18q-29 0 -47 17.5t-18 45.5z" />
    <glyph glyph-name="Eth" unicode="&#xd0;" horiz-adv-x="775" 
d="M441 330h-400l8 63h392v-63zM62 0v48l58 9q20 3 25.5 14.5t5.5 36.5v488q0 25 -6 34t-27 13l-56 9v48h287q170 0 268 -81t98 -247q0 -172 -103 -272t-291 -100h-259zM341 646h-91v-586q28 -5 72 -5q147 0 216.5 75.5t69.5 233.5q0 138 -68 210t-199 72z" />
    <glyph glyph-name="Ntilde" unicode="&#xd1;" horiz-adv-x="824" 
d="M686 592v-592h-103l-362 609v-505q0 -25 5.5 -34t26.5 -13l56 -9v-48h-246v48l58 9q19 3 24.5 14.5t5.5 36.5v488q0 25 -5.5 34t-26.5 13l-56 9v48h222l332 -571v467q0 25 -6 34t-27 13l-55 9v48h245v-48l-57 -9q-20 -3 -25.5 -14.5t-5.5 -36.5zM490 777q-36 0 -92 24
q-58 24 -73 24q-14 0 -23 -6.5t-24 -29.5l-31 19q26 56 45 75t48 19q26 0 89 -26q58 -24 76 -24q10 0 17.5 5t11.5 10.5t15 21.5l31 -19q-25 -53 -44 -73t-46 -20z" />
    <glyph glyph-name="Ograve" unicode="&#xd2;" horiz-adv-x="779" 
d="M59 336q0 79 18.5 143t50.5 107t75.5 72.5t91.5 42.5t101 13q138 0 230.5 -90.5t92.5 -255.5q0 -178 -94.5 -280t-237.5 -102q-151 0 -239.5 98t-88.5 252zM165 357q0 -140 63 -222t171 -82q100 0 155.5 73.5t55.5 222.5q0 145 -61.5 223t-165.5 78q-99 0 -158.5 -72
t-59.5 -221zM355 899l131 -119l-20 -28l-151 66q-42 18 -42 56q0 18 12.5 33t30.5 15q13 0 39 -23z" />
    <glyph glyph-name="Oacute" unicode="&#xd3;" horiz-adv-x="779" 
d="M59 336q0 79 18.5 143t50.5 107t75.5 72.5t91.5 42.5t101 13q138 0 230.5 -90.5t92.5 -255.5q0 -178 -94.5 -280t-237.5 -102q-151 0 -239.5 98t-88.5 252zM165 357q0 -140 63 -222t171 -82q100 0 155.5 73.5t55.5 222.5q0 145 -61.5 223t-165.5 78q-99 0 -158.5 -72
t-59.5 -221zM296 780l131 119q26 23 39 23q18 0 30.5 -15t12.5 -33q0 -38 -42 -56l-151 -66z" />
    <glyph glyph-name="Ocircumflex" unicode="&#xd4;" horiz-adv-x="779" 
d="M59 336q0 79 18.5 143t50.5 107t75.5 72.5t91.5 42.5t101 13q138 0 230.5 -90.5t92.5 -255.5q0 -178 -94.5 -280t-237.5 -102q-151 0 -239.5 98t-88.5 252zM165 357q0 -140 63 -222t171 -82q100 0 155.5 73.5t55.5 222.5q0 145 -61.5 223t-165.5 78q-99 0 -158.5 -72
t-59.5 -221zM529 750l-137 84l-140 -84l-24 25l125 137q20 22 39 22q14 0 41 -28l121 -130z" />
    <glyph glyph-name="Otilde" unicode="&#xd5;" horiz-adv-x="779" 
d="M59 336q0 79 18.5 143t50.5 107t75.5 72.5t91.5 42.5t101 13q138 0 230.5 -90.5t92.5 -255.5q0 -178 -94.5 -280t-237.5 -102q-151 0 -239.5 98t-88.5 252zM165 357q0 -140 63 -222t171 -82q100 0 155.5 73.5t55.5 222.5q0 145 -61.5 223t-165.5 78q-99 0 -158.5 -72
t-59.5 -221zM468 777q-36 0 -92 24q-58 24 -73 24q-14 0 -23 -6.5t-24 -29.5l-31 19q26 56 45 75t48 19q26 0 89 -26q58 -24 76 -24q10 0 17.5 5t11.5 10.5t15 21.5l31 -19q-25 -53 -44 -73t-46 -20z" />
    <glyph glyph-name="Odieresis" unicode="&#xd6;" horiz-adv-x="779" 
d="M59 336q0 79 18.5 143t50.5 107t75.5 72.5t91.5 42.5t101 13q138 0 230.5 -90.5t92.5 -255.5q0 -178 -94.5 -280t-237.5 -102q-151 0 -239.5 98t-88.5 252zM165 357q0 -140 63 -222t171 -82q100 0 155.5 73.5t55.5 222.5q0 145 -61.5 223t-165.5 78q-99 0 -158.5 -72
t-59.5 -221zM224 834q0 28 18 46t46 18q29 0 47.5 -17.5t18.5 -45.5t-18.5 -46t-47.5 -18q-28 0 -46 17.5t-18 45.5zM426 834q0 28 18.5 46t46.5 18q29 0 47 -17.5t18 -45.5t-18.5 -46t-46.5 -18q-29 0 -47 17.5t-18 45.5z" />
    <glyph glyph-name="multiply" unicode="&#xd7;" horiz-adv-x="582" 
d="M429 123l-139 140l-138 -137l-42 42l137 139l-138 136l45 42l136 -135l141 141l42 -44l-140 -141l140 -139z" />
    <glyph glyph-name="Oslash" unicode="&#xd8;" horiz-adv-x="779" 
d="M116 -14h-80l606 728h80zM59 336q0 79 18.5 143t50.5 107t75.5 72.5t91.5 42.5t101 13q138 0 230.5 -90.5t92.5 -255.5q0 -178 -94.5 -280t-237.5 -102q-151 0 -239.5 98t-88.5 252zM165 357q0 -140 63 -222t171 -82q100 0 155.5 73.5t55.5 222.5q0 145 -61.5 223
t-165.5 78q-99 0 -158.5 -72t-59.5 -221z" />
    <glyph glyph-name="Ugrave" unicode="&#xd9;" horiz-adv-x="810" 
d="M677 592v-301q0 -305 -273 -305q-145 0 -205.5 73.5t-60.5 205.5v331q0 25 -6 34t-27 13l-56 9v48h276v-48l-58 -9q-19 -3 -24.5 -14.5t-5.5 -36.5v-320q0 -113 41.5 -164.5t139.5 -51.5q93 0 141 52t48 171v317q0 25 -6 34t-27 13l-55 9v48h246v-48l-57 -9
q-20 -3 -25.5 -14.5t-5.5 -36.5zM380 899l131 -119l-20 -28l-151 66q-42 18 -42 56q0 18 12.5 33t30.5 15q13 0 39 -23z" />
    <glyph glyph-name="Uacute" unicode="&#xda;" horiz-adv-x="810" 
d="M677 592v-301q0 -305 -273 -305q-145 0 -205.5 73.5t-60.5 205.5v331q0 25 -6 34t-27 13l-56 9v48h276v-48l-58 -9q-19 -3 -24.5 -14.5t-5.5 -36.5v-320q0 -113 41.5 -164.5t139.5 -51.5q93 0 141 52t48 171v317q0 25 -6 34t-27 13l-55 9v48h246v-48l-57 -9
q-20 -3 -25.5 -14.5t-5.5 -36.5zM321 780l131 119q26 23 39 23q18 0 30.5 -15t12.5 -33q0 -38 -42 -56l-151 -66z" />
    <glyph glyph-name="Ucircumflex" unicode="&#xdb;" horiz-adv-x="810" 
d="M677 592v-301q0 -305 -273 -305q-145 0 -205.5 73.5t-60.5 205.5v331q0 25 -6 34t-27 13l-56 9v48h276v-48l-58 -9q-19 -3 -24.5 -14.5t-5.5 -36.5v-320q0 -113 41.5 -164.5t139.5 -51.5q93 0 141 52t48 171v317q0 25 -6 34t-27 13l-55 9v48h246v-48l-57 -9
q-20 -3 -25.5 -14.5t-5.5 -36.5zM554 750l-137 84l-140 -84l-24 25l125 137q20 22 39 22q14 0 41 -28l121 -130z" />
    <glyph glyph-name="Udieresis" unicode="&#xdc;" horiz-adv-x="810" 
d="M677 592v-301q0 -305 -273 -305q-145 0 -205.5 73.5t-60.5 205.5v331q0 25 -6 34t-27 13l-56 9v48h276v-48l-58 -9q-19 -3 -24.5 -14.5t-5.5 -36.5v-320q0 -113 41.5 -164.5t139.5 -51.5q93 0 141 52t48 171v317q0 25 -6 34t-27 13l-55 9v48h246v-48l-57 -9
q-20 -3 -25.5 -14.5t-5.5 -36.5zM249 834q0 28 18 46t46 18q29 0 47.5 -17.5t18.5 -45.5t-18.5 -46t-47.5 -18q-28 0 -46 17.5t-18 45.5zM451 834q0 28 18.5 46t46.5 18q29 0 47 -17.5t18 -45.5t-18.5 -46t-46.5 -18q-29 0 -47 17.5t-18 45.5z" />
    <glyph glyph-name="Yacute" unicode="&#xdd;" horiz-adv-x="708" 
d="M302 108v185l-187 298q-16 26 -27.5 36.5t-32.5 14.5l-37 7v51h279v-48l-55 -7q-22 -2 -27.5 -14.5t8.5 -35.5l146 -237h5l138 233q29 41 -17 51l-46 11v47h241v-48l-49 -8q-17 -3 -27.5 -14t-29.5 -41l-183 -297v-188q0 -25 5.5 -34t26.5 -13l61 -9v-48h-285v48l62 9
q20 3 25.5 14.5t5.5 36.5zM276 780l131 119q26 23 39 23q18 0 30.5 -15t12.5 -33q0 -38 -42 -56l-151 -66z" />
    <glyph glyph-name="Thorn" unicode="&#xde;" horiz-adv-x="610" 
d="M264 505v-300h58q162 0 162 160q0 79 -43.5 109.5t-125.5 30.5h-51zM264 594v-35h58q269 0 269 -191q0 -59 -23 -103t-60.5 -67.5t-79 -35t-85.5 -11.5h-79v-45q0 -26 7 -36.5t30 -13.5l70 -8v-48h-295v48l58 9q20 3 25.5 14.5t5.5 36.5v484q0 25 -5.5 36.5t-25.5 14.5
l-58 9v48h295v-48l-70 -8q-23 -3 -30 -13.5t-7 -36.5z" />
    <glyph glyph-name="germandbls" unicode="&#xdf;" horiz-adv-x="677" 
d="M49 494l80 10v41q0 109 61.5 173t169.5 64q79 0 130.5 -31t51.5 -100q0 -33 -17 -66.5t-37.5 -57t-37.5 -55t-17 -60.5q0 -31 22.5 -53.5t54.5 -38t64.5 -33.5t55 -52.5t22.5 -82.5q0 -69 -46 -117.5t-130 -48.5q-65 0 -118 37l-11 -37h-42l-16 172l56 4
q41 -116 133 -116q42 0 66.5 22t24.5 62q0 35 -23.5 58.5t-57 38t-67 31t-57 48t-23.5 77.5q0 35 18.5 69t40.5 57t40.5 58.5t18.5 72.5q0 88 -107 88q-58 0 -94 -31t-36 -98v-599h-181v48l57 9q20 3 25.5 14.5t5.5 36.5v336h-80v50z" />
    <glyph glyph-name="agrave" unicode="&#xe0;" horiz-adv-x="539" 
d="M432 100q0 -62 92 -36l10 -38q-42 -40 -92 -40q-86 0 -95 89q-56 -89 -155 -89q-56 0 -98 33t-42 102q0 64 40.5 102t114.5 49q54 8 132 12v68q0 64 -27.5 91t-80.5 27q-30 0 -55.5 -9t-36.5 -21q26 -44 26 -56q0 -18 -15 -31.5t-39 -13.5q-57 0 -57 52q0 53 58 91.5
t133 38.5q87 0 137 -40t50 -140v-241zM339 161v71q-43 0 -97 -9q-50 -7 -71.5 -32.5t-21.5 -58.5q0 -39 23 -58t58 -19q39 0 74 25.5t35 80.5zM221 747l105 -142l-24 -25l-133 92q-35 24 -35 53q0 20 13.5 35.5t34.5 15.5q16 0 39 -29z" />
    <glyph glyph-name="aacute" unicode="&#xe1;" horiz-adv-x="539" 
d="M432 100q0 -62 92 -36l10 -38q-42 -40 -92 -40q-86 0 -95 89q-56 -89 -155 -89q-56 0 -98 33t-42 102q0 64 40.5 102t114.5 49q54 8 132 12v68q0 64 -27.5 91t-80.5 27q-30 0 -55.5 -9t-36.5 -21q26 -44 26 -56q0 -18 -15 -31.5t-39 -13.5q-57 0 -57 52q0 53 58 91.5
t133 38.5q87 0 137 -40t50 -140v-241zM339 161v71q-43 0 -97 -9q-50 -7 -71.5 -32.5t-21.5 -58.5q0 -39 23 -58t58 -19q39 0 74 25.5t35 80.5zM171 605l108 143q23 29 39 29q21 0 34.5 -15.5t13.5 -35.5q0 -32 -35 -53l-136 -93z" />
    <glyph glyph-name="acircumflex" unicode="&#xe2;" horiz-adv-x="539" 
d="M432 100q0 -62 92 -36l10 -38q-42 -40 -92 -40q-86 0 -95 89q-56 -89 -155 -89q-56 0 -98 33t-42 102q0 64 40.5 102t114.5 49q54 8 132 12v68q0 64 -27.5 91t-80.5 27q-30 0 -55.5 -9t-36.5 -21q26 -44 26 -56q0 -18 -15 -31.5t-39 -13.5q-57 0 -57 52q0 53 58 91.5
t133 38.5q87 0 137 -40t50 -140v-241zM339 161v71q-43 0 -97 -9q-50 -7 -71.5 -32.5t-21.5 -58.5q0 -39 23 -58t58 -19q39 0 74 25.5t35 80.5zM373 580l-123 100l-127 -100l-26 25l114 152q18 22 39 22q20 0 41 -28l109 -145z" />
    <glyph glyph-name="atilde" unicode="&#xe3;" horiz-adv-x="539" 
d="M432 100q0 -62 92 -36l10 -38q-42 -40 -92 -40q-86 0 -95 89q-56 -89 -155 -89q-56 0 -98 33t-42 102q0 64 40.5 102t114.5 49q54 8 132 12v68q0 64 -27.5 91t-80.5 27q-30 0 -55.5 -9t-36.5 -21q26 -44 26 -56q0 -18 -15 -31.5t-39 -13.5q-57 0 -57 52q0 53 58 91.5
t133 38.5q87 0 137 -40t50 -140v-241zM339 161v71q-43 0 -97 -9q-50 -7 -71.5 -32.5t-21.5 -58.5q0 -39 23 -58t58 -19q39 0 74 25.5t35 80.5zM322 620q-34 0 -90 24q-60 25 -70 25q-13 0 -22.5 -7t-24.5 -30l-31 19q26 55 45 73t48 18q28 0 86 -24t74 -24q10 0 17.5 5
t11.5 10.5t15 21.5l31 -19q-25 -52 -43.5 -72t-46.5 -20z" />
    <glyph glyph-name="adieresis" unicode="&#xe4;" horiz-adv-x="539" 
d="M432 100q0 -62 92 -36l10 -38q-42 -40 -92 -40q-86 0 -95 89q-56 -89 -155 -89q-56 0 -98 33t-42 102q0 64 40.5 102t114.5 49q54 8 132 12v68q0 64 -27.5 91t-80.5 27q-30 0 -55.5 -9t-36.5 -21q26 -44 26 -56q0 -18 -15 -31.5t-39 -13.5q-57 0 -57 52q0 53 58 91.5
t133 38.5q87 0 137 -40t50 -140v-241zM339 161v71q-43 0 -97 -9q-50 -7 -71.5 -32.5t-21.5 -58.5q0 -39 23 -58t58 -19q39 0 74 25.5t35 80.5zM84 682q0 27 18 45t45 18q28 0 46.5 -17.5t18.5 -44.5t-18.5 -45t-46.5 -18q-27 0 -45 17.5t-18 44.5zM282 682q0 27 18 45t46 18
t46 -17.5t18 -44.5t-18 -45t-46 -18t-46 17.5t-18 44.5z" />
    <glyph glyph-name="aring" unicode="&#xe5;" horiz-adv-x="539" 
d="M432 100q0 -62 92 -36l10 -38q-42 -40 -92 -40q-86 0 -95 89q-56 -89 -155 -89q-56 0 -98 33t-42 102q0 64 40.5 102t114.5 49q54 8 132 12v68q0 64 -27.5 91t-80.5 27q-30 0 -55.5 -9t-36.5 -21q26 -44 26 -56q0 -18 -15 -31.5t-39 -13.5q-57 0 -57 52q0 53 58 91.5
t133 38.5q87 0 137 -40t50 -140v-241zM339 161v71q-43 0 -97 -9q-50 -7 -71.5 -32.5t-21.5 -58.5q0 -39 23 -58t58 -19q39 0 74 25.5t35 80.5zM198 685q0 -24 12.5 -40t38.5 -16q48 0 48 56q0 24 -12.5 40t-37.5 16t-37 -16t-12 -40zM140 685q0 44 28.5 73t81.5 29
q51 0 78.5 -27t27.5 -73q0 -48 -28.5 -76.5t-79.5 -28.5q-54 0 -81 27.5t-27 75.5z" />
    <glyph glyph-name="ae" unicode="&#xe6;" horiz-adv-x="809" 
d="M570 -14q-133 0 -197 102q-55 -102 -181 -102q-56 0 -98 33t-42 102q0 64 40.5 102t114.5 49q54 8 132 12v68q0 64 -27.5 91t-80.5 27q-30 0 -55.5 -9t-36.5 -21q26 -44 26 -56q0 -18 -15 -31.5t-39 -13.5q-57 0 -57 52q0 53 58 91.5t133 38.5q116 0 159 -67
q67 67 171 67q80 0 132 -47.5t52 -129.5q0 -48 -14 -98h-313q3 -86 45 -136t116 -50q80 0 138 60l35 -35q-31 -42 -82.5 -70.5t-113.5 -28.5zM432 302h230q3 20 3 46q0 120 -101 120q-117 0 -132 -166zM339 164v68q-43 0 -97 -9q-50 -7 -71.5 -32.5t-21.5 -58.5
q0 -39 23 -58t58 -19q38 0 73.5 27t35.5 82z" />
    <glyph glyph-name="ccedilla" unicode="&#xe7;" 
d="M291 521q76 0 127.5 -37t51.5 -94q0 -28 -16.5 -46.5t-49.5 -18.5q-59 0 -59 48q0 21 28 68q-38 24 -90 24q-59 0 -97 -54.5t-38 -142.5q0 -96 43.5 -150.5t116.5 -54.5q77 0 129 52l34 -35q-30 -41 -79.5 -67.5t-108.5 -26.5q-114 0 -175 73t-61 188q0 126 68 200
t176 74zM256 13h46l-27 -70q49 6 77.5 -14t28.5 -62q0 -44 -29 -70t-86 -26q-31 0 -57 13.5t-38 26.5l24 37q29 -22 64 -22q21 0 35.5 11t14.5 32q0 38 -50 38q-17 0 -30 -3l-8 21z" />
    <glyph glyph-name="egrave" unicode="&#xe8;" horiz-adv-x="520" 
d="M47 247q0 126 68 200t176 74q80 0 132 -47.5t52 -129.5q0 -48 -14 -98h-313q3 -86 45 -136t116 -50q80 0 138 60l35 -35q-31 -42 -82.5 -70.5t-113.5 -28.5q-114 0 -176.5 73.5t-62.5 187.5zM148 302h230q3 20 3 46q0 120 -101 120q-117 0 -132 -166zM252 747l105 -142
l-24 -25l-133 92q-35 24 -35 53q0 20 13.5 35.5t34.5 15.5q16 0 39 -29z" />
    <glyph glyph-name="eacute" unicode="&#xe9;" horiz-adv-x="520" 
d="M47 247q0 126 68 200t176 74q80 0 132 -47.5t52 -129.5q0 -48 -14 -98h-313q3 -86 45 -136t116 -50q80 0 138 60l35 -35q-31 -42 -82.5 -70.5t-113.5 -28.5q-114 0 -176.5 73.5t-62.5 187.5zM148 302h230q3 20 3 46q0 120 -101 120q-117 0 -132 -166zM202 605l108 143
q23 29 39 29q21 0 34.5 -15.5t13.5 -35.5q0 -32 -35 -53l-136 -93z" />
    <glyph glyph-name="ecircumflex" unicode="&#xea;" horiz-adv-x="520" 
d="M47 247q0 126 68 200t176 74q80 0 132 -47.5t52 -129.5q0 -48 -14 -98h-313q3 -86 45 -136t116 -50q80 0 138 60l35 -35q-31 -42 -82.5 -70.5t-113.5 -28.5q-114 0 -176.5 73.5t-62.5 187.5zM148 302h230q3 20 3 46q0 120 -101 120q-117 0 -132 -166zM404 580l-123 100
l-127 -100l-26 25l114 152q18 22 39 22q20 0 41 -28l109 -145z" />
    <glyph glyph-name="edieresis" unicode="&#xeb;" horiz-adv-x="520" 
d="M47 247q0 126 68 200t176 74q80 0 132 -47.5t52 -129.5q0 -48 -14 -98h-313q3 -86 45 -136t116 -50q80 0 138 60l35 -35q-31 -42 -82.5 -70.5t-113.5 -28.5q-114 0 -176.5 73.5t-62.5 187.5zM148 302h230q3 20 3 46q0 120 -101 120q-117 0 -132 -166zM115 682q0 27 18 45
t45 18q28 0 46.5 -17.5t18.5 -44.5t-18.5 -45t-46.5 -18q-27 0 -45 17.5t-18 44.5zM313 682q0 27 18 45t46 18t46 -17.5t18 -44.5t-18 -45t-46 -18t-46 17.5t-18 44.5z" />
    <glyph glyph-name="igrave" unicode="&#xec;" horiz-adv-x="333" 
d="M221 505v-400q0 -23 6 -33t26 -14l56 -10v-48h-269v49l57 9q15 2 22 9.5t8 15.5t1 26v273q0 36 -6 48t-30 15l-48 7l7 50l158 8zM125 747l105 -142l-24 -25l-133 92q-35 24 -35 53q0 20 13.5 35.5t34.5 15.5q16 0 39 -29z" />
    <glyph glyph-name="iacute" unicode="&#xed;" horiz-adv-x="333" 
d="M221 505v-400q0 -23 6 -33t26 -14l56 -10v-48h-269v49l57 9q15 2 22 9.5t8 15.5t1 26v273q0 36 -6 48t-30 15l-48 7l7 50l158 8zM75 605l108 143q23 29 39 29q21 0 34.5 -15.5t13.5 -35.5q0 -32 -35 -53l-136 -93z" />
    <glyph glyph-name="icircumflex" unicode="&#xee;" horiz-adv-x="333" 
d="M221 505v-400q0 -23 6 -33t26 -14l56 -10v-48h-269v49l57 9q15 2 22 9.5t8 15.5t1 26v273q0 36 -6 48t-30 15l-48 7l7 50l158 8zM277 580l-123 100l-127 -100l-26 25l114 152q18 22 39 22q20 0 41 -28l109 -145z" />
    <glyph glyph-name="idieresis" unicode="&#xef;" horiz-adv-x="333" 
d="M221 505v-400q0 -23 6 -33t26 -14l56 -10v-48h-269v49l57 9q15 2 22 9.5t8 15.5t1 26v273q0 36 -6 48t-30 15l-48 7l7 50l158 8zM-12 682q0 27 18 45t45 18q28 0 46.5 -17.5t18.5 -44.5t-18.5 -45t-46.5 -18q-27 0 -45 17.5t-18 44.5zM186 682q0 27 18 45t46 18t46 -17.5
t18 -44.5t-18 -45t-46 -18t-46 17.5t-18 44.5z" />
    <glyph glyph-name="eth" unicode="&#xf0;" horiz-adv-x="579" 
d="M250 564l-25 45l80 58q-65 49 -164 59l9 45q133 -7 213 -57l97 75l25 -45l-78 -60q125 -109 125 -336q0 -172 -65 -267t-190 -95q-106 0 -168 68t-62 187q0 125 67.5 190t157.5 65q50 0 93 -22.5t68 -61.5q-14 143 -87 225zM288 434q-61 0 -99.5 -48t-38.5 -142
q0 -97 37 -147t106 -50q65 0 100 53.5t35 146.5q0 47 -12 87t-45 70t-83 30z" />
    <glyph glyph-name="ntilde" unicode="&#xf1;" horiz-adv-x="662" 
d="M55 47l48 9q18 3 22 13t4 35v282q0 35 -6 46.5t-28 15.5l-49 7l7 48l139 11l12 -7l7 -89h3q24 42 69.5 72.5t105.5 30.5q87 0 125.5 -47.5t38.5 -123.5v-254q0 -21 5.5 -29t25.5 -12l47 -8v-47h-245v46l44 8q19 4 24.5 12t5.5 30v225q0 31 -3 50.5t-12.5 39t-30.5 29
t-54 9.5q-57 0 -97.5 -35t-40.5 -104v-210q0 -22 4.5 -31t20.5 -12l53 -11v-46h-245v47zM413 620q-34 0 -90 24q-60 25 -70 25q-13 0 -22.5 -7t-24.5 -30l-31 19q26 55 45 73t48 18q28 0 86 -24t74 -24q10 0 17.5 5t11.5 10.5t15 21.5l31 -19q-25 -52 -43.5 -72t-46.5 -20z
" />
    <glyph glyph-name="ograve" unicode="&#xf2;" horiz-adv-x="587" 
d="M47 242q0 141 74 210t183 69q104 0 170.5 -66t66.5 -188q0 -133 -70 -207t-181 -74q-115 0 -179 71t-64 185zM148 272q0 -103 41 -163.5t115 -60.5q64 0 99.5 50t35.5 145q0 103 -41 161t-110 58q-65 0 -102.5 -47t-37.5 -143zM268 747l105 -142l-24 -25l-133 92
q-35 24 -35 53q0 20 13.5 35.5t34.5 15.5q16 0 39 -29z" />
    <glyph glyph-name="oacute" unicode="&#xf3;" horiz-adv-x="587" 
d="M47 242q0 141 74 210t183 69q104 0 170.5 -66t66.5 -188q0 -133 -70 -207t-181 -74q-115 0 -179 71t-64 185zM148 272q0 -103 41 -163.5t115 -60.5q64 0 99.5 50t35.5 145q0 103 -41 161t-110 58q-65 0 -102.5 -47t-37.5 -143zM218 605l108 143q23 29 39 29
q21 0 34.5 -15.5t13.5 -35.5q0 -32 -35 -53l-136 -93z" />
    <glyph glyph-name="ocircumflex" unicode="&#xf4;" horiz-adv-x="587" 
d="M47 242q0 141 74 210t183 69q104 0 170.5 -66t66.5 -188q0 -133 -70 -207t-181 -74q-115 0 -179 71t-64 185zM148 272q0 -103 41 -163.5t115 -60.5q64 0 99.5 50t35.5 145q0 103 -41 161t-110 58q-65 0 -102.5 -47t-37.5 -143zM420 580l-123 100l-127 -100l-26 25
l114 152q18 22 39 22q20 0 41 -28l109 -145z" />
    <glyph glyph-name="otilde" unicode="&#xf5;" horiz-adv-x="587" 
d="M47 242q0 141 74 210t183 69q104 0 170.5 -66t66.5 -188q0 -133 -70 -207t-181 -74q-115 0 -179 71t-64 185zM148 272q0 -103 41 -163.5t115 -60.5q64 0 99.5 50t35.5 145q0 103 -41 161t-110 58q-65 0 -102.5 -47t-37.5 -143zM369 620q-34 0 -90 24q-60 25 -70 25
q-13 0 -22.5 -7t-24.5 -30l-31 19q26 55 45 73t48 18q28 0 86 -24t74 -24q10 0 17.5 5t11.5 10.5t15 21.5l31 -19q-25 -52 -43.5 -72t-46.5 -20z" />
    <glyph glyph-name="odieresis" unicode="&#xf6;" horiz-adv-x="587" 
d="M47 242q0 141 74 210t183 69q104 0 170.5 -66t66.5 -188q0 -133 -70 -207t-181 -74q-115 0 -179 71t-64 185zM148 272q0 -103 41 -163.5t115 -60.5q64 0 99.5 50t35.5 145q0 103 -41 161t-110 58q-65 0 -102.5 -47t-37.5 -143zM131 682q0 27 18 45t45 18q28 0 46.5 -17.5
t18.5 -44.5t-18.5 -45t-46.5 -18q-27 0 -45 17.5t-18 44.5zM329 682q0 27 18 45t46 18t46 -17.5t18 -44.5t-18 -45t-46 -18t-46 17.5t-18 44.5z" />
    <glyph glyph-name="divide" unicode="&#xf7;" horiz-adv-x="582" 
d="M505 275h-428v63h428v-63zM225 459q0 26 19 44t46 18t46.5 -17.5t19.5 -43.5t-19.5 -44t-46.5 -18t-46 17.5t-19 43.5zM225 149q0 26 19 44t46 18t46.5 -17.5t19.5 -43.5t-19.5 -44t-46.5 -18t-46 17.5t-19 43.5z" />
    <glyph glyph-name="oslash" unicode="&#xf8;" horiz-adv-x="587" 
d="M84 -14h-79l489 535h79zM47 242q0 141 74 210t183 69q104 0 170.5 -66t66.5 -188q0 -133 -70 -207t-181 -74q-115 0 -179 71t-64 185zM148 272q0 -103 41 -163.5t115 -60.5q64 0 99.5 50t35.5 145q0 103 -41 161t-110 58q-65 0 -102.5 -47t-37.5 -143z" />
    <glyph glyph-name="ugrave" unicode="&#xf9;" horiz-adv-x="634" 
d="M435 75h-3q-35 -42 -73.5 -65.5t-93.5 -23.5q-160 0 -160 171v229q0 35 -6 46.5t-28 15.5l-44 7l8 48l151 11l12 -7v-321q0 -33 2.5 -51t11 -38.5t29 -29.5t53.5 -9q57 0 96 34.5t39 104.5v189q0 35 -6 46.5t-28 15.5l-45 7l8 48l152 11l12 -7v-406q0 -24 6 -32.5
t26 -12.5l50 -9v-47l-155 -6zM270 747l105 -142l-24 -25l-133 92q-35 24 -35 53q0 20 13.5 35.5t34.5 15.5q16 0 39 -29z" />
    <glyph glyph-name="uacute" unicode="&#xfa;" horiz-adv-x="634" 
d="M435 75h-3q-35 -42 -73.5 -65.5t-93.5 -23.5q-160 0 -160 171v229q0 35 -6 46.5t-28 15.5l-44 7l8 48l151 11l12 -7v-321q0 -33 2.5 -51t11 -38.5t29 -29.5t53.5 -9q57 0 96 34.5t39 104.5v189q0 35 -6 46.5t-28 15.5l-45 7l8 48l152 11l12 -7v-406q0 -24 6 -32.5
t26 -12.5l50 -9v-47l-155 -6zM233 605l108 143q23 29 39 29q21 0 34.5 -15.5t13.5 -35.5q0 -32 -35 -53l-136 -93z" />
    <glyph glyph-name="ucircumflex" unicode="&#xfb;" horiz-adv-x="634" 
d="M435 75h-3q-35 -42 -73.5 -65.5t-93.5 -23.5q-160 0 -160 171v229q0 35 -6 46.5t-28 15.5l-44 7l8 48l151 11l12 -7v-321q0 -33 2.5 -51t11 -38.5t29 -29.5t53.5 -9q57 0 96 34.5t39 104.5v189q0 35 -6 46.5t-28 15.5l-45 7l8 48l152 11l12 -7v-406q0 -24 6 -32.5
t26 -12.5l50 -9v-47l-155 -6zM435 580l-123 100l-127 -100l-26 25l114 152q18 22 39 22q20 0 41 -28l109 -145z" />
    <glyph glyph-name="udieresis" unicode="&#xfc;" horiz-adv-x="634" 
d="M435 75h-3q-35 -42 -73.5 -65.5t-93.5 -23.5q-160 0 -160 171v229q0 35 -6 46.5t-28 15.5l-44 7l8 48l151 11l12 -7v-321q0 -33 2.5 -51t11 -38.5t29 -29.5t53.5 -9q57 0 96 34.5t39 104.5v189q0 35 -6 46.5t-28 15.5l-45 7l8 48l152 11l12 -7v-406q0 -24 6 -32.5
t26 -12.5l50 -9v-47l-155 -6zM146 682q0 27 18 45t45 18q28 0 46.5 -17.5t18.5 -44.5t-18.5 -45t-46.5 -18q-27 0 -45 17.5t-18 44.5zM344 682q0 27 18 45t46 18t46 -17.5t18 -44.5t-18 -45t-46 -18t-46 17.5t-18 44.5z" />
    <glyph glyph-name="yacute" unicode="&#xfd;" horiz-adv-x="576" 
d="M195 404l111 -280h5l111 273q9 26 4 37.5t-27 16.5l-44 10l10 46h209v-47l-37 -8q-18 -4 -25.5 -13.5t-21.5 -40.5l-193 -452q-16 -36 -25 -54.5t-26 -45.5t-34 -40.5t-42.5 -24t-56.5 -10.5q-52 0 -77.5 23t-25.5 57q0 30 19 48.5t46 18.5q49 0 53 -36q1 -11 -4 -57
q32 -1 54 26t55 99l25 57l-165 392q-2 5 -6.5 14.5t-6 12.5t-5 8.5t-6.5 7l-8 4t-12 4.5l-35 8l10 49h238v-46l-48 -7q-20 -3 -24.5 -13.5t5.5 -36.5zM232 605l108 143q23 29 39 29q21 0 34.5 -15.5t13.5 -35.5q0 -32 -35 -53l-136 -93z" />
    <glyph glyph-name="thorn" unicode="&#xfe;" horiz-adv-x="615" 
d="M111 -116v760q0 34 -7 45t-36 15l-44 7l6 50l163 5l11 -11v-328q20 29 38 47t53 32.5t80 14.5q90 0 141.5 -65t51.5 -183q0 -138 -61.5 -211t-170.5 -73q-81 0 -132 33v-135q0 -24 7 -35t25 -14l61 -10v-47h-263v48l48 8q29 5 29 47zM345 450q-59 0 -100 -35t-41 -112
v-205q22 -20 57.5 -31.5t68.5 -11.5q69 0 103.5 55t34.5 149q0 191 -123 191z" />
    <glyph glyph-name="ydieresis" unicode="&#xff;" horiz-adv-x="576" 
d="M195 404l111 -280h5l111 273q9 26 4 37.5t-27 16.5l-44 10l10 46h209v-47l-37 -8q-18 -4 -25.5 -13.5t-21.5 -40.5l-193 -452q-16 -36 -25 -54.5t-26 -45.5t-34 -40.5t-42.5 -24t-56.5 -10.5q-52 0 -77.5 23t-25.5 57q0 30 19 48.5t46 18.5q49 0 53 -36q1 -11 -4 -57
q32 -1 54 26t55 99l25 57l-165 392q-2 5 -6.5 14.5t-6 12.5t-5 8.5t-6.5 7l-8 4t-12 4.5l-35 8l10 49h238v-46l-48 -7q-20 -3 -24.5 -13.5t5.5 -36.5zM145 682q0 27 18 45t45 18q28 0 46.5 -17.5t18.5 -44.5t-18.5 -45t-46.5 -18q-27 0 -45 17.5t-18 44.5zM343 682
q0 27 18 45t46 18t46 -17.5t18 -44.5t-18 -45t-46 -18t-46 17.5t-18 44.5z" />
    <glyph glyph-name="Amacron" unicode="&#x100;" horiz-adv-x="735" 
d="M530 105l-43 126h-268l-42 -122q-9 -26 -4 -37.5t27 -16.5l57 -8v-47h-242v48l48 8q18 4 26 14t20 40l211 590h106l209 -591q11 -29 17.5 -37.5t26.5 -13.5l41 -8v-50h-267v48l58 7q20 3 24.5 13.5t-5.5 36.5zM353 617l-114 -329h229l-111 329h-4zM231 795v73h284v-73
h-284z" />
    <glyph glyph-name="amacron" unicode="&#x101;" horiz-adv-x="539" 
d="M432 100q0 -62 92 -36l10 -38q-42 -40 -92 -40q-86 0 -95 89q-56 -89 -155 -89q-56 0 -98 33t-42 102q0 64 40.5 102t114.5 49q54 8 132 12v68q0 64 -27.5 91t-80.5 27q-30 0 -55.5 -9t-36.5 -21q26 -44 26 -56q0 -18 -15 -31.5t-39 -13.5q-57 0 -57 52q0 53 58 91.5
t133 38.5q87 0 137 -40t50 -140v-241zM339 161v71q-43 0 -97 -9q-50 -7 -71.5 -32.5t-21.5 -58.5q0 -39 23 -58t58 -19q39 0 74 25.5t35 80.5zM108 635v73h280v-73h-280z" />
    <glyph glyph-name="Abreve" unicode="&#x102;" horiz-adv-x="735" 
d="M530 105l-43 126h-268l-42 -122q-9 -26 -4 -37.5t27 -16.5l57 -8v-47h-242v48l48 8q18 4 26 14t20 40l211 590h106l209 -591q11 -29 17.5 -37.5t26.5 -13.5l41 -8v-50h-267v48l58 7q20 3 24.5 13.5t-5.5 36.5zM353 617l-114 -329h229l-111 329h-4zM214 916l40 12
q14 -50 43 -73t78 -23q95 0 120 95l38 -10q-6 -66 -48.5 -115.5t-114.5 -49.5q-71 0 -110 46.5t-46 117.5z" />
    <glyph glyph-name="abreve" unicode="&#x103;" horiz-adv-x="539" 
d="M432 100q0 -62 92 -36l10 -38q-42 -40 -92 -40q-86 0 -95 89q-56 -89 -155 -89q-56 0 -98 33t-42 102q0 64 40.5 102t114.5 49q54 8 132 12v68q0 64 -27.5 91t-80.5 27q-30 0 -55.5 -9t-36.5 -21q26 -44 26 -56q0 -18 -15 -31.5t-39 -13.5q-57 0 -57 52q0 53 58 91.5
t133 38.5q87 0 137 -40t50 -140v-241zM339 161v71q-43 0 -97 -9q-50 -7 -71.5 -32.5t-21.5 -58.5q0 -39 23 -58t58 -19q39 0 74 25.5t35 80.5zM99 756l40 12q29 -101 111 -101q84 0 110 100l38 -10q-6 -67 -46 -118.5t-107 -51.5q-66 0 -102 48.5t-44 120.5z" />
    <glyph glyph-name="Aogonek" unicode="&#x104;" horiz-adv-x="735" 
d="M530 105l-43 126h-268l-42 -122q-9 -26 -4 -37.5t27 -16.5l57 -8v-47h-242v48l48 8q18 4 26 14t20 40l211 590h106l209 -591q11 -29 17.5 -37.5t26.5 -13.5l41 -8v-50h-267v48l58 7q20 3 24.5 13.5t-5.5 36.5zM353 617l-114 -329h229l-111 329h-4zM588 9l49 -4
q-87 -72 -87 -128q0 -41 41 -41q20 0 49 9l11 -35q-47 -39 -95 -39q-42 0 -67 23t-25 58q0 28 11 52t33 44.5t38 32.5t42 28z" />
    <glyph glyph-name="aogonek" unicode="&#x105;" horiz-adv-x="539" 
d="M464 9l67 17q-108 -89 -108 -149q0 -41 41 -41q20 0 49 9l11 -35q-47 -39 -95 -39q-42 0 -67 23t-25 58q0 28 11.5 52t34.5 45t38 32t43 28zM432 100q0 -62 92 -36l10 -38q-42 -40 -92 -40q-86 0 -95 89q-56 -89 -155 -89q-56 0 -98 33t-42 102q0 64 40.5 102t114.5 49
q54 8 132 12v68q0 64 -27.5 91t-80.5 27q-30 0 -55.5 -9t-36.5 -21q26 -44 26 -56q0 -18 -15 -31.5t-39 -13.5q-57 0 -57 52q0 53 58 91.5t133 38.5q87 0 137 -40t50 -140v-241zM339 161v71q-43 0 -97 -9q-50 -7 -71.5 -32.5t-21.5 -58.5q0 -39 23 -58t58 -19q39 0 74 25.5
t35 80.5z" />
    <glyph glyph-name="Cacute" unicode="&#x106;" horiz-adv-x="708" 
d="M377 714q105 0 166 -61l10 63h49l39 -233l-54 -12q-30 94 -79 137t-129 43q-106 0 -159.5 -77.5t-53.5 -221.5q0 -127 63.5 -212t174.5 -85q68 0 116 28t87 84l47 -34q-36 -61 -102.5 -104t-157.5 -43q-83 0 -148.5 30t-105.5 81.5t-60.5 116t-20.5 137.5q0 167 89 265
t229 98zM281 780l131 119q26 23 39 23q18 0 30.5 -15t12.5 -33q0 -38 -42 -56l-151 -66z" />
    <glyph glyph-name="cacute" unicode="&#x107;" 
d="M291 521q76 0 127.5 -37t51.5 -94q0 -28 -16.5 -46.5t-49.5 -18.5q-59 0 -59 48q0 21 28 68q-38 24 -90 24q-59 0 -97 -54.5t-38 -142.5q0 -96 43.5 -150.5t116.5 -54.5q77 0 129 52l34 -35q-30 -41 -79.5 -67.5t-108.5 -26.5q-114 0 -175 73t-61 188q0 126 68 200
t176 74zM207 605l108 143q23 29 39 29q21 0 34.5 -15.5t13.5 -35.5q0 -32 -35 -53l-136 -93z" />
    <glyph glyph-name="Ccircumflex" unicode="&#x108;" horiz-adv-x="708" 
d="M377 714q105 0 166 -61l10 63h49l39 -233l-54 -12q-30 94 -79 137t-129 43q-106 0 -159.5 -77.5t-53.5 -221.5q0 -127 63.5 -212t174.5 -85q68 0 116 28t87 84l47 -34q-36 -61 -102.5 -104t-157.5 -43q-83 0 -148.5 30t-105.5 81.5t-60.5 116t-20.5 137.5q0 167 89 265
t229 98zM514 750l-137 84l-140 -84l-24 25l125 137q20 22 39 22q14 0 41 -28l121 -130z" />
    <glyph glyph-name="ccircumflex" unicode="&#x109;" 
d="M291 521q76 0 127.5 -37t51.5 -94q0 -28 -16.5 -46.5t-49.5 -18.5q-59 0 -59 48q0 21 28 68q-38 24 -90 24q-59 0 -97 -54.5t-38 -142.5q0 -96 43.5 -150.5t116.5 -54.5q77 0 129 52l34 -35q-30 -41 -79.5 -67.5t-108.5 -26.5q-114 0 -175 73t-61 188q0 126 68 200
t176 74zM409 580l-123 100l-127 -100l-26 25l114 152q18 22 39 22q20 0 41 -28l109 -145z" />
    <glyph glyph-name="Cdotaccent" unicode="&#x10a;" horiz-adv-x="708" 
d="M377 714q105 0 166 -61l10 63h49l39 -233l-54 -12q-30 94 -79 137t-129 43q-106 0 -159.5 -77.5t-53.5 -221.5q0 -127 63.5 -212t174.5 -85q68 0 116 28t87 84l47 -34q-36 -61 -102.5 -104t-157.5 -43q-83 0 -148.5 30t-105.5 81.5t-60.5 116t-20.5 137.5q0 167 89 265
t229 98zM308 833q0 29 19 48t48 19q30 0 49 -18.5t19 -47.5t-19 -48t-49 -19q-29 0 -48 18.5t-19 47.5z" />
    <glyph glyph-name="cdotaccent" unicode="&#x10b;" 
d="M291 521q76 0 127.5 -37t51.5 -94q0 -28 -16.5 -46.5t-49.5 -18.5q-59 0 -59 48q0 21 28 68q-38 24 -90 24q-59 0 -97 -54.5t-38 -142.5q0 -96 43.5 -150.5t116.5 -54.5q77 0 129 52l34 -35q-30 -41 -79.5 -67.5t-108.5 -26.5q-114 0 -175 73t-61 188q0 126 68 200
t176 74zM216 686q0 29 19 48t48 19q30 0 49 -18.5t19 -47.5t-19 -48t-49 -19q-29 0 -48 18.5t-19 47.5z" />
    <glyph glyph-name="Ccaron" unicode="&#x10c;" horiz-adv-x="708" 
d="M377 714q105 0 166 -61l10 63h49l39 -233l-54 -12q-30 94 -79 137t-129 43q-106 0 -159.5 -77.5t-53.5 -221.5q0 -127 63.5 -212t174.5 -85q68 0 116 28t87 84l47 -34q-36 -61 -102.5 -104t-157.5 -43q-83 0 -148.5 30t-105.5 81.5t-60.5 116t-20.5 137.5q0 167 89 265
t229 98zM238 936l137 -84l140 84l24 -25l-125 -137q-20 -22 -39 -22q-14 0 -41 28l-121 130z" />
    <glyph glyph-name="ccaron" unicode="&#x10d;" 
d="M291 521q76 0 127.5 -37t51.5 -94q0 -28 -16.5 -46.5t-49.5 -18.5q-59 0 -59 48q0 21 28 68q-38 24 -90 24q-59 0 -97 -54.5t-38 -142.5q0 -96 43.5 -150.5t116.5 -54.5q77 0 129 52l34 -35q-30 -41 -79.5 -67.5t-108.5 -26.5q-114 0 -175 73t-61 188q0 126 68 200
t176 74zM159 779l123 -100l127 100l26 -25l-114 -152q-18 -22 -39 -22q-20 0 -41 28l-109 145z" />
    <glyph glyph-name="Dcaron" unicode="&#x10e;" horiz-adv-x="775" 
d="M62 0v48l58 9q20 3 25.5 14.5t5.5 36.5v488q0 25 -6 34t-27 13l-56 9v48h287q170 0 268 -81t98 -247q0 -172 -103 -272t-291 -100h-259zM341 646h-91v-586q28 -5 72 -5q147 0 216.5 75.5t69.5 233.5q0 138 -68 210t-199 72zM219 936l137 -84l140 84l24 -25l-125 -137
q-20 -22 -39 -22q-14 0 -41 28l-121 130z" />
    <glyph glyph-name="dcaron" unicode="&#x10f;" horiz-adv-x="678" 
d="M507 755v-657q0 -24 6 -32.5t27 -12.5l49 -9v-47l-154 -6l-14 79h-3q-66 -84 -166 -84q-98 0 -151.5 67t-53.5 185q0 130 65.5 206.5t178.5 76.5q72 0 123 -33v156q0 34 -7 45t-36 15l-44 7l6 50l163 5zM281 58q53 0 93 38.5t40 115.5v201q-52 41 -125 41
q-143 0 -143 -206q0 -86 32.5 -138t102.5 -52zM580 685q-20 21 -20 38q0 23 15.5 34t36.5 11q31 0 46 -20t15 -48q0 -37 -24.5 -81t-67.5 -78l-26 28q41 54 41 82q0 17 -16 34z" />
    <glyph glyph-name="Dcroat" unicode="&#x110;" horiz-adv-x="775" 
d="M441 330h-400l8 63h392v-63zM62 0v48l58 9q20 3 25.5 14.5t5.5 36.5v488q0 25 -6 34t-27 13l-56 9v48h287q170 0 268 -81t98 -247q0 -172 -103 -272t-291 -100h-259zM341 646h-91v-586q28 -5 72 -5q147 0 216.5 75.5t69.5 233.5q0 138 -68 210t-199 72z" />
    <glyph glyph-name="dcroat" unicode="&#x111;" horiz-adv-x="614" 
d="M603 579h-336l8 57h328v-57zM507 755v-657q0 -24 6 -32.5t27 -12.5l49 -9v-47l-154 -6l-14 79h-3q-66 -84 -166 -84q-98 0 -151.5 67t-53.5 185q0 130 65.5 206.5t178.5 76.5q72 0 123 -33v156q0 34 -7 45t-36 15l-44 7l6 50l163 5zM281 58q53 0 93 38.5t40 115.5v201
q-52 41 -125 41q-143 0 -143 -206q0 -86 32.5 -138t102.5 -52z" />
    <glyph glyph-name="Emacron" unicode="&#x112;" horiz-adv-x="637" 
d="M337 325h-87v-271h129q72 0 100.5 24.5t49.5 105.5h55l-24 -184h-498v48l58 9q20 3 25.5 14.5t5.5 36.5v488q0 25 -6 34t-27 13l-56 9v48h463l37 -163l-52 -17q-30 79 -60 102.5t-103 23.5h-97v-259h87h24.5t19 2t14 2t10 6t7 6.5t5 11l4.5 13.5t4.5 19t4.5 22l46 6v-227
l-46 -8q-9 60 -21.5 72.5t-71.5 12.5zM183 795v73h284v-73h-284z" />
    <glyph glyph-name="emacron" unicode="&#x113;" horiz-adv-x="520" 
d="M47 247q0 126 68 200t176 74q80 0 132 -47.5t52 -129.5q0 -48 -14 -98h-313q3 -86 45 -136t116 -50q80 0 138 60l35 -35q-31 -42 -82.5 -70.5t-113.5 -28.5q-114 0 -176.5 73.5t-62.5 187.5zM148 302h230q3 20 3 46q0 120 -101 120q-117 0 -132 -166zM139 635v73h280v-73
h-280z" />
    <glyph glyph-name="Ebreve" unicode="&#x114;" horiz-adv-x="637" 
d="M337 325h-87v-271h129q72 0 100.5 24.5t49.5 105.5h55l-24 -184h-498v48l58 9q20 3 25.5 14.5t5.5 36.5v488q0 25 -6 34t-27 13l-56 9v48h463l37 -163l-52 -17q-30 79 -60 102.5t-103 23.5h-97v-259h87h24.5t19 2t14 2t10 6t7 6.5t5 11l4.5 13.5t4.5 19t4.5 22l46 6v-227
l-46 -8q-9 60 -21.5 72.5t-71.5 12.5zM166 916l40 12q14 -50 43 -73t78 -23q95 0 120 95l38 -10q-6 -66 -48.5 -115.5t-114.5 -49.5q-71 0 -110 46.5t-46 117.5z" />
    <glyph glyph-name="ebreve" unicode="&#x115;" horiz-adv-x="520" 
d="M47 247q0 126 68 200t176 74q80 0 132 -47.5t52 -129.5q0 -48 -14 -98h-313q3 -86 45 -136t116 -50q80 0 138 60l35 -35q-31 -42 -82.5 -70.5t-113.5 -28.5q-114 0 -176.5 73.5t-62.5 187.5zM148 302h230q3 20 3 46q0 120 -101 120q-117 0 -132 -166zM130 756l40 12
q29 -101 111 -101q84 0 110 100l38 -10q-6 -67 -46 -118.5t-107 -51.5q-66 0 -102 48.5t-44 120.5z" />
    <glyph glyph-name="Edotaccent" unicode="&#x116;" horiz-adv-x="637" 
d="M337 325h-87v-271h129q72 0 100.5 24.5t49.5 105.5h55l-24 -184h-498v48l58 9q20 3 25.5 14.5t5.5 36.5v488q0 25 -6 34t-27 13l-56 9v48h463l37 -163l-52 -17q-30 79 -60 102.5t-103 23.5h-97v-259h87h24.5t19 2t14 2t10 6t7 6.5t5 11l4.5 13.5t4.5 19t4.5 22l46 6v-227
l-46 -8q-9 60 -21.5 72.5t-71.5 12.5zM257 833q0 29 19 48t48 19q30 0 49 -18.5t19 -47.5t-19 -48t-49 -19q-29 0 -48 18.5t-19 47.5z" />
    <glyph glyph-name="edotaccent" unicode="&#x117;" horiz-adv-x="520" 
d="M47 247q0 126 68 200t176 74q80 0 132 -47.5t52 -129.5q0 -48 -14 -98h-313q3 -86 45 -136t116 -50q80 0 138 60l35 -35q-31 -42 -82.5 -70.5t-113.5 -28.5q-114 0 -176.5 73.5t-62.5 187.5zM148 302h230q3 20 3 46q0 120 -101 120q-117 0 -132 -166zM211 686q0 29 19 48
t48 19q30 0 49 -18.5t19 -47.5t-19 -48t-49 -19q-29 0 -48 18.5t-19 47.5z" />
    <glyph glyph-name="Eogonek" unicode="&#x118;" horiz-adv-x="637" 
d="M495 4l65 -4q-40 -13 -74 -49.5t-34 -73.5q0 -41 41 -41q20 0 49 9l11 -35q-47 -39 -95 -39q-42 0 -67 23t-25 58q0 53 38.5 91.5t90.5 60.5zM337 325h-87v-271h129q72 0 100.5 24.5t49.5 105.5h55l-24 -184h-498v48l58 9q20 3 25.5 14.5t5.5 36.5v488q0 25 -6 34t-27 13
l-56 9v48h463l37 -163l-52 -17q-30 79 -60 102.5t-103 23.5h-97v-259h87h24.5t19 2t14 2t10 6t7 6.5t5 11l4.5 13.5t4.5 19t4.5 22l46 6v-227l-46 -8q-9 60 -21.5 72.5t-71.5 12.5z" />
    <glyph glyph-name="eogonek" unicode="&#x119;" horiz-adv-x="520" 
d="M423 32l-50 1q-30 -19 -47 -31t-46 -37t-44 -53.5t-15 -59.5q0 -35 25 -58t67 -23q48 0 95 39l-11 35q-29 -9 -49 -9q-41 0 -41 41q0 74 116 155zM47 247q0 126 68 200t176 74q80 0 132 -47.5t52 -129.5q0 -48 -14 -98h-313q3 -86 45 -136t116 -50q80 0 138 60l35 -35
q-31 -42 -82.5 -70.5t-113.5 -28.5q-114 0 -176.5 73.5t-62.5 187.5zM148 302h230q3 20 3 46q0 120 -101 120q-117 0 -132 -166z" />
    <glyph glyph-name="Ecaron" unicode="&#x11a;" horiz-adv-x="637" 
d="M337 325h-87v-271h129q72 0 100.5 24.5t49.5 105.5h55l-24 -184h-498v48l58 9q20 3 25.5 14.5t5.5 36.5v488q0 25 -6 34t-27 13l-56 9v48h463l37 -163l-52 -17q-30 79 -60 102.5t-103 23.5h-97v-259h87h24.5t19 2t14 2t10 6t7 6.5t5 11l4.5 13.5t4.5 19t4.5 22l46 6v-227
l-46 -8q-9 60 -21.5 72.5t-71.5 12.5zM187 936l137 -84l140 84l24 -25l-125 -137q-20 -22 -39 -22q-14 0 -41 28l-121 130z" />
    <glyph glyph-name="ecaron" unicode="&#x11b;" horiz-adv-x="520" 
d="M47 247q0 126 68 200t176 74q80 0 132 -47.5t52 -129.5q0 -48 -14 -98h-313q3 -86 45 -136t116 -50q80 0 138 60l35 -35q-31 -42 -82.5 -70.5t-113.5 -28.5q-114 0 -176.5 73.5t-62.5 187.5zM148 302h230q3 20 3 46q0 120 -101 120q-117 0 -132 -166zM154 779l123 -100
l127 100l26 -25l-114 -152q-18 -22 -39 -22q-20 0 -41 28l-109 145z" />
    <glyph glyph-name="Gcircumflex" unicode="&#x11c;" horiz-adv-x="760" 
d="M377 714q108 0 169 -61l10 63h49l46 -233l-55 -12q-30 93 -81 136.5t-132 43.5q-108 0 -162.5 -79t-54.5 -223q0 -126 58 -211.5t163 -85.5q111 0 162 68v110q0 25 -6 34t-27 13l-60 9v48h271v-48l-53 -9q-19 -3 -24.5 -14.5t-5.5 -36.5v-229h-43l-26 47
q-80 -58 -195 -58q-81 0 -144.5 30t-101 81t-56.5 113t-19 130q0 174 89 274t229 100zM514 750l-137 84l-140 -84l-24 25l125 137q20 22 39 22q14 0 41 -28l121 -130z" />
    <glyph glyph-name="gcircumflex" unicode="&#x11d;" horiz-adv-x="558" 
d="M459 348q0 -81 -56 -127.5t-146 -46.5q-48 0 -81 10q-32 -36 -32 -60q0 -23 17 -32t53 -9h128q83 0 130 -27t47 -102q0 -93 -73 -138t-192 -45q-229 0 -229 123q0 72 91 114v4q-29 9 -43.5 32t-14.5 45q0 29 14.5 52.5t50.5 61.5v3q-74 38 -74 137q0 82 57 130t150 48
q76 0 130 -33q33 94 104 94q27 0 47 -14t20 -39q0 -22 -17.5 -39t-39.5 -17q-26 0 -40 27l-10 21q-18 -27 -29 -63q38 -45 38 -110zM364 345q0 59 -30 92t-85 33q-105 0 -105 -122q0 -57 31 -89t80 -32q53 0 81 31t28 87zM424 -70q0 62 -93 62h-168q-46 -35 -46 -83
q0 -41 34 -58t111 -17q78 0 120 26t42 70zM389 580l-123 100l-127 -100l-26 25l114 152q18 22 39 22q20 0 41 -28l109 -145z" />
    <glyph glyph-name="Gbreve" unicode="&#x11e;" horiz-adv-x="760" 
d="M377 714q108 0 169 -61l10 63h49l46 -233l-55 -12q-30 93 -81 136.5t-132 43.5q-108 0 -162.5 -79t-54.5 -223q0 -126 58 -211.5t163 -85.5q111 0 162 68v110q0 25 -6 34t-27 13l-60 9v48h271v-48l-53 -9q-19 -3 -24.5 -14.5t-5.5 -36.5v-229h-43l-26 47
q-80 -58 -195 -58q-81 0 -144.5 30t-101 81t-56.5 113t-19 130q0 174 89 274t229 100zM217 926l40 12q14 -50 43 -73t78 -23q95 0 120 95l38 -10q-6 -66 -48.5 -115.5t-114.5 -49.5q-71 0 -110 46.5t-46 117.5z" />
    <glyph glyph-name="gbreve" unicode="&#x11f;" horiz-adv-x="558" 
d="M459 348q0 -81 -56 -127.5t-146 -46.5q-48 0 -81 10q-32 -36 -32 -60q0 -23 17 -32t53 -9h128q83 0 130 -27t47 -102q0 -93 -73 -138t-192 -45q-229 0 -229 123q0 72 91 114v4q-29 9 -43.5 32t-14.5 45q0 29 14.5 52.5t50.5 61.5v3q-74 38 -74 137q0 82 57 130t150 48
q76 0 130 -33q33 94 104 94q27 0 47 -14t20 -39q0 -22 -17.5 -39t-39.5 -17q-26 0 -40 27l-10 21q-18 -27 -29 -63q38 -45 38 -110zM364 345q0 59 -30 92t-85 33q-105 0 -105 -122q0 -57 31 -89t80 -32q53 0 81 31t28 87zM424 -70q0 62 -93 62h-168q-46 -35 -46 -83
q0 -41 34 -58t111 -17q78 0 120 26t42 70zM110 756l40 12q29 -101 111 -101q84 0 110 100l38 -10q-6 -67 -46 -118.5t-107 -51.5q-66 0 -102 48.5t-44 120.5z" />
    <glyph glyph-name="Gdotaccent" unicode="&#x120;" horiz-adv-x="760" 
d="M377 714q108 0 169 -61l10 63h49l46 -233l-55 -12q-30 93 -81 136.5t-132 43.5q-108 0 -162.5 -79t-54.5 -223q0 -126 58 -211.5t163 -85.5q111 0 162 68v110q0 25 -6 34t-27 13l-60 9v48h271v-48l-53 -9q-19 -3 -24.5 -14.5t-5.5 -36.5v-229h-43l-26 47
q-80 -58 -195 -58q-81 0 -144.5 30t-101 81t-56.5 113t-19 130q0 174 89 274t229 100zM308 833q0 29 19 48t48 19q30 0 49 -18.5t19 -47.5t-19 -48t-49 -19q-29 0 -48 18.5t-19 47.5z" />
    <glyph glyph-name="gdotaccent" unicode="&#x121;" horiz-adv-x="558" 
d="M459 348q0 -81 -56 -127.5t-146 -46.5q-48 0 -81 10q-32 -36 -32 -60q0 -23 17 -32t53 -9h128q83 0 130 -27t47 -102q0 -93 -73 -138t-192 -45q-229 0 -229 123q0 72 91 114v4q-29 9 -43.5 32t-14.5 45q0 29 14.5 52.5t50.5 61.5v3q-74 38 -74 137q0 82 57 130t150 48
q76 0 130 -33q33 94 104 94q27 0 47 -14t20 -39q0 -22 -17.5 -39t-39.5 -17q-26 0 -40 27l-10 21q-18 -27 -29 -63q38 -45 38 -110zM364 345q0 59 -30 92t-85 33q-105 0 -105 -122q0 -57 31 -89t80 -32q53 0 81 31t28 87zM424 -70q0 62 -93 62h-168q-46 -35 -46 -83
q0 -41 34 -58t111 -17q78 0 120 26t42 70zM191 686q0 29 19 48t48 19q30 0 49 -18.5t19 -47.5t-19 -48t-49 -19q-29 0 -48 18.5t-19 47.5z" />
    <glyph glyph-name="uni0122" unicode="&#x122;" horiz-adv-x="760" 
d="M377 714q108 0 169 -61l10 63h49l46 -233l-55 -12q-30 93 -81 136.5t-132 43.5q-108 0 -162.5 -79t-54.5 -223q0 -126 58 -211.5t163 -85.5q111 0 162 68v110q0 25 -6 34t-27 13l-60 9v48h271v-48l-53 -9q-19 -3 -24.5 -14.5t-5.5 -36.5v-229h-43l-26 47
q-80 -58 -195 -58q-81 0 -144.5 30t-101 81t-56.5 113t-19 130q0 174 89 274t229 100zM308 -141q0 29 19 48t48 19q30 0 49 -18.5t19 -47.5t-19 -48t-49 -19q-29 0 -48 18.5t-19 47.5z" />
    <glyph glyph-name="uni0123" unicode="&#x123;" horiz-adv-x="558" 
d="M459 348q0 -81 -56 -127.5t-146 -46.5q-48 0 -81 10q-32 -36 -32 -60q0 -23 17 -32t53 -9h128q83 0 130 -27t47 -102q0 -93 -73 -138t-192 -45q-229 0 -229 123q0 72 91 114v4q-29 9 -43.5 32t-14.5 45q0 29 14.5 52.5t50.5 61.5v3q-74 38 -74 137q0 82 57 130t150 48
q76 0 130 -33q33 94 104 94q27 0 47 -14t20 -39q0 -22 -17.5 -39t-39.5 -17q-26 0 -40 27l-10 21q-18 -27 -29 -63q38 -45 38 -110zM364 345q0 59 -30 92t-85 33q-105 0 -105 -122q0 -57 31 -89t80 -32q53 0 81 31t28 87zM424 -70q0 62 -93 62h-168q-46 -35 -46 -83
q0 -41 34 -58t111 -17q78 0 120 26t42 70zM285 790l22 -29q-48 -41 -48 -83h8q51 0 51 -42q0 -25 -16 -41.5t-41 -16.5q-32 0 -49.5 21.5t-17.5 50.5q0 41 24 80t67 60z" />
    <glyph glyph-name="Hcircumflex" unicode="&#x124;" horiz-adv-x="840" 
d="M590 108v220h-340v-224q0 -25 5.5 -34t26.5 -13l56 -9v-48h-276v48l58 9q20 3 25.5 14.5t5.5 36.5v488q0 25 -6 34t-27 13l-56 9v48h276v-48l-58 -9q-19 -3 -24.5 -14.5t-5.5 -36.5v-201h340v205q0 25 -6 34t-27 13l-55 9v48h275v-48l-57 -9q-20 -3 -25.5 -14.5
t-5.5 -36.5v-488q0 -25 6 -34t27 -13l55 -9v-48h-275v48l57 9q20 3 25.5 14.5t5.5 36.5zM558 750l-137 84l-140 -84l-24 25l125 137q20 22 39 22q14 0 41 -28l121 -130z" />
    <glyph glyph-name="hcircumflex" unicode="&#x125;" horiz-adv-x="662" 
d="M222 755v-327q21 39 66 66t101 27q87 0 125.5 -47.5t38.5 -123.5v-254q0 -21 5.5 -29t25.5 -12l47 -8v-47h-245v46l44 8q19 4 24.5 12t5.5 30v225q0 31 -3 50.5t-12.5 39t-30.5 29t-54 9.5q-57 0 -97.5 -35t-40.5 -104v-210q0 -22 4.5 -31t20.5 -12l53 -11v-46h-245v47
l48 9q18 3 22 13t4 35v540q0 34 -7 45t-36 15l-44 7l6 50l163 5zM283 800l-137 84l-140 -84l-24 25l125 137q20 22 39 22q14 0 41 -28l121 -130z" />
    <glyph glyph-name="Hbar" unicode="&#x126;" horiz-adv-x="840" 
d="M788 492h-740l8 57h732v-57zM590 108v220h-340v-224q0 -25 5.5 -34t26.5 -13l56 -9v-48h-276v48l58 9q20 3 25.5 14.5t5.5 36.5v488q0 25 -6 34t-27 13l-56 9v48h276v-48l-58 -9q-19 -3 -24.5 -14.5t-5.5 -36.5v-201h340v205q0 25 -6 34t-27 13l-55 9v48h275v-48l-57 -9
q-20 -3 -25.5 -14.5t-5.5 -36.5v-488q0 -25 6 -34t27 -13l55 -9v-48h-275v48l57 9q20 3 25.5 14.5t5.5 36.5z" />
    <glyph glyph-name="hbar" unicode="&#x127;" horiz-adv-x="662" 
d="M365 579h-334l8 57h326v-57zM222 755v-327q21 39 66 66t101 27q87 0 125.5 -47.5t38.5 -123.5v-254q0 -21 5.5 -29t25.5 -12l47 -8v-47h-245v46l44 8q19 4 24.5 12t5.5 30v225q0 31 -3 50.5t-12.5 39t-30.5 29t-54 9.5q-57 0 -97.5 -35t-40.5 -104v-210q0 -22 4.5 -31
t20.5 -12l53 -11v-46h-245v47l48 9q18 3 22 13t4 35v540q0 34 -7 45t-36 15l-44 7l6 50l163 5z" />
    <glyph glyph-name="Itilde" unicode="&#x128;" horiz-adv-x="401" 
d="M151 108v488q0 25 -6 34t-27 13l-60 9v48h285v-48l-63 -9q-19 -3 -24.5 -14.5t-5.5 -36.5v-488q0 -25 5.5 -34t26.5 -13l61 -9v-48h-285v48l62 9q20 3 25.5 14.5t5.5 36.5zM277 777q-36 0 -92 24q-58 24 -73 24q-14 0 -23 -6.5t-24 -29.5l-31 19q26 56 45 75t48 19
q26 0 89 -26q58 -24 76 -24q10 0 17.5 5t11.5 10.5t15 21.5l31 -19q-25 -53 -44 -73t-46 -20z" />
    <glyph glyph-name="itilde" unicode="&#x129;" horiz-adv-x="333" 
d="M221 505v-400q0 -23 6 -33t26 -14l56 -10v-48h-269v49l57 9q15 2 22 9.5t8 15.5t1 26v273q0 36 -6 48t-30 15l-48 7l7 50l158 8zM226 620q-34 0 -90 24q-60 25 -70 25q-13 0 -22.5 -7t-24.5 -30l-31 19q26 55 45 73t48 18q28 0 86 -24t74 -24q10 0 17.5 5t11.5 10.5
t15 21.5l31 -19q-25 -52 -43.5 -72t-46.5 -20z" />
    <glyph glyph-name="Imacron" unicode="&#x12a;" horiz-adv-x="401" 
d="M151 108v488q0 25 -6 34t-27 13l-60 9v48h285v-48l-63 -9q-19 -3 -24.5 -14.5t-5.5 -36.5v-488q0 -25 5.5 -34t26.5 -13l61 -9v-48h-285v48l62 9q20 3 25.5 14.5t5.5 36.5zM58 795v73h284v-73h-284z" />
    <glyph glyph-name="imacron" unicode="&#x12b;" horiz-adv-x="333" 
d="M221 505v-400q0 -23 6 -33t26 -14l56 -10v-48h-269v49l57 9q15 2 22 9.5t8 15.5t1 26v273q0 36 -6 48t-30 15l-48 7l7 50l158 8zM12 635v73h280v-73h-280z" />
    <glyph glyph-name="Iogonek" unicode="&#x12e;" horiz-adv-x="401" 
d="M151 108v488q0 25 -6 34t-27 13l-60 9v48h285v-48l-63 -9q-19 -3 -24.5 -14.5t-5.5 -36.5v-488q0 -25 5.5 -34t26.5 -13l61 -9v-48h-285v48l62 9q20 3 25.5 14.5t5.5 36.5zM220 9l49 -4q-87 -72 -87 -128q0 -41 41 -41q20 0 49 9l11 -35q-47 -39 -95 -39q-42 0 -67 23
t-25 58q0 28 11 52t33 44.5t38 32.5t42 28z" />
    <glyph glyph-name="iogonek" unicode="&#x12f;" horiz-adv-x="333" 
d="M221 505v-400q0 -23 6 -33t26 -14l56 -10v-48h-269v49l57 9q15 2 22 9.5t8 15.5t1 26v273q0 36 -6 48t-30 15l-48 7l7 50l158 8zM93 686q0 29 19 48t48 19q30 0 49 -18.5t19 -47.5t-19 -48t-49 -19q-29 0 -48 18.5t-19 47.5zM200 9l49 -4q-87 -72 -87 -128q0 -41 41 -41
q20 0 49 9l11 -35q-47 -39 -95 -39q-42 0 -67 23t-25 58q0 28 11 52t33 44.5t38 32.5t42 28z" />
    <glyph glyph-name="Idotaccent" unicode="&#x130;" horiz-adv-x="401" 
d="M151 108v488q0 25 -6 34t-27 13l-60 9v48h285v-48l-63 -9q-19 -3 -24.5 -14.5t-5.5 -36.5v-488q0 -25 5.5 -34t26.5 -13l61 -9v-48h-285v48l62 9q20 3 25.5 14.5t5.5 36.5zM132 833q0 29 19 48t48 19q30 0 49 -18.5t19 -47.5t-19 -48t-49 -19q-29 0 -48 18.5t-19 47.5z
" />
    <glyph glyph-name="dotlessi" unicode="&#x131;" horiz-adv-x="333" 
d="M221 505v-400q0 -23 6 -33t26 -14l56 -10v-48h-269v49l57 9q15 2 22 9.5t8 15.5t1 26v273q0 36 -6 48t-30 15l-48 7l7 50l158 8z" />
    <glyph glyph-name="Jcircumflex" unicode="&#x134;" horiz-adv-x="575" 
d="M243 50q55 0 80 37.5t25 113.5v393q0 25 -6 34.5t-27 12.5l-70 10v49h295v-48l-63 -9q-19 -3 -24.5 -14t-5.5 -37v-368q0 -44 -9 -82t-30.5 -75t-65 -59t-105.5 -22q-74 0 -126.5 32.5t-52.5 89.5q0 34 20.5 58t54.5 24q31 0 47 -12.5t16 -32.5q0 -21 -30 -71
q27 -24 77 -24zM537 750l-137 84l-140 -84l-24 25l125 137q20 22 39 22q14 0 41 -28l121 -130z" />
    <glyph glyph-name="jcircumflex" unicode="&#x135;" horiz-adv-x="309" 
d="M214 505v-410q0 -136 -33 -206.5t-119 -117.5l-28 41q48 38 67.5 89t19.5 127v354q0 36 -6 48t-30 15l-48 7l8 50l157 8zM265 580l-123 100l-127 -100l-26 25l114 152q18 22 39 22q20 0 41 -28l109 -145z" />
    <glyph glyph-name="uni0136" unicode="&#x136;" horiz-adv-x="754" 
d="M155 108v488q0 25 -6 34t-27 13l-60 9v48h285v-48l-63 -9q-19 -3 -24.5 -14t-5.5 -37v-242l243 243q17 18 12 32.5t-25 17.5l-48 8l10 49h237v-50l-38 -8q-18 -4 -31 -13t-37 -33l-194 -195l175 -265q34 -51 58 -67t64 -16q18 0 45 9l10 -36q-38 -40 -103 -40
q-54 0 -90.5 22.5t-70.5 76.5l-157 251l-60 -61v-171q0 -25 5.5 -34t26.5 -13l61 -9v-48h-285v48l62 9q20 3 25.5 14.5t5.5 36.5zM327 -239l24 -29q43 21 67 60t24 80q0 30 -16.5 51t-50.5 21q-28 0 -44.5 -15.5t-16.5 -40.5q0 -46 51 -46h10q0 -40 -48 -81z" />
    <glyph glyph-name="uni0137" unicode="&#x137;" horiz-adv-x="610" 
d="M131 108v536q0 34 -7 45t-36 15l-44 7l5 50l164 5l11 -11v-651q0 -23 5 -33t22 -14l36 -8v-49h-244v48l57 9q15 2 22 9.5t8 15.5t1 26zM330 290l166 -189q12 -14 21 -21.5t23 -14.5t30.5 -6.5t37.5 8.5l10 -36q-42 -40 -90 -40q-44 0 -68.5 16t-59.5 58l-169 201v8
l159 143q14 13 13 24t-13 13l-45 7l9 46h224v-45l-29 -8q-38 -11 -70 -38zM268 -239l24 -29q43 21 67 60t24 80q0 30 -16.5 51t-50.5 21q-28 0 -44.5 -15.5t-16.5 -40.5q0 -46 51 -46h10q0 -40 -48 -81z" />
    <glyph glyph-name="kgreenlandic" unicode="&#x138;" horiz-adv-x="610" 
d="M131 108v283q0 34 -7 45t-36 15l-44 7l5 50l164 5l11 -11v-398q0 -23 5 -33t22 -14l36 -8v-49h-244v48l57 9q15 2 22 9.5t8 15.5t1 26zM330 290l166 -189q12 -14 21 -21.5t23 -14.5t30.5 -6.5t37.5 8.5l10 -36q-42 -40 -90 -40q-44 0 -68.5 16t-59.5 58l-169 201v8
l159 143q14 13 13 24t-13 13l-45 7l9 46h224v-45l-29 -8q-38 -11 -70 -38z" />
    <glyph glyph-name="Lacute" unicode="&#x139;" horiz-adv-x="637" 
d="M250 596v-541h113q71 0 100.5 32t58.5 127h55l-25 -214h-490v48l58 9q20 3 25.5 14.5t5.5 36.5v488q0 25 -6 34t-27 13l-56 9v48h286v-48l-66 -9q-21 -4 -26.5 -13t-5.5 -34zM106 780l131 119q26 23 39 23q18 0 30.5 -15t12.5 -33q0 -38 -42 -56l-151 -66z" />
    <glyph glyph-name="lacute" unicode="&#x13a;" horiz-adv-x="333" 
d="M128 109v534q0 34 -7 45t-36 15l-44 7l6 51l163 5l11 -11v-650q0 -23 6 -33t26 -14l56 -10v-48h-269v49l57 9q15 2 22 9.5t8 15.5t1 26zM49 830l131 119q26 23 39 23q18 0 30.5 -15t12.5 -33q0 -38 -42 -56l-151 -66z" />
    <glyph glyph-name="uni013B" unicode="&#x13b;" horiz-adv-x="637" 
d="M250 596v-541h113q71 0 100.5 32t58.5 127h55l-25 -214h-490v48l58 9q20 3 25.5 14.5t5.5 36.5v488q0 25 -6 34t-27 13l-56 9v48h286v-48l-66 -9q-21 -4 -26.5 -13t-5.5 -34zM275 -239l24 -29q43 21 67 60t24 80q0 30 -16.5 51t-50.5 21q-28 0 -44.5 -15.5t-16.5 -40.5
q0 -46 51 -46h10q0 -40 -48 -81z" />
    <glyph glyph-name="uni013C" unicode="&#x13c;" horiz-adv-x="333" 
d="M128 109v534q0 34 -7 45t-36 15l-44 7l6 51l163 5l11 -11v-650q0 -23 6 -33t26 -14l56 -10v-48h-269v49l57 9q15 2 22 9.5t8 15.5t1 26zM123 -239l24 -29q43 21 67 60t24 80q0 30 -16.5 51t-50.5 21q-28 0 -44.5 -15.5t-16.5 -40.5q0 -46 51 -46h10q0 -40 -48 -81z" />
    <glyph glyph-name="Lcaron" unicode="&#x13d;" horiz-adv-x="637" 
d="M250 596v-541h113q71 0 100.5 32t58.5 127h55l-25 -214h-490v48l58 9q20 3 25.5 14.5t5.5 36.5v488q0 25 -6 34t-27 13l-56 9v48h286v-48l-66 -9q-21 -4 -26.5 -13t-5.5 -34zM429 685q-20 21 -20 38q0 23 15.5 34t36.5 11q31 0 46 -20t15 -48q0 -37 -24.5 -81t-67.5 -78
l-26 28q41 54 41 82q0 17 -16 34z" />
    <glyph glyph-name="lcaron" unicode="&#x13e;" horiz-adv-x="389" 
d="M128 109v534q0 34 -7 45t-36 15l-44 7l6 51l163 5l11 -11v-650q0 -23 6 -33t26 -14l56 -10v-48h-269v49l57 9q15 2 22 9.5t8 15.5t1 26zM295 685q-20 21 -20 38q0 23 15.5 34t36.5 11q31 0 46 -20t15 -48q0 -37 -24.5 -81t-67.5 -78l-26 28q41 54 41 82q0 17 -16 34z" />
    <glyph glyph-name="Ldot" unicode="&#x13f;" horiz-adv-x="637" 
d="M250 596v-541h113q71 0 100.5 32t58.5 127h55l-25 -214h-490v48l58 9q20 3 25.5 14.5t5.5 36.5v488q0 25 -6 34t-27 13l-56 9v48h286v-48l-66 -9q-21 -4 -26.5 -13t-5.5 -34zM376 379q0 29 19 48t48 19q30 0 49 -18.5t19 -47.5t-19 -48t-49 -19q-29 0 -48 18.5t-19 47.5z
" />
    <glyph glyph-name="ldot" unicode="&#x140;" horiz-adv-x="365" 
d="M128 109v534q0 34 -7 45t-36 15l-44 7l6 51l163 5l11 -11v-650q0 -23 6 -33t26 -14l56 -10v-48h-269v49l57 9q15 2 22 9.5t8 15.5t1 26zM288 395q0 29 19 48t48 19q30 0 49 -18.5t19 -47.5t-19 -48t-49 -19q-29 0 -48 18.5t-19 47.5z" />
    <glyph glyph-name="Lslash" unicode="&#x141;" horiz-adv-x="637" 
d="M28 235v68l144 76l30 6l240 129v-67l-241 -129l-32 -7zM250 596v-541h113q71 0 100.5 32t58.5 127h55l-25 -214h-490v48l58 9q20 3 25.5 14.5t5.5 36.5v488q0 25 -6 34t-27 13l-56 9v48h286v-48l-66 -9q-21 -4 -26.5 -13t-5.5 -34z" />
    <glyph glyph-name="lslash" unicode="&#x142;" horiz-adv-x="359" 
d="M30 287v72l134 72l30 6l140 76v-71l-141 -76l-32 -7zM134 109v534q0 34 -7 45t-36 15l-44 7l6 51l163 5l11 -11v-650q0 -23 6 -33t26 -14l56 -10v-48h-269v49l57 9q15 2 22 9.5t8 15.5t1 26z" />
    <glyph glyph-name="Nacute" unicode="&#x143;" horiz-adv-x="824" 
d="M686 592v-592h-103l-362 609v-505q0 -25 5.5 -34t26.5 -13l56 -9v-48h-246v48l58 9q19 3 24.5 14.5t5.5 36.5v488q0 25 -5.5 34t-26.5 13l-56 9v48h222l332 -571v467q0 25 -6 34t-27 13l-55 9v48h245v-48l-57 -9q-20 -3 -25.5 -14.5t-5.5 -36.5zM318 780l131 119
q26 23 39 23q18 0 30.5 -15t12.5 -33q0 -38 -42 -56l-151 -66z" />
    <glyph glyph-name="nacute" unicode="&#x144;" horiz-adv-x="662" 
d="M55 47l48 9q18 3 22 13t4 35v282q0 35 -6 46.5t-28 15.5l-49 7l7 48l139 11l12 -7l7 -89h3q24 42 69.5 72.5t105.5 30.5q87 0 125.5 -47.5t38.5 -123.5v-254q0 -21 5.5 -29t25.5 -12l47 -8v-47h-245v46l44 8q19 4 24.5 12t5.5 30v225q0 31 -3 50.5t-12.5 39t-30.5 29
t-54 9.5q-57 0 -97.5 -35t-40.5 -104v-210q0 -22 4.5 -31t20.5 -12l53 -11v-46h-245v47zM262 605l108 143q23 29 39 29q21 0 34.5 -15.5t13.5 -35.5q0 -32 -35 -53l-136 -93z" />
    <glyph glyph-name="uni0145" unicode="&#x145;" horiz-adv-x="824" 
d="M686 592v-592h-103l-362 609v-505q0 -25 5.5 -34t26.5 -13l56 -9v-48h-246v48l58 9q19 3 24.5 14.5t5.5 36.5v488q0 25 -5.5 34t-26.5 13l-56 9v48h222l332 -571v467q0 25 -6 34t-27 13l-55 9v48h245v-48l-57 -9q-20 -3 -25.5 -14.5t-5.5 -36.5zM360 -239l24 -29
q43 21 67 60t24 80q0 30 -16.5 51t-50.5 21q-28 0 -44.5 -15.5t-16.5 -40.5q0 -46 51 -46h10q0 -40 -48 -81z" />
    <glyph glyph-name="uni0146" unicode="&#x146;" horiz-adv-x="662" 
d="M55 47l48 9q18 3 22 13t4 35v282q0 35 -6 46.5t-28 15.5l-49 7l7 48l139 11l12 -7l7 -89h3q24 42 69.5 72.5t105.5 30.5q87 0 125.5 -47.5t38.5 -123.5v-254q0 -21 5.5 -29t25.5 -12l47 -8v-47h-245v46l44 8q19 4 24.5 12t5.5 30v225q0 31 -3 50.5t-12.5 39t-30.5 29
t-54 9.5q-57 0 -97.5 -35t-40.5 -104v-210q0 -22 4.5 -31t20.5 -12l53 -11v-46h-245v47zM289 -239l24 -29q43 21 67 60t24 80q0 30 -16.5 51t-50.5 21q-28 0 -44.5 -15.5t-16.5 -40.5q0 -46 51 -46h10q0 -40 -48 -81z" />
    <glyph glyph-name="Ncaron" unicode="&#x147;" horiz-adv-x="824" 
d="M686 592v-592h-103l-362 609v-505q0 -25 5.5 -34t26.5 -13l56 -9v-48h-246v48l58 9q19 3 24.5 14.5t5.5 36.5v488q0 25 -5.5 34t-26.5 13l-56 9v48h222l332 -571v467q0 25 -6 34t-27 13l-55 9v48h245v-48l-57 -9q-20 -3 -25.5 -14.5t-5.5 -36.5zM275 936l137 -84l140 84
l24 -25l-125 -137q-20 -22 -39 -22q-14 0 -41 28l-121 130z" />
    <glyph glyph-name="ncaron" unicode="&#x148;" horiz-adv-x="662" 
d="M55 47l48 9q18 3 22 13t4 35v282q0 35 -6 46.5t-28 15.5l-49 7l7 48l139 11l12 -7l7 -89h3q24 42 69.5 72.5t105.5 30.5q87 0 125.5 -47.5t38.5 -123.5v-254q0 -21 5.5 -29t25.5 -12l47 -8v-47h-245v46l44 8q19 4 24.5 12t5.5 30v225q0 31 -3 50.5t-12.5 39t-30.5 29
t-54 9.5q-57 0 -97.5 -35t-40.5 -104v-210q0 -22 4.5 -31t20.5 -12l53 -11v-46h-245v47zM214 779l123 -100l127 100l26 -25l-114 -152q-18 -22 -39 -22q-20 0 -41 28l-109 145z" />
    <glyph glyph-name="napostrophe" unicode="&#x149;" horiz-adv-x="717" 
d="M110 47l48 9q18 3 22 13t4 35v282q0 35 -6 46.5t-28 15.5l-49 7l7 48l139 11l12 -7l7 -89h3q24 42 69.5 72.5t105.5 30.5q87 0 125.5 -47.5t38.5 -123.5v-254q0 -21 5.5 -29t25.5 -12l47 -8v-47h-245v46l44 8q19 4 24.5 12t5.5 30v225q0 31 -3 50.5t-12.5 39t-30.5 29
t-54 9.5q-57 0 -97.5 -35t-40.5 -104v-210q0 -22 4.5 -31t20.5 -12l53 -11v-46h-245v47zM17 493l-24 29q48 41 48 81h-10q-51 0 -51 46q0 25 16.5 40.5t44.5 15.5q34 0 50.5 -21t16.5 -51q0 -41 -24 -80t-67 -60z" />
    <glyph glyph-name="Omacron" unicode="&#x14c;" horiz-adv-x="779" 
d="M59 336q0 79 18.5 143t50.5 107t75.5 72.5t91.5 42.5t101 13q138 0 230.5 -90.5t92.5 -255.5q0 -178 -94.5 -280t-237.5 -102q-151 0 -239.5 98t-88.5 252zM165 357q0 -140 63 -222t171 -82q100 0 155.5 73.5t55.5 222.5q0 145 -61.5 223t-165.5 78q-99 0 -158.5 -72
t-59.5 -221zM249 795v73h284v-73h-284z" />
    <glyph glyph-name="omacron" unicode="&#x14d;" horiz-adv-x="587" 
d="M47 242q0 141 74 210t183 69q104 0 170.5 -66t66.5 -188q0 -133 -70 -207t-181 -74q-115 0 -179 71t-64 185zM148 272q0 -103 41 -163.5t115 -60.5q64 0 99.5 50t35.5 145q0 103 -41 161t-110 58q-65 0 -102.5 -47t-37.5 -143zM155 635v73h280v-73h-280z" />
    <glyph glyph-name="Ohungarumlaut" unicode="&#x150;" horiz-adv-x="779" 
d="M59 336q0 79 18.5 143t50.5 107t75.5 72.5t91.5 42.5t101 13q138 0 230.5 -90.5t92.5 -255.5q0 -178 -94.5 -280t-237.5 -102q-151 0 -239.5 98t-88.5 252zM165 357q0 -140 63 -222t171 -82q100 0 155.5 73.5t55.5 222.5q0 145 -61.5 223t-165.5 78q-99 0 -158.5 -72
t-59.5 -221zM259 780l117 123q26 23 39 23q18 0 29.5 -15t11.5 -33q0 -38 -42 -56l-135 -70zM437 780l118 118q23 23 39 23q18 0 30.5 -14t12.5 -31q0 -34 -42 -56l-138 -68z" />
    <glyph glyph-name="ohungarumlaut" unicode="&#x151;" horiz-adv-x="587" 
d="M47 242q0 141 74 210t183 69q104 0 170.5 -66t66.5 -188q0 -133 -70 -207t-181 -74q-115 0 -179 71t-64 185zM148 272q0 -103 41 -163.5t115 -60.5q64 0 99.5 50t35.5 145q0 103 -41 161t-110 58q-65 0 -102.5 -47t-37.5 -143zM184 605l84 136q18 29 38 29q21 0 32 -12
t11 -32q0 -29 -31 -54l-110 -92zM325 605l93 133q21 29 40 29q21 0 32 -12t11 -30q0 -33 -34 -57l-118 -88z" />
    <glyph glyph-name="OE" unicode="&#x152;" horiz-adv-x="1090" 
d="M59 336q0 98 28 173t76 118.5t105.5 65t121.5 21.5q138 0 220 -95v81h368l37 -163l-52 -17q-30 79 -60 102.5t-103 23.5h-97v-259h87h24.5t19 2t14 2t10 6t7 6.5t5 11l4.5 13.5t4.5 19t4.5 22l46 6v-227l-46 -8q-9 60 -21.5 72.5t-71.5 12.5h-87v-271h129
q72 0 100.5 24.5t49.5 105.5h55l-24 -184h-403v89q-85 -103 -223 -103q-151 0 -239.5 98t-88.5 252zM165 357q0 -140 63 -222t171 -82q100 0 155.5 73.5t55.5 222.5q0 145 -61.5 223t-165.5 78q-99 0 -158.5 -72t-59.5 -221z" />
    <glyph glyph-name="oe" unicode="&#x153;" horiz-adv-x="908" 
d="M541 302h230q3 20 3 46q0 120 -101 120q-117 0 -132 -166zM148 272q0 -103 41 -163.5t115 -60.5q64 0 99.5 50t35.5 145q0 103 -41 161t-110 58q-65 0 -102.5 -47t-37.5 -143zM47 242q0 141 74 210t183 69q120 0 187 -92q66 92 188 92q80 0 132 -47.5t52 -129.5
q0 -48 -14 -98h-313q3 -86 45 -136t116 -50q80 0 138 60l35 -35q-31 -42 -82.5 -70.5t-113.5 -28.5q-126 0 -188 98q-74 -98 -196 -98q-115 0 -179 71t-64 185z" />
    <glyph glyph-name="Racute" unicode="&#x154;" horiz-adv-x="725" 
d="M402 229q-23 55 -41.5 73.5t-65.5 18.5q-25 0 -45 -3v-212q0 -26 7 -36.5t30 -13.5l70 -8v-48h-295v48l58 9q20 3 25.5 14.5t5.5 36.5v488q0 25 -6 34t-27 13l-56 9v48h251q269 0 269 -179q0 -42 -18.5 -77t-47 -56t-56 -33t-52.5 -17v-3q40 -11 62.5 -32t38.5 -59
l35 -82q14 -34 20 -47t18.5 -31.5t26.5 -24.5t34 -6q18 0 45 9l10 -36q-42 -40 -101 -40q-58 0 -88.5 30t-58.5 98zM250 646v-275q16 -2 56 -2q83 0 126 39.5t43 106.5q0 74 -43.5 102.5t-125.5 28.5h-56zM241 780l131 119q26 23 39 23q18 0 30.5 -15t12.5 -33
q0 -38 -42 -56l-151 -66z" />
    <glyph glyph-name="racute" unicode="&#x155;" horiz-adv-x="473" 
d="M363 521q45 0 74 -24.5t29 -71.5q0 -79 -67 -79q-29 0 -44 12t-15 32t19 58q-45 23 -91 -26t-46 -116v-203q0 -23 4 -31.5t21 -11.5l86 -13v-47h-278v48l48 9q17 3 21.5 13.5t4.5 34.5v280q0 35 -6 46.5t-28 15.5l-49 7l7 49l135 11l12 -7l11 -90h3q60 104 149 104z
M197 605l108 143q23 29 39 29q21 0 34.5 -15.5t13.5 -35.5q0 -32 -35 -53l-136 -93z" />
    <glyph glyph-name="uni0156" unicode="&#x156;" horiz-adv-x="725" 
d="M402 229q-23 55 -41.5 73.5t-65.5 18.5q-25 0 -45 -3v-212q0 -26 7 -36.5t30 -13.5l70 -8v-48h-295v48l58 9q20 3 25.5 14.5t5.5 36.5v488q0 25 -6 34t-27 13l-56 9v48h251q269 0 269 -179q0 -42 -18.5 -77t-47 -56t-56 -33t-52.5 -17v-3q40 -11 62.5 -32t38.5 -59
l35 -82q14 -34 20 -47t18.5 -31.5t26.5 -24.5t34 -6q18 0 45 9l10 -36q-42 -40 -101 -40q-58 0 -88.5 30t-58.5 98zM250 646v-275q16 -2 56 -2q83 0 126 39.5t43 106.5q0 74 -43.5 102.5t-125.5 28.5h-56zM308 -239l24 -29q43 21 67 60t24 80q0 30 -16.5 51t-50.5 21
q-28 0 -44.5 -15.5t-16.5 -40.5q0 -46 51 -46h10q0 -40 -48 -81z" />
    <glyph glyph-name="uni0157" unicode="&#x157;" horiz-adv-x="473" 
d="M363 521q45 0 74 -24.5t29 -71.5q0 -79 -67 -79q-29 0 -44 12t-15 32t19 58q-45 23 -91 -26t-46 -116v-203q0 -23 4 -31.5t21 -11.5l86 -13v-47h-278v48l48 9q17 3 21.5 13.5t4.5 34.5v280q0 35 -6 46.5t-28 15.5l-49 7l7 49l135 11l12 -7l11 -90h3q60 104 149 104z
M123 -239l24 -29q43 21 67 60t24 80q0 30 -16.5 51t-50.5 21q-28 0 -44.5 -15.5t-16.5 -40.5q0 -46 51 -46h10q0 -40 -48 -81z" />
    <glyph glyph-name="Rcaron" unicode="&#x158;" horiz-adv-x="725" 
d="M402 229q-23 55 -41.5 73.5t-65.5 18.5q-25 0 -45 -3v-212q0 -26 7 -36.5t30 -13.5l70 -8v-48h-295v48l58 9q20 3 25.5 14.5t5.5 36.5v488q0 25 -6 34t-27 13l-56 9v48h251q269 0 269 -179q0 -42 -18.5 -77t-47 -56t-56 -33t-52.5 -17v-3q40 -11 62.5 -32t38.5 -59
l35 -82q14 -34 20 -47t18.5 -31.5t26.5 -24.5t34 -6q18 0 45 9l10 -36q-42 -40 -101 -40q-58 0 -88.5 30t-58.5 98zM250 646v-275q16 -2 56 -2q83 0 126 39.5t43 106.5q0 74 -43.5 102.5t-125.5 28.5h-56zM182 936l137 -84l140 84l24 -25l-125 -137q-20 -22 -39 -22
q-14 0 -41 28l-121 130z" />
    <glyph glyph-name="rcaron" unicode="&#x159;" horiz-adv-x="473" 
d="M363 521q45 0 74 -24.5t29 -71.5q0 -79 -67 -79q-29 0 -44 12t-15 32t19 58q-45 23 -91 -26t-46 -116v-203q0 -23 4 -31.5t21 -11.5l86 -13v-47h-278v48l48 9q17 3 21.5 13.5t4.5 34.5v280q0 35 -6 46.5t-28 15.5l-49 7l7 49l135 11l12 -7l11 -90h3q60 104 149 104z
M149 779l123 -100l127 100l26 -25l-114 -152q-18 -22 -39 -22q-20 0 -41 28l-109 145z" />
    <glyph glyph-name="Sacute" unicode="&#x15a;" horiz-adv-x="613" 
d="M308 659q-53 0 -86.5 -30t-33.5 -80q0 -51 37.5 -82.5t90.5 -48.5t106 -37.5t90.5 -65t37.5 -115.5q0 -84 -57.5 -149t-166.5 -65q-59 0 -105.5 20t-74.5 47l-16 -59h-44l-20 216l57 5q61 -165 200 -165q63 0 96.5 30.5t33.5 84.5q0 48 -27 80t-67 46t-87 31.5t-87 36
t-67 60t-27 102.5q0 80 55.5 136.5t158.5 56.5q87 0 148 -52l13 52h47l22 -202l-56 -8q-25 86 -68.5 120.5t-102.5 34.5zM213 780l131 119q26 23 39 23q18 0 30.5 -15t12.5 -33q0 -38 -42 -56l-151 -66z" />
    <glyph glyph-name="sacute" unicode="&#x15b;" horiz-adv-x="452" 
d="M235 467q-42 0 -66 -18.5t-24 -54.5q0 -33 28.5 -53t69.5 -30.5t81.5 -24.5t69 -47t28.5 -87q0 -68 -47 -117t-132 -49q-76 0 -125 34l-11 -34h-42l-16 172l56 4q41 -116 140 -116q42 0 68 22t26 62q0 29 -20.5 48.5t-51.5 27.5t-67 19.5t-67 25t-51.5 44.5t-20.5 76
q0 66 45.5 108t126.5 42q69 0 110 -34l8 34h44l13 -163l-57 5q-10 49 -43 76.5t-73 27.5zM158 605l108 143q23 29 39 29q21 0 34.5 -15.5t13.5 -35.5q0 -32 -35 -53l-136 -93z" />
    <glyph glyph-name="Scircumflex" unicode="&#x15c;" horiz-adv-x="613" 
d="M308 659q-53 0 -86.5 -30t-33.5 -80q0 -51 37.5 -82.5t90.5 -48.5t106 -37.5t90.5 -65t37.5 -115.5q0 -84 -57.5 -149t-166.5 -65q-59 0 -105.5 20t-74.5 47l-16 -59h-44l-20 216l57 5q61 -165 200 -165q63 0 96.5 30.5t33.5 84.5q0 48 -27 80t-67 46t-87 31.5t-87 36
t-67 60t-27 102.5q0 80 55.5 136.5t158.5 56.5q87 0 148 -52l13 52h47l22 -202l-56 -8q-25 86 -68.5 120.5t-102.5 34.5zM446 750l-137 84l-140 -84l-24 25l125 137q20 22 39 22q14 0 41 -28l121 -130z" />
    <glyph glyph-name="scircumflex" unicode="&#x15d;" horiz-adv-x="452" 
d="M235 467q-42 0 -66 -18.5t-24 -54.5q0 -33 28.5 -53t69.5 -30.5t81.5 -24.5t69 -47t28.5 -87q0 -68 -47 -117t-132 -49q-76 0 -125 34l-11 -34h-42l-16 172l56 4q41 -116 140 -116q42 0 68 22t26 62q0 29 -20.5 48.5t-51.5 27.5t-67 19.5t-67 25t-51.5 44.5t-20.5 76
q0 66 45.5 108t126.5 42q69 0 110 -34l8 34h44l13 -163l-57 5q-10 49 -43 76.5t-73 27.5zM366 580l-123 100l-127 -100l-26 25l114 152q18 22 39 22q20 0 41 -28l109 -145z" />
    <glyph glyph-name="uni015E" unicode="&#x15e;" horiz-adv-x="613" 
d="M308 659q-53 0 -86.5 -30t-33.5 -80q0 -51 37.5 -82.5t90.5 -48.5t106 -37.5t90.5 -65t37.5 -115.5q0 -84 -57.5 -149t-166.5 -65q-59 0 -105.5 20t-74.5 47l-16 -59h-44l-20 216l57 5q61 -165 200 -165q63 0 96.5 30.5t33.5 84.5q0 48 -27 80t-67 46t-87 31.5t-87 36
t-67 60t-27 102.5q0 80 55.5 136.5t158.5 56.5q87 0 148 -52l13 52h47l22 -202l-56 -8q-25 86 -68.5 120.5t-102.5 34.5zM292 13h46l-27 -70q49 6 77.5 -14t28.5 -62q0 -44 -29 -70t-86 -26q-31 0 -57 13.5t-38 26.5l24 37q29 -22 64 -22q21 0 35.5 11t14.5 32q0 38 -50 38
q-17 0 -30 -3l-8 21z" />
    <glyph glyph-name="uni015F" unicode="&#x15f;" horiz-adv-x="452" 
d="M235 467q-42 0 -66 -18.5t-24 -54.5q0 -33 28.5 -53t69.5 -30.5t81.5 -24.5t69 -47t28.5 -87q0 -68 -47 -117t-132 -49q-76 0 -125 34l-11 -34h-42l-16 172l56 4q41 -116 140 -116q42 0 68 22t26 62q0 29 -20.5 48.5t-51.5 27.5t-67 19.5t-67 25t-51.5 44.5t-20.5 76
q0 66 45.5 108t126.5 42q69 0 110 -34l8 34h44l13 -163l-57 5q-10 49 -43 76.5t-73 27.5zM220 13h46l-27 -70q49 6 77.5 -14t28.5 -62q0 -44 -29 -70t-86 -26q-31 0 -57 13.5t-38 26.5l24 37q29 -22 64 -22q21 0 35.5 11t14.5 32q0 38 -50 38q-17 0 -30 -3l-8 21z" />
    <glyph glyph-name="Scaron" unicode="&#x160;" horiz-adv-x="613" 
d="M308 659q-53 0 -86.5 -30t-33.5 -80q0 -51 37.5 -82.5t90.5 -48.5t106 -37.5t90.5 -65t37.5 -115.5q0 -84 -57.5 -149t-166.5 -65q-59 0 -105.5 20t-74.5 47l-16 -59h-44l-20 216l57 5q61 -165 200 -165q63 0 96.5 30.5t33.5 84.5q0 48 -27 80t-67 46t-87 31.5t-87 36
t-67 60t-27 102.5q0 80 55.5 136.5t158.5 56.5q87 0 148 -52l13 52h47l22 -202l-56 -8q-25 86 -68.5 120.5t-102.5 34.5zM170 936l137 -84l140 84l24 -25l-125 -137q-20 -22 -39 -22q-14 0 -41 28l-121 130z" />
    <glyph glyph-name="scaron" unicode="&#x161;" horiz-adv-x="452" 
d="M235 467q-42 0 -66 -18.5t-24 -54.5q0 -33 28.5 -53t69.5 -30.5t81.5 -24.5t69 -47t28.5 -87q0 -68 -47 -117t-132 -49q-76 0 -125 34l-11 -34h-42l-16 172l56 4q41 -116 140 -116q42 0 68 22t26 62q0 29 -20.5 48.5t-51.5 27.5t-67 19.5t-67 25t-51.5 44.5t-20.5 76
q0 66 45.5 108t126.5 42q69 0 110 -34l8 34h44l13 -163l-57 5q-10 49 -43 76.5t-73 27.5zM110 779l123 -100l127 100l26 -25l-114 -152q-18 -22 -39 -22q-20 0 -41 28l-109 145z" />
    <glyph glyph-name="uni0162" unicode="&#x162;" horiz-adv-x="738" 
d="M659 700l37 -200l-55 -13q-32 99 -62 128.5t-104 29.5h-56v-539q0 -24 6.5 -33t27.5 -13l79 -12v-48h-325v48l80 12q20 3 26.5 14t6.5 36v535h-55q-74 0 -105 -29.5t-64 -128.5l-54 13l39 200h578zM349 13h46l-27 -70q49 6 77.5 -14t28.5 -62q0 -44 -29 -70t-86 -26
q-31 0 -57 13.5t-38 26.5l24 37q29 -22 64 -22q21 0 35.5 11t14.5 32q0 38 -50 38q-16 0 -30 -3l-8 21z" />
    <glyph glyph-name="uni0163" unicode="&#x163;" horiz-adv-x="404" 
d="M37 444v52q56 4 80.5 47.5t30.5 130.5l48 6l13 -6v-167h156v-63h-156v-302q0 -83 71 -83q49 0 96 32l23 -36q-67 -69 -150 -69q-72 0 -102.5 38.5t-30.5 110.5v309h-79zM227 13h46l-27 -70q49 6 77.5 -14t28.5 -62q0 -44 -29 -70t-86 -26q-31 0 -57 13.5t-38 26.5l24 37
q29 -22 64 -22q21 0 35.5 11t14.5 32q0 38 -50 38q-16 0 -30 -3l-8 21z" />
    <glyph glyph-name="Tcaron" unicode="&#x164;" horiz-adv-x="738" 
d="M659 700l37 -200l-55 -13q-32 99 -62 128.5t-104 29.5h-56v-539q0 -24 6.5 -33t27.5 -13l79 -12v-48h-325v48l80 12q20 3 26.5 14t6.5 36v535h-55q-74 0 -105 -29.5t-64 -128.5l-54 13l39 200h578zM231 936l137 -84l140 84l24 -25l-125 -137q-20 -22 -39 -22
q-14 0 -41 28l-121 130z" />
    <glyph glyph-name="tcaron" unicode="&#x165;" horiz-adv-x="404" 
d="M37 444v52q56 4 80.5 47.5t30.5 130.5l48 6l13 -6v-167h156v-63h-156v-302q0 -83 71 -83q49 0 96 32l23 -36q-67 -69 -150 -69q-72 0 -102.5 38.5t-30.5 110.5v309h-79zM306 714q-20 21 -20 38q0 23 15.5 34t36.5 11q31 0 46 -20t15 -48q0 -37 -24.5 -81t-67.5 -78
l-26 28q41 54 41 82q0 17 -16 34z" />
    <glyph glyph-name="Utilde" unicode="&#x168;" horiz-adv-x="810" 
d="M677 592v-301q0 -305 -273 -305q-145 0 -205.5 73.5t-60.5 205.5v331q0 25 -6 34t-27 13l-56 9v48h276v-48l-58 -9q-19 -3 -24.5 -14.5t-5.5 -36.5v-320q0 -113 41.5 -164.5t139.5 -51.5q93 0 141 52t48 171v317q0 25 -6 34t-27 13l-55 9v48h246v-48l-57 -9
q-20 -3 -25.5 -14.5t-5.5 -36.5zM493 777q-36 0 -92 24q-58 24 -73 24q-14 0 -23 -6.5t-24 -29.5l-31 19q26 56 45 75t48 19q26 0 89 -26q58 -24 76 -24q10 0 17.5 5t11.5 10.5t15 21.5l31 -19q-25 -53 -44 -73t-46 -20z" />
    <glyph glyph-name="utilde" unicode="&#x169;" horiz-adv-x="634" 
d="M435 75h-3q-35 -42 -73.5 -65.5t-93.5 -23.5q-160 0 -160 171v229q0 35 -6 46.5t-28 15.5l-44 7l8 48l151 11l12 -7v-321q0 -33 2.5 -51t11 -38.5t29 -29.5t53.5 -9q57 0 96 34.5t39 104.5v189q0 35 -6 46.5t-28 15.5l-45 7l8 48l152 11l12 -7v-406q0 -24 6 -32.5
t26 -12.5l50 -9v-47l-155 -6zM384 620q-34 0 -90 24q-60 25 -70 25q-13 0 -22.5 -7t-24.5 -30l-31 19q26 55 45 73t48 18q28 0 86 -24t74 -24q10 0 17.5 5t11.5 10.5t15 21.5l31 -19q-25 -52 -43.5 -72t-46.5 -20z" />
    <glyph glyph-name="Umacron" unicode="&#x16a;" horiz-adv-x="810" 
d="M677 592v-301q0 -305 -273 -305q-145 0 -205.5 73.5t-60.5 205.5v331q0 25 -6 34t-27 13l-56 9v48h276v-48l-58 -9q-19 -3 -24.5 -14.5t-5.5 -36.5v-320q0 -113 41.5 -164.5t139.5 -51.5q93 0 141 52t48 171v317q0 25 -6 34t-27 13l-55 9v48h246v-48l-57 -9
q-20 -3 -25.5 -14.5t-5.5 -36.5zM274 795v73h284v-73h-284z" />
    <glyph glyph-name="umacron" unicode="&#x16b;" horiz-adv-x="634" 
d="M435 75h-3q-35 -42 -73.5 -65.5t-93.5 -23.5q-160 0 -160 171v229q0 35 -6 46.5t-28 15.5l-44 7l8 48l151 11l12 -7v-321q0 -33 2.5 -51t11 -38.5t29 -29.5t53.5 -9q57 0 96 34.5t39 104.5v189q0 35 -6 46.5t-28 15.5l-45 7l8 48l152 11l12 -7v-406q0 -24 6 -32.5
t26 -12.5l50 -9v-47l-155 -6zM170 635v73h280v-73h-280z" />
    <glyph glyph-name="Ubreve" unicode="&#x16c;" horiz-adv-x="810" 
d="M677 592v-301q0 -305 -273 -305q-145 0 -205.5 73.5t-60.5 205.5v331q0 25 -6 34t-27 13l-56 9v48h276v-48l-58 -9q-19 -3 -24.5 -14.5t-5.5 -36.5v-320q0 -113 41.5 -164.5t139.5 -51.5q93 0 141 52t48 171v317q0 25 -6 34t-27 13l-55 9v48h246v-48l-57 -9
q-20 -3 -25.5 -14.5t-5.5 -36.5zM257 916l40 12q14 -50 43 -73t78 -23q95 0 120 95l38 -10q-6 -66 -48.5 -115.5t-114.5 -49.5q-71 0 -110 46.5t-46 117.5z" />
    <glyph glyph-name="ubreve" unicode="&#x16d;" horiz-adv-x="634" 
d="M435 75h-3q-35 -42 -73.5 -65.5t-93.5 -23.5q-160 0 -160 171v229q0 35 -6 46.5t-28 15.5l-44 7l8 48l151 11l12 -7v-321q0 -33 2.5 -51t11 -38.5t29 -29.5t53.5 -9q57 0 96 34.5t39 104.5v189q0 35 -6 46.5t-28 15.5l-45 7l8 48l152 11l12 -7v-406q0 -24 6 -32.5
t26 -12.5l50 -9v-47l-155 -6zM161 756l40 12q29 -101 111 -101q84 0 110 100l38 -10q-6 -67 -46 -118.5t-107 -51.5q-66 0 -102 48.5t-44 120.5z" />
    <glyph glyph-name="Uring" unicode="&#x16e;" horiz-adv-x="810" 
d="M677 592v-301q0 -305 -273 -305q-145 0 -205.5 73.5t-60.5 205.5v331q0 25 -6 34t-27 13l-56 9v48h276v-48l-58 -9q-19 -3 -24.5 -14.5t-5.5 -36.5v-320q0 -113 41.5 -164.5t139.5 -51.5q93 0 141 52t48 171v317q0 25 -6 34t-27 13l-55 9v48h246v-48l-57 -9
q-20 -3 -25.5 -14.5t-5.5 -36.5zM363 847q0 -58 53 -58q50 0 50 58q0 25 -13 41t-39 16q-51 0 -51 -57zM305 847q0 45 29 74.5t83 29.5q52 0 80 -27.5t28 -74.5q0 -48 -29 -77.5t-81 -29.5q-56 0 -83 28t-27 77z" />
    <glyph glyph-name="uring" unicode="&#x16f;" horiz-adv-x="634" 
d="M435 75h-3q-35 -42 -73.5 -65.5t-93.5 -23.5q-160 0 -160 171v229q0 35 -6 46.5t-28 15.5l-44 7l8 48l151 11l12 -7v-321q0 -33 2.5 -51t11 -38.5t29 -29.5t53.5 -9q57 0 96 34.5t39 104.5v189q0 35 -6 46.5t-28 15.5l-45 7l8 48l152 11l12 -7v-406q0 -24 6 -32.5
t26 -12.5l50 -9v-47l-155 -6zM260 685q0 -24 12.5 -40t38.5 -16q48 0 48 56q0 24 -12.5 40t-37.5 16t-37 -16t-12 -40zM202 685q0 44 28.5 73t81.5 29q51 0 78.5 -27t27.5 -73q0 -48 -28.5 -76.5t-79.5 -28.5q-54 0 -81 27.5t-27 75.5z" />
    <glyph glyph-name="Uhungarumlaut" unicode="&#x170;" horiz-adv-x="810" 
d="M677 592v-301q0 -305 -273 -305q-145 0 -205.5 73.5t-60.5 205.5v331q0 25 -6 34t-27 13l-56 9v48h276v-48l-58 -9q-19 -3 -24.5 -14.5t-5.5 -36.5v-320q0 -113 41.5 -164.5t139.5 -51.5q93 0 141 52t48 171v317q0 25 -6 34t-27 13l-55 9v48h246v-48l-57 -9
q-20 -3 -25.5 -14.5t-5.5 -36.5zM284 780l117 123q26 23 39 23q18 0 29.5 -15t11.5 -33q0 -38 -42 -56l-135 -70zM462 780l118 118q23 23 39 23q18 0 30.5 -14t12.5 -31q0 -34 -42 -56l-138 -68z" />
    <glyph glyph-name="uhungarumlaut" unicode="&#x171;" horiz-adv-x="634" 
d="M435 75h-3q-35 -42 -73.5 -65.5t-93.5 -23.5q-160 0 -160 171v229q0 35 -6 46.5t-28 15.5l-44 7l8 48l151 11l12 -7v-321q0 -33 2.5 -51t11 -38.5t29 -29.5t53.5 -9q57 0 96 34.5t39 104.5v189q0 35 -6 46.5t-28 15.5l-45 7l8 48l152 11l12 -7v-406q0 -24 6 -32.5
t26 -12.5l50 -9v-47l-155 -6zM199 605l84 136q18 29 38 29q21 0 32 -12t11 -32q0 -29 -31 -54l-110 -92zM340 605l93 133q21 29 40 29q21 0 32 -12t11 -30q0 -33 -34 -57l-118 -88z" />
    <glyph glyph-name="Uogonek" unicode="&#x172;" horiz-adv-x="810" 
d="M467 9l69 4q-41 -21 -74 -59.5t-33 -76.5q0 -41 41 -41q20 0 49 9l11 -35q-47 -39 -95 -39q-42 0 -67 23t-25 58q0 28 11 52t33 44.5t38 32.5t42 28zM677 592v-301q0 -305 -273 -305q-145 0 -205.5 73.5t-60.5 205.5v331q0 25 -6 34t-27 13l-56 9v48h276v-48l-58 -9
q-19 -3 -24.5 -14.5t-5.5 -36.5v-320q0 -113 41.5 -164.5t139.5 -51.5q93 0 141 52t48 171v317q0 25 -6 34t-27 13l-55 9v48h246v-48l-57 -9q-20 -3 -25.5 -14.5t-5.5 -36.5z" />
    <glyph glyph-name="uogonek" unicode="&#x173;" horiz-adv-x="634" 
d="M435 75h-3q-35 -42 -73.5 -65.5t-93.5 -23.5q-160 0 -160 171v229q0 35 -6 46.5t-28 15.5l-44 7l8 48l151 11l12 -7v-321q0 -33 2.5 -51t11 -38.5t29 -29.5t53.5 -9q57 0 96 34.5t39 104.5v189q0 35 -6 46.5t-28 15.5l-45 7l8 48l152 11l12 -7v-406q0 -24 6 -32.5
t26 -12.5l50 -9v-47l-155 -6zM535 9l49 -4q-87 -72 -87 -128q0 -41 41 -41q20 0 49 9l11 -35q-47 -39 -95 -39q-42 0 -67 23t-25 58q0 28 11 52t33 44.5t38 32.5t42 28z" />
    <glyph glyph-name="Wcircumflex" unicode="&#x174;" horiz-adv-x="1084" 
d="M208 595l117 -509h5l161 614h109l179 -609h5l118 498q6 26 1.5 37.5t-25.5 15.5l-49 11v47h237v-48l-47 -8q-19 -3 -29.5 -14t-17.5 -40l-151 -590h-113l-174 601h-3l-156 -601h-120l-152 591q-7 27 -15 36.5t-30 13.5l-40 8v51h264v-48l-51 -7q-20 -3 -24.5 -13t1.5 -37
zM682 750l-137 84l-140 -84l-24 25l125 137q20 22 39 22q14 0 41 -28l121 -130z" />
    <glyph glyph-name="wcircumflex" unicode="&#x175;" horiz-adv-x="860" 
d="M500 507l112 -422h5l87 312q8 26 3 37.5t-26 16.5l-43 10l9 46h206v-47l-37 -8q-19 -4 -28 -14t-18 -40l-121 -398h-105l-109 412h-5l-111 -412h-110l-123 399q-8 27 -15.5 36.5t-28.5 14.5l-35 8l10 49h235v-46l-48 -7q-20 -3 -23.5 -13t3.5 -37l88 -321h5l116 424h107z
M571 580l-123 100l-127 -100l-26 25l114 152q18 22 39 22q20 0 41 -28l109 -145z" />
    <glyph glyph-name="Ycircumflex" unicode="&#x176;" horiz-adv-x="708" 
d="M302 108v185l-187 298q-16 26 -27.5 36.5t-32.5 14.5l-37 7v51h279v-48l-55 -7q-22 -2 -27.5 -14.5t8.5 -35.5l146 -237h5l138 233q29 41 -17 51l-46 11v47h241v-48l-49 -8q-17 -3 -27.5 -14t-29.5 -41l-183 -297v-188q0 -25 5.5 -34t26.5 -13l61 -9v-48h-285v48l62 9
q20 3 25.5 14.5t5.5 36.5zM509 750l-137 84l-140 -84l-24 25l125 137q20 22 39 22q14 0 41 -28l121 -130z" />
    <glyph glyph-name="ycircumflex" unicode="&#x177;" horiz-adv-x="576" 
d="M195 404l111 -280h5l111 273q9 26 4 37.5t-27 16.5l-44 10l10 46h209v-47l-37 -8q-18 -4 -25.5 -13.5t-21.5 -40.5l-193 -452q-16 -36 -25 -54.5t-26 -45.5t-34 -40.5t-42.5 -24t-56.5 -10.5q-52 0 -77.5 23t-25.5 57q0 30 19 48.5t46 18.5q49 0 53 -36q1 -11 -4 -57
q32 -1 54 26t55 99l25 57l-165 392q-2 5 -6.5 14.5t-6 12.5t-5 8.5t-6.5 7l-8 4t-12 4.5l-35 8l10 49h238v-46l-48 -7q-20 -3 -24.5 -13.5t5.5 -36.5zM434 580l-123 100l-127 -100l-26 25l114 152q18 22 39 22q20 0 41 -28l109 -145z" />
    <glyph glyph-name="Ydieresis" unicode="&#x178;" horiz-adv-x="708" 
d="M302 108v185l-187 298q-16 26 -27.5 36.5t-32.5 14.5l-37 7v51h279v-48l-55 -7q-22 -2 -27.5 -14.5t8.5 -35.5l146 -237h5l138 233q29 41 -17 51l-46 11v47h241v-48l-49 -8q-17 -3 -27.5 -14t-29.5 -41l-183 -297v-188q0 -25 5.5 -34t26.5 -13l61 -9v-48h-285v48l62 9
q20 3 25.5 14.5t5.5 36.5zM204 834q0 28 18 46t46 18q29 0 47.5 -17.5t18.5 -45.5t-18.5 -46t-47.5 -18q-28 0 -46 17.5t-18 45.5zM406 834q0 28 18.5 46t46.5 18q29 0 47 -17.5t18 -45.5t-18.5 -46t-46.5 -18q-29 0 -47 17.5t-18 45.5z" />
    <glyph glyph-name="Zacute" unicode="&#x179;" horiz-adv-x="657" 
d="M588 700v-50l-410 -595h211q63 0 93.5 30t59.5 114h55l-19 -199h-520v48l412 599h-214q-59 0 -82 -27t-48 -106l-59 -5l12 191h509zM230 780l131 119q26 23 39 23q18 0 30.5 -15t12.5 -33q0 -38 -42 -56l-151 -66z" />
    <glyph glyph-name="zacute" unicode="&#x17a;" horiz-adv-x="486" 
d="M445 507v-46l-298 -406h118q36 0 55.5 4t35 20.5t24.5 36t25 65.5h54l-14 -181h-408v44l299 410h-117q-58 0 -79.5 -20t-42.5 -89l-57 -5l12 167h393zM168 605l108 143q23 29 39 29q21 0 34.5 -15.5t13.5 -35.5q0 -32 -35 -53l-136 -93z" />
    <glyph glyph-name="Zdotaccent" unicode="&#x17b;" horiz-adv-x="657" 
d="M588 700v-50l-410 -595h211q63 0 93.5 30t59.5 114h55l-19 -199h-520v48l412 599h-214q-59 0 -82 -27t-48 -106l-59 -5l12 191h509zM257 833q0 29 19 48t48 19q30 0 49 -18.5t19 -47.5t-19 -48t-49 -19q-29 0 -48 18.5t-19 47.5z" />
    <glyph glyph-name="zdotaccent" unicode="&#x17c;" horiz-adv-x="486" 
d="M445 507v-46l-298 -406h118q36 0 55.5 4t35 20.5t24.5 36t25 65.5h54l-14 -181h-408v44l299 410h-117q-58 0 -79.5 -20t-42.5 -89l-57 -5l12 167h393zM177 686q0 29 19 48t48 19q30 0 49 -18.5t19 -47.5t-19 -48t-49 -19q-29 0 -48 18.5t-19 47.5z" />
    <glyph glyph-name="Zcaron" unicode="&#x17d;" horiz-adv-x="657" 
d="M588 700v-50l-410 -595h211q63 0 93.5 30t59.5 114h55l-19 -199h-520v48l412 599h-214q-59 0 -82 -27t-48 -106l-59 -5l12 191h509zM187 936l137 -84l140 84l24 -25l-125 -137q-20 -22 -39 -22q-14 0 -41 28l-121 130z" />
    <glyph glyph-name="zcaron" unicode="&#x17e;" horiz-adv-x="486" 
d="M445 507v-46l-298 -406h118q36 0 55.5 4t35 20.5t24.5 36t25 65.5h54l-14 -181h-408v44l299 410h-117q-58 0 -79.5 -20t-42.5 -89l-57 -5l12 167h393zM120 779l123 -100l127 100l26 -25l-114 -152q-18 -22 -39 -22q-20 0 -41 28l-109 145z" />
    <glyph glyph-name="uni018F" unicode="&#x18f;" horiz-adv-x="701" 
d="M641 352q0 -171 -90 -268.5t-237 -97.5q-108 0 -181 65t-73 175q0 70 19 134h455q-5 120 -68.5 194t-174.5 74q-106 0 -201 -86l-40 37q42 57 112.5 96t158.5 39q152 0 236 -101.5t84 -260.5zM534 283h-367q-4 -34 -4 -62q0 -86 45 -129.5t121 -43.5q92 0 144.5 69
t60.5 166z" />
    <glyph glyph-name="florin" unicode="&#x192;" horiz-adv-x="529" 
d="M145 -10l48 391h-80l7 54h80l6 43q14 110 69.5 173t139.5 63q58 0 96 -25.5t38 -70.5q0 -28 -18.5 -48t-47.5 -20q-50 0 -50 40q0 21 27 60q-24 12 -52 12q-42 0 -67 -30.5t-35 -99.5l-12 -95h146l-8 -56h-146l-41 -336q-14 -109 -69.5 -173.5t-136.5 -64.5
q-58 0 -94.5 24.5t-36.5 69.5q0 28 18.5 48t47.5 20q50 0 50 -40q0 -21 -27 -60q20 -10 49 -10q81 0 99 131z" />
    <glyph glyph-name="Ohorn" unicode="&#x1a0;" horiz-adv-x="834" 
d="M59 334q0 98 28 172.5t76.5 118t107 65t125.5 21.5q98 0 176 -47t116 -136q75 41 82 117h-9q-62 0 -62 50q0 30 18.5 48.5t45.5 18.5q71 0 71 -88q0 -50 -34.5 -108.5t-94.5 -87.5q14 -53 14 -112q0 -178 -94.5 -279t-237.5 -101q-151 0 -239.5 97t-88.5 251zM165 355
q0 -140 63 -221t171 -81q100 0 155.5 72.5t55.5 221.5q0 145 -61 222.5t-166 77.5q-99 0 -158.5 -71.5t-59.5 -220.5z" />
    <glyph glyph-name="ohorn" unicode="&#x1a1;" horiz-adv-x="616" 
d="M47 242q0 141 74 210t183 69q118 0 184 -81q59 42 64 107h-9q-62 0 -62 50q0 30 18.5 48.5t45.5 18.5q71 0 71 -88q0 -43 -27 -95t-74 -85q26 -54 26 -129q0 -133 -70 -207t-181 -74q-115 0 -179 71t-64 185zM148 272q0 -103 41 -163.5t115 -60.5q64 0 99.5 50t35.5 145
q0 103 -41 161t-110 58q-65 0 -102.5 -47t-37.5 -143z" />
    <glyph glyph-name="Uhorn" unicode="&#x1af;" horiz-adv-x="866" 
d="M677 463v-172q0 -305 -273 -305q-145 0 -205.5 73.5t-60.5 205.5v331q0 25 -6 34t-27 13l-56 9v48h276v-48l-58 -9q-19 -3 -24.5 -14.5t-5.5 -36.5v-320q0 -113 41.5 -164.5t139.5 -51.5q93 0 141 52t48 171v317q0 25 -6 34t-27 13l-55 9v48l158 -1v-182q117 37 125 128
h-9q-62 0 -62 50q0 30 18.5 48.5t45.5 18.5q71 0 71 -88q0 -38 -18.5 -79t-63.5 -80t-107 -52z" />
    <glyph glyph-name="uhorn" unicode="&#x1b0;" horiz-adv-x="686" 
d="M435 76h-3q-35 -42 -73.5 -66t-93.5 -24q-160 0 -160 171v229q0 35 -6 46.5t-28 15.5l-44 7l8 48l151 11l12 -7v-321q0 -33 2.5 -51t11 -38.5t29 -29.5t53.5 -9q57 0 96 35t39 105v188q0 35 -6 46.5t-28 15.5l-45 7l8 48l152 11l12 -7v-86q93 40 100 126h-9q-62 0 -62 50
q0 30 18.5 48.5t45.5 18.5q71 0 71 -88q0 -59 -44.5 -124t-119.5 -86v-265q0 -24 6 -32.5t26 -12.5l50 -9v-47l-155 -6z" />
    <glyph glyph-name="uni01CD" unicode="&#x1cd;" horiz-adv-x="735" 
d="M530 105l-43 126h-268l-42 -122q-9 -26 -4 -37.5t27 -16.5l57 -8v-47h-242v48l48 8q18 4 26 14t20 40l211 590h106l209 -591q11 -29 17.5 -37.5t26.5 -13.5l41 -8v-50h-267v48l58 7q20 3 24.5 13.5t-5.5 36.5zM353 617l-114 -329h229l-111 329h-4zM235 936l137 -84
l140 84l24 -25l-125 -137q-20 -22 -39 -22q-14 0 -41 28l-121 130z" />
    <glyph glyph-name="uni01CE" unicode="&#x1ce;" horiz-adv-x="539" 
d="M432 100q0 -62 92 -36l10 -38q-42 -40 -92 -40q-86 0 -95 89q-56 -89 -155 -89q-56 0 -98 33t-42 102q0 64 40.5 102t114.5 49q54 8 132 12v68q0 64 -27.5 91t-80.5 27q-30 0 -55.5 -9t-36.5 -21q26 -44 26 -56q0 -18 -15 -31.5t-39 -13.5q-57 0 -57 52q0 53 58 91.5
t133 38.5q87 0 137 -40t50 -140v-241zM339 161v71q-43 0 -97 -9q-50 -7 -71.5 -32.5t-21.5 -58.5q0 -39 23 -58t58 -19q39 0 74 25.5t35 80.5zM123 779l123 -100l127 100l26 -25l-114 -152q-18 -22 -39 -22q-20 0 -41 28l-109 145z" />
    <glyph glyph-name="uni01CF" unicode="&#x1cf;" horiz-adv-x="401" 
d="M151 108v488q0 25 -6 34t-27 13l-60 9v48h285v-48l-63 -9q-19 -3 -24.5 -14.5t-5.5 -36.5v-488q0 -25 5.5 -34t26.5 -13l61 -9v-48h-285v48l62 9q20 3 25.5 14.5t5.5 36.5zM62 936l137 -84l140 84l24 -25l-125 -137q-20 -22 -39 -22q-14 0 -41 28l-121 130z" />
    <glyph glyph-name="uni01D0" unicode="&#x1d0;" horiz-adv-x="333" 
d="M221 505v-400q0 -23 6 -33t26 -14l56 -10v-48h-269v49l57 9q15 2 22 9.5t8 15.5t1 26v273q0 36 -6 48t-30 15l-48 7l7 50l158 8zM27 779l123 -100l127 100l26 -25l-114 -152q-18 -22 -39 -22q-20 0 -41 28l-109 145z" />
    <glyph glyph-name="uni01D1" unicode="&#x1d1;" horiz-adv-x="779" 
d="M59 336q0 79 18.5 143t50.5 107t75.5 72.5t91.5 42.5t101 13q138 0 230.5 -90.5t92.5 -255.5q0 -178 -94.5 -280t-237.5 -102q-151 0 -239.5 98t-88.5 252zM165 357q0 -140 63 -222t171 -82q100 0 155.5 73.5t55.5 222.5q0 145 -61.5 223t-165.5 78q-99 0 -158.5 -72
t-59.5 -221zM253 936l137 -84l140 84l24 -25l-125 -137q-20 -22 -39 -22q-14 0 -41 28l-121 130z" />
    <glyph glyph-name="uni01D2" unicode="&#x1d2;" horiz-adv-x="587" 
d="M47 242q0 141 74 210t183 69q104 0 170.5 -66t66.5 -188q0 -133 -70 -207t-181 -74q-115 0 -179 71t-64 185zM148 272q0 -103 41 -163.5t115 -60.5q64 0 99.5 50t35.5 145q0 103 -41 161t-110 58q-65 0 -102.5 -47t-37.5 -143zM170 779l123 -100l127 100l26 -25
l-114 -152q-18 -22 -39 -22q-20 0 -41 28l-109 145z" />
    <glyph glyph-name="uni01D3" unicode="&#x1d3;" horiz-adv-x="810" 
d="M677 592v-301q0 -305 -273 -305q-145 0 -205.5 73.5t-60.5 205.5v331q0 25 -6 34t-27 13l-56 9v48h276v-48l-58 -9q-19 -3 -24.5 -14.5t-5.5 -36.5v-320q0 -113 41.5 -164.5t139.5 -51.5q93 0 141 52t48 171v317q0 25 -6 34t-27 13l-55 9v48h246v-48l-57 -9
q-20 -3 -25.5 -14.5t-5.5 -36.5zM278 936l137 -84l140 84l24 -25l-125 -137q-20 -22 -39 -22q-14 0 -41 28l-121 130z" />
    <glyph glyph-name="uni01D4" unicode="&#x1d4;" horiz-adv-x="634" 
d="M435 75h-3q-35 -42 -73.5 -65.5t-93.5 -23.5q-160 0 -160 171v229q0 35 -6 46.5t-28 15.5l-44 7l8 48l151 11l12 -7v-321q0 -33 2.5 -51t11 -38.5t29 -29.5t53.5 -9q57 0 96 34.5t39 104.5v189q0 35 -6 46.5t-28 15.5l-45 7l8 48l152 11l12 -7v-406q0 -24 6 -32.5
t26 -12.5l50 -9v-47l-155 -6zM185 779l123 -100l127 100l26 -25l-114 -152q-18 -22 -39 -22q-20 0 -41 28l-109 145z" />
    <glyph glyph-name="uni01D5" unicode="&#x1d5;" horiz-adv-x="810" 
d="M677 592v-301q0 -305 -273 -305q-145 0 -205.5 73.5t-60.5 205.5v331q0 25 -6 34t-27 13l-56 9v48h276v-48l-58 -9q-19 -3 -24.5 -14.5t-5.5 -36.5v-320q0 -113 41.5 -164.5t139.5 -51.5q93 0 141 52t48 171v317q0 25 -6 34t-27 13l-55 9v48h246v-48l-57 -9
q-20 -3 -25.5 -14.5t-5.5 -36.5zM249 834q0 28 18 46t46 18q29 0 47.5 -17.5t18.5 -45.5t-18.5 -46t-47.5 -18q-28 0 -46 17.5t-18 45.5zM451 834q0 28 18.5 46t46.5 18q29 0 47 -17.5t18 -45.5t-18.5 -46t-46.5 -18q-29 0 -47 17.5t-18 45.5zM274 968v73h284v-73h-284z" />
    <glyph glyph-name="uni01D6" unicode="&#x1d6;" horiz-adv-x="634" 
d="M435 75h-3q-35 -42 -73.5 -65.5t-93.5 -23.5q-160 0 -160 171v229q0 35 -6 46.5t-28 15.5l-44 7l8 48l151 11l12 -7v-321q0 -33 2.5 -51t11 -38.5t29 -29.5t53.5 -9q57 0 96 34.5t39 104.5v189q0 35 -6 46.5t-28 15.5l-45 7l8 48l152 11l12 -7v-406q0 -24 6 -32.5
t26 -12.5l50 -9v-47l-155 -6zM146 682q0 27 18 45t45 18q28 0 46.5 -17.5t18.5 -44.5t-18.5 -45t-46.5 -18q-27 0 -45 17.5t-18 44.5zM344 682q0 27 18 45t46 18t46 -17.5t18 -44.5t-18 -45t-46 -18t-46 17.5t-18 44.5zM168 821v73h284v-73h-284z" />
    <glyph glyph-name="uni01D7" unicode="&#x1d7;" horiz-adv-x="810" 
d="M677 592v-301q0 -305 -273 -305q-145 0 -205.5 73.5t-60.5 205.5v331q0 25 -6 34t-27 13l-56 9v48h276v-48l-58 -9q-19 -3 -24.5 -14.5t-5.5 -36.5v-320q0 -113 41.5 -164.5t139.5 -51.5q93 0 141 52t48 171v317q0 25 -6 34t-27 13l-55 9v48h246v-48l-57 -9
q-20 -3 -25.5 -14.5t-5.5 -36.5zM249 834q0 28 18 46t46 18q29 0 47.5 -17.5t18.5 -45.5t-18.5 -46t-47.5 -18q-28 0 -46 17.5t-18 45.5zM451 834q0 28 18.5 46t46.5 18q29 0 47 -17.5t18 -45.5t-18.5 -46t-46.5 -18q-29 0 -47 17.5t-18 45.5zM321 970l131 119q26 23 39 23
q18 0 30.5 -15t12.5 -33q0 -38 -42 -56l-151 -66z" />
    <glyph glyph-name="uni01D8" unicode="&#x1d8;" horiz-adv-x="634" 
d="M435 75h-3q-35 -42 -73.5 -65.5t-93.5 -23.5q-160 0 -160 171v229q0 35 -6 46.5t-28 15.5l-44 7l8 48l151 11l12 -7v-321q0 -33 2.5 -51t11 -38.5t29 -29.5t53.5 -9q57 0 96 34.5t39 104.5v189q0 35 -6 46.5t-28 15.5l-45 7l8 48l152 11l12 -7v-406q0 -24 6 -32.5
t26 -12.5l50 -9v-47l-155 -6zM146 682q0 27 18 45t45 18q28 0 46.5 -17.5t18.5 -44.5t-18.5 -45t-46.5 -18q-27 0 -45 17.5t-18 44.5zM344 682q0 27 18 45t46 18t46 -17.5t18 -44.5t-18 -45t-46 -18t-46 17.5t-18 44.5zM215 827l131 119q26 23 39 23q18 0 30.5 -15t12.5 -33
q0 -38 -42 -56l-151 -66z" />
    <glyph glyph-name="uni01D9" unicode="&#x1d9;" horiz-adv-x="810" 
d="M677 592v-301q0 -305 -273 -305q-145 0 -205.5 73.5t-60.5 205.5v331q0 25 -6 34t-27 13l-56 9v48h276v-48l-58 -9q-19 -3 -24.5 -14.5t-5.5 -36.5v-320q0 -113 41.5 -164.5t139.5 -51.5q93 0 141 52t48 171v317q0 25 -6 34t-27 13l-55 9v48h246v-48l-57 -9
q-20 -3 -25.5 -14.5t-5.5 -36.5zM249 834q0 28 18 46t46 18q29 0 47.5 -17.5t18.5 -45.5t-18.5 -46t-47.5 -18q-28 0 -46 17.5t-18 45.5zM451 834q0 28 18.5 46t46.5 18q29 0 47 -17.5t18 -45.5t-18.5 -46t-46.5 -18q-29 0 -47 17.5t-18 45.5zM278 1124l137 -84l140 84
l24 -25l-125 -137q-20 -22 -39 -22q-14 0 -41 28l-121 130z" />
    <glyph glyph-name="uni01DA" unicode="&#x1da;" horiz-adv-x="634" 
d="M435 75h-3q-35 -42 -73.5 -65.5t-93.5 -23.5q-160 0 -160 171v229q0 35 -6 46.5t-28 15.5l-44 7l8 48l151 11l12 -7v-321q0 -33 2.5 -51t11 -38.5t29 -29.5t53.5 -9q57 0 96 34.5t39 104.5v189q0 35 -6 46.5t-28 15.5l-45 7l8 48l152 11l12 -7v-406q0 -24 6 -32.5
t26 -12.5l50 -9v-47l-155 -6zM146 682q0 27 18 45t45 18q28 0 46.5 -17.5t18.5 -44.5t-18.5 -45t-46.5 -18q-27 0 -45 17.5t-18 44.5zM344 682q0 27 18 45t46 18t46 -17.5t18 -44.5t-18 -45t-46 -18t-46 17.5t-18 44.5zM172 984l137 -84l140 84l24 -25l-125 -137
q-20 -22 -39 -22q-14 0 -41 28l-121 130z" />
    <glyph glyph-name="uni01DB" unicode="&#x1db;" horiz-adv-x="810" 
d="M677 592v-301q0 -305 -273 -305q-145 0 -205.5 73.5t-60.5 205.5v331q0 25 -6 34t-27 13l-56 9v48h276v-48l-58 -9q-19 -3 -24.5 -14.5t-5.5 -36.5v-320q0 -113 41.5 -164.5t139.5 -51.5q93 0 141 52t48 171v317q0 25 -6 34t-27 13l-55 9v48h246v-48l-57 -9
q-20 -3 -25.5 -14.5t-5.5 -36.5zM249 834q0 28 18 46t46 18q29 0 47.5 -17.5t18.5 -45.5t-18.5 -46t-47.5 -18q-28 0 -46 17.5t-18 45.5zM451 834q0 28 18.5 46t46.5 18q29 0 47 -17.5t18 -45.5t-18.5 -46t-46.5 -18q-29 0 -47 17.5t-18 45.5zM380 1087l131 -119l-20 -28
l-151 66q-42 18 -42 56q0 18 12.5 33t30.5 15q13 0 39 -23z" />
    <glyph glyph-name="uni01DC" unicode="&#x1dc;" horiz-adv-x="634" 
d="M435 75h-3q-35 -42 -73.5 -65.5t-93.5 -23.5q-160 0 -160 171v229q0 35 -6 46.5t-28 15.5l-44 7l8 48l151 11l12 -7v-321q0 -33 2.5 -51t11 -38.5t29 -29.5t53.5 -9q57 0 96 34.5t39 104.5v189q0 35 -6 46.5t-28 15.5l-45 7l8 48l152 11l12 -7v-406q0 -24 6 -32.5
t26 -12.5l50 -9v-47l-155 -6zM146 682q0 27 18 45t45 18q28 0 46.5 -17.5t18.5 -44.5t-18.5 -45t-46.5 -18q-27 0 -45 17.5t-18 44.5zM344 682q0 27 18 45t46 18t46 -17.5t18 -44.5t-18 -45t-46 -18t-46 17.5t-18 44.5zM274 946l131 -119l-20 -28l-151 66q-42 18 -42 56
q0 18 12.5 33t30.5 15q13 0 39 -23z" />
    <glyph glyph-name="Gcaron" unicode="&#x1e6;" horiz-adv-x="760" 
d="M377 714q108 0 169 -61l10 63h49l46 -233l-55 -12q-30 93 -81 136.5t-132 43.5q-108 0 -162.5 -79t-54.5 -223q0 -126 58 -211.5t163 -85.5q111 0 162 68v110q0 25 -6 34t-27 13l-60 9v48h271v-48l-53 -9q-19 -3 -24.5 -14.5t-5.5 -36.5v-229h-43l-26 47
q-80 -58 -195 -58q-81 0 -144.5 30t-101 81t-56.5 113t-19 130q0 174 89 274t229 100zM238 936l137 -84l140 84l24 -25l-125 -137q-20 -22 -39 -22q-14 0 -41 28l-121 130z" />
    <glyph glyph-name="gcaron" unicode="&#x1e7;" horiz-adv-x="558" 
d="M459 348q0 -81 -56 -127.5t-146 -46.5q-48 0 -81 10q-32 -36 -32 -60q0 -23 17 -32t53 -9h128q83 0 130 -27t47 -102q0 -93 -73 -138t-192 -45q-229 0 -229 123q0 72 91 114v4q-29 9 -43.5 32t-14.5 45q0 29 14.5 52.5t50.5 61.5v3q-74 38 -74 137q0 82 57 130t150 48
q76 0 130 -33q33 94 104 94q27 0 47 -14t20 -39q0 -22 -17.5 -39t-39.5 -17q-26 0 -40 27l-10 21q-18 -27 -29 -63q38 -45 38 -110zM364 345q0 59 -30 92t-85 33q-105 0 -105 -122q0 -57 31 -89t80 -32q53 0 81 31t28 87zM424 -70q0 62 -93 62h-168q-46 -35 -46 -83
q0 -41 34 -58t111 -17q78 0 120 26t42 70zM134 779l123 -100l127 100l26 -25l-114 -152q-18 -22 -39 -22q-20 0 -41 28l-109 145z" />
    <glyph glyph-name="uni0218" unicode="&#x218;" horiz-adv-x="613" 
d="M308 659q-53 0 -86.5 -30t-33.5 -80q0 -51 37.5 -82.5t90.5 -48.5t106 -37.5t90.5 -65t37.5 -115.5q0 -84 -57.5 -149t-166.5 -65q-59 0 -105.5 20t-74.5 47l-16 -59h-44l-20 216l57 5q61 -165 200 -165q63 0 96.5 30.5t33.5 84.5q0 48 -27 80t-67 46t-87 31.5t-87 36
t-67 60t-27 102.5q0 80 55.5 136.5t158.5 56.5q87 0 148 -52l13 52h47l22 -202l-56 -8q-25 86 -68.5 120.5t-102.5 34.5zM261 -239l24 -29q43 21 67 60t24 80q0 30 -16.5 51t-50.5 21q-28 0 -44.5 -15.5t-16.5 -40.5q0 -46 51 -46h10q0 -40 -48 -81z" />
    <glyph glyph-name="uni0219" unicode="&#x219;" horiz-adv-x="452" 
d="M235 467q-42 0 -66 -18.5t-24 -54.5q0 -33 28.5 -53t69.5 -30.5t81.5 -24.5t69 -47t28.5 -87q0 -68 -47 -117t-132 -49q-76 0 -125 34l-11 -34h-42l-16 172l56 4q41 -116 140 -116q42 0 68 22t26 62q0 29 -20.5 48.5t-51.5 27.5t-67 19.5t-67 25t-51.5 44.5t-20.5 76
q0 66 45.5 108t126.5 42q69 0 110 -34l8 34h44l13 -163l-57 5q-10 49 -43 76.5t-73 27.5zM187 -239l24 -29q43 21 67 60t24 80q0 30 -16.5 51t-50.5 21q-28 0 -44.5 -15.5t-16.5 -40.5q0 -46 51 -46h10q0 -40 -48 -81z" />
    <glyph glyph-name="uni021A" unicode="&#x21a;" horiz-adv-x="738" 
d="M659 700l37 -200l-55 -13q-32 99 -62 128.5t-104 29.5h-56v-539q0 -24 6.5 -33t27.5 -13l79 -12v-48h-325v48l80 12q20 3 26.5 14t6.5 36v535h-55q-74 0 -105 -29.5t-64 -128.5l-54 13l39 200h578zM318 -239l24 -29q43 21 67 60t24 80q0 30 -16.5 51t-50.5 21
q-28 0 -44.5 -15.5t-16.5 -40.5q0 -46 51 -46h10q0 -40 -48 -81z" />
    <glyph glyph-name="uni021B" unicode="&#x21b;" horiz-adv-x="404" 
d="M37 444v52q56 4 80.5 47.5t30.5 130.5l48 6l13 -6v-167h156v-63h-156v-302q0 -83 71 -83q49 0 96 32l23 -36q-67 -69 -150 -69q-72 0 -102.5 38.5t-30.5 110.5v309h-79zM195 -239l24 -29q43 21 67 60t24 80q0 30 -16.5 51t-50.5 21q-28 0 -44.5 -15.5t-16.5 -40.5
q0 -46 51 -46h10q0 -40 -48 -81z" />
    <glyph glyph-name="uni0237" unicode="&#x237;" horiz-adv-x="309" 
d="M214 505v-410q0 -136 -33 -206.5t-119 -117.5l-28 41q48 38 67.5 89t19.5 127v354q0 36 -6 48t-30 15l-48 7l8 50l157 8z" />
    <glyph glyph-name="uni0251" unicode="&#x251;" horiz-adv-x="626" 
d="M507 513v-395q0 -62 45 -62q16 0 43 8l10 -38q-44 -40 -99 -40q-77 0 -89 84h-3q-61 -84 -167 -84q-93 0 -146.5 68.5t-53.5 183.5q0 129 67 206t178 77q84 0 142 -43l45 43zM281 58q53 0 93 38.5t40 115.5v202q-52 41 -125 41q-143 0 -143 -207q0 -86 32.5 -138
t102.5 -52z" />
    <glyph glyph-name="uni0259" unicode="&#x259;" horiz-adv-x="519" 
d="M473 259q0 -126 -68 -199.5t-176 -73.5q-80 0 -132 47.5t-52 129.5q0 48 14 98h313q-3 86 -45 136t-116 50q-80 0 -138 -60l-35 35q31 42 82.5 70.5t113.5 28.5q114 0 176.5 -73.5t62.5 -188.5zM372 205h-230q-3 -19 -3 -46q0 -120 101 -120q117 0 132 166z" />
    <glyph glyph-name="uni0261" unicode="&#x261;" horiz-adv-x="597" 
d="M270 -229q-101 0 -146.5 26.5t-45.5 69.5q0 32 18 48.5t45 16.5q20 0 32.5 -9t14.5 -24q2 -22 -7 -57q31 -17 82 -17q151 0 151 164v81q-61 -84 -167 -84q-93 0 -146.5 68.5t-53.5 183.5q0 129 67 206t178 77q84 0 142 -43l45 43l28 -8v-497q0 -58 -16 -102.5t-40 -71
t-57 -43t-63 -22.5t-61 -6zM281 58q53 0 93 38.5t40 115.5v202q-52 41 -125 41q-143 0 -143 -207q0 -86 32.5 -138t102.5 -52z" />
    <glyph glyph-name="uni02BB" unicode="&#x2bb;" 
d="M276 790l22 -29q-48 -41 -48 -83h8q51 0 51 -42q0 -25 -16 -41.5t-41 -16.5q-32 0 -49.5 21.5t-17.5 50.5q0 41 24 80t67 60z" />
    <glyph glyph-name="uni02BC" unicode="&#x2bc;" 
d="M218 578l-22 29q48 41 48 83h-8q-51 0 -51 42q0 25 16 41.5t41 16.5q32 0 49.5 -21.5t17.5 -50.5q0 -41 -24 -80t-67 -60z" />
    <glyph glyph-name="uni02BE" unicode="&#x2be;" 
d="M316 681q0 -43 -27.5 -71t-79.5 -28h-1v45h4q24 0 36 15.5t12 38.5t-12 38.5t-38 15.5h-2v46h3q53 0 79 -26.5t26 -73.5z" />
    <glyph glyph-name="uni02BF" unicode="&#x2bf;" 
d="M184 682q0 43 27.5 71t79.5 28h1v-45h-4q-24 0 -36 -15.5t-12 -38.5t12 -38.5t38 -15.5h2v-46h-3q-53 0 -79 26.5t-26 73.5z" />
    <glyph glyph-name="circumflex" unicode="&#x2c6;" 
d="M375 580l-123 100l-127 -100l-26 25l114 152q18 22 39 22q20 0 41 -28l109 -145z" />
    <glyph glyph-name="caron" unicode="&#x2c7;" 
d="M125 779l123 -100l127 100l26 -25l-114 -152q-18 -22 -39 -22q-20 0 -41 28l-109 145z" />
    <glyph glyph-name="uni02C8" unicode="&#x2c8;" 
d="M219 578v207h62v-207h-62z" />
    <glyph glyph-name="uni02C9" unicode="&#x2c9;" 
d="M110 635v73h280v-73h-280z" />
    <glyph glyph-name="uni02CA" unicode="&#x2ca;" 
d="M173 605l104 138q23 29 39 29q21 0 34.5 -15.5t13.5 -35.5q0 -32 -35 -53l-132 -88z" />
    <glyph glyph-name="uni02CB" unicode="&#x2cb;" 
d="M224 743l104 -138l-24 -25l-132 88q-35 24 -35 53q0 20 13.5 35.5t34.5 15.5q16 0 39 -29z" />
    <glyph glyph-name="uni02CC" unicode="&#x2cc;" 
d="M219 -249v194h62v-194h-62z" />
    <glyph glyph-name="breve" unicode="&#x2d8;" 
d="M101 756l40 12q29 -101 111 -101q84 0 110 100l38 -10q-6 -67 -46 -118.5t-107 -51.5q-66 0 -102 48.5t-44 120.5z" />
    <glyph glyph-name="dotaccent" unicode="&#x2d9;" 
d="M182 686q0 29 19 48t48 19q30 0 49 -18.5t19 -47.5t-19 -48t-49 -19q-29 0 -48 18.5t-19 47.5z" />
    <glyph glyph-name="ring" unicode="&#x2da;" 
d="M200 685q0 -24 12.5 -40t38.5 -16q48 0 48 56q0 24 -12.5 40t-37.5 16t-37 -16t-12 -40zM142 685q0 44 28.5 73t81.5 29q51 0 78.5 -27t27.5 -73q0 -48 -28.5 -76.5t-79.5 -28.5q-54 0 -81 27.5t-27 75.5z" />
    <glyph glyph-name="ogonek" unicode="&#x2db;" 
d="M267 9l49 -4q-87 -72 -87 -128q0 -41 41 -41q20 0 49 9l11 -35q-47 -39 -95 -39q-42 0 -67 23t-25 58q0 28 11 52t33 44.5t38 32.5t42 28z" />
    <glyph glyph-name="tilde" unicode="&#x2dc;" 
d="M324 620q-34 0 -90 24q-60 25 -70 25q-13 0 -22.5 -7t-24.5 -30l-31 19q26 55 45 73t48 18q28 0 86 -24t74 -24q10 0 17.5 5t11.5 10.5t15 21.5l31 -19q-25 -52 -43.5 -72t-46.5 -20z" />
    <glyph glyph-name="hungarumlaut" unicode="&#x2dd;" 
d="M139 605l84 136q18 29 38 29q21 0 32 -12t11 -32q0 -29 -31 -54l-110 -92zM280 605l93 133q21 29 40 29q21 0 32 -12t11 -30q0 -33 -34 -57l-118 -88z" />
    <glyph glyph-name="gravecomb" unicode="&#x300;" 
d="M224 743l104 -138l-24 -25l-132 88q-35 24 -35 53q0 20 13.5 35.5t34.5 15.5q16 0 39 -29z" />
    <glyph glyph-name="acutecomb" unicode="&#x301;" 
d="M173 605l104 138q23 29 39 29q21 0 34.5 -15.5t13.5 -35.5q0 -32 -35 -53l-132 -88z" />
    <glyph glyph-name="uni0302" unicode="&#x302;" 
d="M375 580l-123 100l-127 -100l-26 25l114 152q18 22 39 22q20 0 41 -28l109 -145z" />
    <glyph glyph-name="tildecomb" unicode="&#x303;" 
d="M324 620q-34 0 -90 24q-60 25 -70 25q-13 0 -22.5 -7t-24.5 -30l-31 19q26 55 45 73t48 18q28 0 86 -24t74 -24q10 0 17.5 5t11.5 10.5t15 21.5l31 -19q-25 -52 -43.5 -72t-46.5 -20z" />
    <glyph glyph-name="uni0304" unicode="&#x304;" 
d="M110 635v73h280v-73h-280z" />
    <glyph glyph-name="uni0306" unicode="&#x306;" 
d="M101 756l40 12q29 -101 111 -101q84 0 110 100l38 -10q-6 -67 -46 -118.5t-107 -51.5q-66 0 -102 48.5t-44 120.5z" />
    <glyph glyph-name="uni0307" unicode="&#x307;" 
d="M182 688q0 29 19 48t48 19q30 0 49 -18.5t19 -47.5t-19 -48t-49 -19q-29 0 -48 18.5t-19 47.5z" />
    <glyph glyph-name="uni0308" unicode="&#x308;" 
d="M86 682q0 27 18 45t45 18q28 0 46.5 -17.5t18.5 -44.5t-18.5 -45t-46.5 -18q-27 0 -45 17.5t-18 44.5zM284 682q0 27 18 45t46 18t46 -17.5t18 -44.5t-18 -45t-46 -18t-46 17.5t-18 44.5z" />
    <glyph glyph-name="hookabovecomb" unicode="&#x309;" 
d="M289 728q0 37 -44 37q-36 0 -52 -14q18 -27 18 -31q0 -13 -12.5 -22t-30.5 -9t-28 10.5t-10 28.5q0 36 34 58t83 22q118 0 118 -82q0 -23 -13.5 -44t-30 -33.5t-30 -26.5t-13.5 -25v-22h-63v47q0 25 37 54.5t37 51.5z" />
    <glyph glyph-name="uni030A" unicode="&#x30a;" 
d="M201 682q0 -23 12 -38.5t38 -15.5q47 0 47 54q0 23 -12.5 38.5t-36.5 15.5t-36 -15.5t-12 -38.5zM145 682q0 43 27.5 71t79.5 28q50 0 76.5 -26t26.5 -71q0 -46 -27.5 -74t-77.5 -28q-53 0 -79 26.5t-26 73.5z" />
    <glyph glyph-name="uni030B" unicode="&#x30b;" 
d="M139 605l84 136q18 29 38 29q21 0 32 -12t11 -32q0 -29 -31 -54l-110 -92zM280 605l93 133q21 29 40 29q21 0 32 -12t11 -30q0 -33 -34 -57l-118 -88z" />
    <glyph glyph-name="uni030C" unicode="&#x30c;" 
d="M125 779l123 -100l127 100l26 -25l-114 -152q-18 -22 -39 -22q-20 0 -41 28l-109 145z" />
    <glyph glyph-name="uni031B" unicode="&#x31b;" 
d="M362 365v54q98 39 105 128h-9q-62 0 -62 50q0 30 18.5 48.5t45.5 18.5q71 0 71 -88q0 -60 -45.5 -126t-123.5 -85z" />
    <glyph glyph-name="dotbelowcomb" unicode="&#x323;" 
d="M182 -141q0 29 19 48t48 19q30 0 49 -18.5t19 -47.5t-19 -48t-49 -19q-29 0 -48 18.5t-19 47.5z" />
    <glyph glyph-name="uni0324" unicode="&#x324;" 
d="M86 -128q0 27 18 45t45 18q28 0 46.5 -17.5t18.5 -44.5t-18.5 -45t-46.5 -18q-27 0 -45 17.5t-18 44.5zM284 -128q0 27 18 45t46 18t46 -17.5t18 -44.5t-18 -45t-46 -18t-46 17.5t-18 44.5z" />
    <glyph glyph-name="uni0326" unicode="&#x326;" 
d="M228 -261l-24 29q48 41 48 83h-10q-51 0 -51 42q0 25 16 41.5t43 16.5q35 0 52 -21t17 -51q0 -41 -24 -80t-67 -60z" />
    <glyph glyph-name="uni0327" unicode="&#x327;" 
d="M224 13h46l-27 -70q49 6 77.5 -14t28.5 -62q0 -44 -29 -70t-86 -26q-31 0 -57 13.5t-38 26.5l24 37q29 -22 64 -22q21 0 35.5 11t14.5 32q0 38 -50 38q-17 0 -30 -3l-8 21z" />
    <glyph glyph-name="uni0328" unicode="&#x328;" 
d="M267 9l49 -4q-87 -72 -87 -128q0 -41 41 -41q20 0 49 9l11 -35q-47 -39 -95 -39q-42 0 -67 23t-25 58q0 28 11 52t33 44.5t38 32.5t42 28z" />
    <glyph glyph-name="uni032E" unicode="&#x32e;" 
d="M105 -68l39 10q14 -46 39 -66t69 -20q81 0 106 85l39 -8q-6 -63 -44 -110t-105 -47q-66 0 -100.5 44t-42.5 112z" />
    <glyph glyph-name="uni0331" unicode="&#x331;" 
d="M110 -172v73h280v-73h-280z" />
    <glyph glyph-name="uni0374" unicode="&#x374;" horiz-adv-x="358" 
d="M50 541l64 176q16 45 49 45q41 0 63 -49l-1 -14l-140 -176z" />
    <glyph glyph-name="uni0375" unicode="&#x375;" 
d="M340 40l-64 -176q-16 -45 -49 -45q-41 0 -63 49l1 14l140 176z" />
    <glyph glyph-name="uni037A" unicode="&#x37a;" 
d="M166 -51l76 7l9 -4q-5 -68 -5 -75q0 -45 49 -45q14 0 37 5l7 -36q-37 -30 -81 -30q-45 0 -67 20.5t-22 72.5z" />
    <glyph glyph-name="uni037E" unicode="&#x37e;" horiz-adv-x="328" 
d="M86 -131l29 -37q62 36 96 93t34 106q0 42 -21.5 70t-63.5 28q-33 0 -53 -21t-20 -53q0 -55 62 -55h24q-6 -69 -87 -131zM83 445q0 33 21.5 54.5t54.5 21.5q34 0 55.5 -21t21.5 -54t-21.5 -54.5t-55.5 -21.5q-33 0 -54.5 21t-21.5 54z" />
    <glyph glyph-name="tonos" unicode="&#x384;" 
d="M184 591l67 163q9 23 19.5 33t29.5 10q40 0 63 -51l-1 -14l-143 -159z" />
    <glyph glyph-name="dieresistonos" unicode="&#x385;" 
d="M26 682q0 27 18 45t45 18q28 0 46.5 -17.5t18.5 -44.5t-18.5 -45t-46.5 -18q-27 0 -45 17.5t-18 44.5zM346 682q0 27 18 45t46 18t46 -17.5t18 -44.5t-18 -45t-46 -18t-46 17.5t-18 44.5zM171 589l50 170q8 24 18 35.5t32 11.5q38 0 62 -45v-14l-125 -173z" />
    <glyph glyph-name="Alphatonos" unicode="&#x386;" horiz-adv-x="735" 
d="M530 105l-43 126h-268l-42 -122q-9 -26 -4 -37.5t27 -16.5l57 -8v-47h-242v48l48 8q18 4 26.5 14t19.5 40l211 590h106l209 -591q11 -29 17.5 -38t26.5 -13l41 -8v-50h-267v48l58 7q20 3 24 13.5t-5 36.5zM353 617l-114 -329h229l-111 329h-4zM61 510l67 163
q9 23 19.5 33t29.5 10q40 0 63 -51l-1 -14l-143 -159z" />
    <glyph glyph-name="anoteleia" unicode="&#x387;" 
d="M173 445q0 33 21.5 54.5t54.5 21.5q34 0 55.5 -21t21.5 -54t-21.5 -54.5t-55.5 -21.5q-33 0 -54.5 21t-21.5 54z" />
    <glyph glyph-name="Epsilontonos" unicode="&#x388;" horiz-adv-x="637" 
d="M337 325h-87v-271h129q72 0 100.5 24.5t49.5 105.5h55l-24 -184h-498v48l58 9q20 3 25.5 14.5t5.5 36.5v488q0 25 -6 34t-27 13l-56 9v48h463l37 -163l-52 -17q-30 79 -60 102.5t-103 23.5h-97v-259h87h24.5t19 2t14 2t10 6t7 6.5t5 11l4.5 13.5t4.5 19t4.5 22l46 6v-227
l-46 -8q-9 60 -21.5 72.5t-71.5 12.5zM-162 510l67 163q9 23 19.5 33t29.5 10q40 0 63 -51l-1 -14l-143 -159z" />
    <glyph glyph-name="Etatonos" unicode="&#x389;" horiz-adv-x="840" 
d="M590 108v220h-340v-224q0 -25 5.5 -34t26.5 -13l56 -9v-48h-276v48l58 9q20 3 25.5 14.5t5.5 36.5v488q0 25 -6 34t-27 13l-56 9v48h276v-48l-58 -9q-19 -3 -24.5 -14.5t-5.5 -36.5v-201h340v205q0 25 -6 34t-27 13l-55 9v48h275v-48l-57 -9q-20 -3 -25.5 -14.5
t-5.5 -36.5v-488q0 -25 6 -34t27 -13l55 -9v-48h-275v48l57 9q20 3 25.5 14.5t5.5 36.5zM-162 510l67 163q9 23 19.5 33t29.5 10q40 0 63 -51l-1 -14l-143 -159z" />
    <glyph glyph-name="Iotatonos" unicode="&#x38a;" horiz-adv-x="401" 
d="M151 108v488q0 25 -6 34t-27 13l-60 9v48h285v-48l-63 -9q-19 -3 -24.5 -14t-5.5 -37v-488q0 -25 5.5 -34t26.5 -13l61 -9v-48h-285v48l62 9q20 3 25.5 14.5t5.5 36.5zM-162 510l67 163q9 23 19.5 33t29.5 10q40 0 63 -51l-1 -14l-143 -159z" />
    <glyph glyph-name="Omicrontonos" unicode="&#x38c;" horiz-adv-x="779" 
d="M59 336q0 79 18.5 143t50.5 107t75.5 72.5t91.5 42.5t101 13q138 0 230.5 -90.5t92.5 -255.5q0 -178 -94.5 -280t-237.5 -102q-151 0 -239.5 98t-88.5 252zM165 357q0 -140 63 -222t171 -82q100 0 155.5 73.5t55.5 222.5q0 145 -61.5 223t-165.5 78q-99 0 -158.5 -72
t-59.5 -221zM-86 510l67 163q9 23 19.5 33t29.5 10q40 0 63 -51l-1 -14l-143 -159z" />
    <glyph glyph-name="Upsilontonos" unicode="&#x38e;" horiz-adv-x="708" 
d="M302 108v185l-187 298q-16 26 -27.5 36.5t-32.5 14.5l-37 7v51h279v-48l-55 -7q-47 -5 -19 -50l146 -237h5l138 233q13 24 9 35t-26 16l-46 11v47h241v-48l-49 -8q-17 -3 -27.5 -14t-29.5 -41l-183 -297v-188q0 -25 5.5 -34t26.5 -13l61 -9v-48h-285v48l62 9
q20 3 25.5 14.5t5.5 36.5zM-212 510l67 163q9 23 19.5 33t29.5 10q40 0 63 -51l-1 -14l-143 -159z" />
    <glyph glyph-name="Omegatonos" unicode="&#x38f;" horiz-adv-x="830" 
d="M416 650q-104 0 -163.5 -60.5t-59.5 -182.5q0 -114 46.5 -175t134.5 -90v-142h-292l-22 184h55q14 -43 20.5 -60t20 -37t32.5 -26t49 -6h78v47q-37 10 -73 30.5t-73 54.5t-59.5 89.5t-22.5 123.5q0 137 92.5 225.5t242.5 88.5q138 0 229.5 -78.5t91.5 -224.5
q0 -112 -66 -195.5t-162 -114.5v-46h78q30 0 48.5 5.5t32.5 25.5t20.5 37t20.5 61h55l-22 -184h-292v141q59 20 96.5 48.5t61.5 85t24 139.5q0 111 -64.5 173.5t-157.5 62.5zM-71 510l67 163q9 23 19.5 33t29.5 10q40 0 63 -51l-1 -14l-143 -159z" />
    <glyph glyph-name="iotadieresistonos" unicode="&#x390;" horiz-adv-x="320" 
d="M69 508l92 8l11 -5q-16 -208 -16 -371q0 -45 14 -63t59 -18q38 0 61 8l10 -41q-40 -40 -117 -40q-30 0 -51 10t-32 23.5t-17 36.5t-7.5 41.5t-1.5 45.5zM-52 682q0 27 18 45t45 18q28 0 46.5 -17.5t18.5 -44.5t-18.5 -45t-46.5 -18q-27 0 -45 17.5t-18 44.5zM268 682
q0 27 18 45t46 18t46 -17.5t18 -44.5t-18 -45t-46 -18t-46 17.5t-18 44.5zM93 589l50 170q8 24 18 35.5t32 11.5q38 0 62 -45v-14l-125 -173z" />
    <glyph glyph-name="Alpha" unicode="&#x391;" horiz-adv-x="735" 
d="M530 105l-43 126h-268l-42 -122q-9 -26 -4 -37.5t27 -16.5l57 -8v-47h-242v48l48 8q18 4 26.5 14t19.5 40l211 590h106l209 -591q11 -29 17.5 -38t26.5 -13l41 -8v-50h-267v48l58 7q20 3 24 13.5t-5 36.5zM353 617l-114 -329h229l-111 329h-4z" />
    <glyph glyph-name="Beta" unicode="&#x392;" horiz-adv-x="660" 
d="M62 0v48l58 9q20 3 25.5 14.5t5.5 36.5v488q0 25 -6 34t-27 13l-56 9v48h255q125 0 192 -38t67 -128q0 -60 -42.5 -102.5t-102.5 -56.5v-5q88 -8 136.5 -50.5t48.5 -120.5q0 -93 -75 -146t-218 -53h-261zM250 333v-273q22 -5 71 -5q91 0 139.5 37t48.5 110
q0 135 -184 135q-44 0 -75 -4zM250 646v-255q13 -2 55 -2q77 0 120.5 36.5t43.5 104.5q0 67 -40 91.5t-121 24.5h-58z" />
    <glyph glyph-name="Gamma" unicode="&#x393;" horiz-adv-x="605" 
d="M250 646v-540q0 -26 7 -36.5t30 -13.5l70 -8v-48h-295v48l58 9q20 3 25.5 14.5t5.5 36.5v488q0 25 -6 34t-27 13l-56 9v48h464l36 -179l-52 -18q-33 89 -63 116t-103 27h-94z" />
    <glyph glyph-name="uni0394" unicode="&#x394;" horiz-adv-x="748" 
d="M96 0l-12 52l243 648h105l241 -648l-11 -52h-566zM555 77l-191 540h-5l-197 -540h393z" />
    <glyph glyph-name="Epsilon" unicode="&#x395;" horiz-adv-x="637" 
d="M337 325h-87v-271h129q72 0 100.5 24.5t49.5 105.5h55l-24 -184h-498v48l58 9q20 3 25.5 14.5t5.5 36.5v488q0 25 -6 34t-27 13l-56 9v48h463l37 -163l-52 -17q-30 79 -60 102.5t-103 23.5h-97v-259h87h24.5t19 2t14 2t10 6t7 6.5t5 11l4.5 13.5t4.5 19t4.5 22l46 6v-227
l-46 -8q-9 60 -21.5 72.5t-71.5 12.5z" />
    <glyph glyph-name="Zeta" unicode="&#x396;" horiz-adv-x="657" 
d="M588 700v-50l-410 -595h211q63 0 93.5 30t59.5 114h55l-19 -199h-520v48l412 599h-214q-59 0 -82 -27t-48 -106l-59 -5l12 191h509z" />
    <glyph glyph-name="Eta" unicode="&#x397;" horiz-adv-x="840" 
d="M590 108v220h-340v-224q0 -25 5.5 -34t26.5 -13l56 -9v-48h-276v48l58 9q20 3 25.5 14.5t5.5 36.5v488q0 25 -6 34t-27 13l-56 9v48h276v-48l-58 -9q-19 -3 -24.5 -14.5t-5.5 -36.5v-201h340v205q0 25 -6 34t-27 13l-55 9v48h275v-48l-57 -9q-20 -3 -25.5 -14.5
t-5.5 -36.5v-488q0 -25 6 -34t27 -13l55 -9v-48h-275v48l57 9q20 3 25.5 14.5t5.5 36.5z" />
    <glyph glyph-name="Theta" unicode="&#x398;" horiz-adv-x="779" 
d="M433 328h-92q-10 0 -17 -1t-12.5 -2t-9.5 -5.5t-6.5 -6t-5 -10t-3.5 -12t-4.5 -17t-4.5 -19.5l-41 -5v202l41 7q6 -47 16.5 -61t46.5 -14h92q10 0 17.5 1t13 2t9.5 5.5t6.5 6.5t5 10.5t3.5 12t4 16.5t4 19l41 5v-202l-41 -7q-8 51 -17 61q-12 14 -46 14zM59 336
q0 79 18.5 143t50.5 107t75.5 72.5t91.5 42.5t101 13q138 0 230.5 -90.5t92.5 -255.5q0 -178 -94.5 -280t-237.5 -102q-151 0 -239.5 98t-88.5 252zM165 357q0 -140 63 -222t171 -82q100 0 155.5 73.5t55.5 222.5q0 145 -61.5 223t-165.5 78q-99 0 -158.5 -72t-59.5 -221z
" />
    <glyph glyph-name="Iota" unicode="&#x399;" horiz-adv-x="401" 
d="M151 108v488q0 25 -6 34t-27 13l-60 9v48h285v-48l-63 -9q-19 -3 -24.5 -14t-5.5 -37v-488q0 -25 5.5 -34t26.5 -13l61 -9v-48h-285v48l62 9q20 3 25.5 14.5t5.5 36.5z" />
    <glyph glyph-name="Kappa" unicode="&#x39a;" horiz-adv-x="754" 
d="M155 108v488q0 25 -6 34t-27 13l-60 9v48h285v-48l-63 -9q-19 -3 -24.5 -14t-5.5 -37v-242l243 243q17 18 12 32.5t-25 17.5l-48 8l10 49h237v-50l-38 -8q-18 -4 -31 -13t-37 -33l-194 -195l175 -265q34 -51 58 -67t64 -16q18 0 45 9l10 -36q-38 -40 -103 -40
q-54 0 -90.5 22.5t-70.5 76.5l-157 251l-60 -61v-171q0 -25 5.5 -34t26.5 -13l61 -9v-48h-285v48l62 9q20 3 25.5 14.5t5.5 36.5z" />
    <glyph glyph-name="Lambda" unicode="&#x39b;" horiz-adv-x="720" 
d="M516 93l-167 524h-4l-167 -512q-8 -22 -2.5 -34t28.5 -16l55 -8v-47h-242v48l48 8q18 3 27.5 15t22.5 50l197 579h106l199 -591q10 -29 17.5 -38t26.5 -13l41 -8v-50h-267v48l58 7q34 4 23 38z" />
    <glyph glyph-name="Mu" unicode="&#x39c;" horiz-adv-x="1003" 
d="M748 108l-30 514l-187 -509h-100l-180 510l-30 -519q0 -25 5.5 -34t26.5 -13l56 -9v-48h-246v48l58 9q19 3 24.5 14.5t5.5 36.5l30 488q0 25 -5.5 34t-26.5 13l-56 9v48h232l171 -507l183 507h231v-48l-63 -9q-19 -3 -24.5 -14t-5.5 -37l30 -488q0 -25 5.5 -34t26.5 -13
l61 -9v-48h-285v48l62 9q20 3 25.5 14.5t5.5 36.5z" />
    <glyph glyph-name="Nu" unicode="&#x39d;" horiz-adv-x="824" 
d="M686 592v-592h-103l-362 609v-505q0 -25 5.5 -34t26.5 -13l56 -9v-48h-246v48l58 9q19 3 24.5 14t5.5 37v488q0 25 -5.5 34t-26.5 13l-56 9v48h222l332 -571v467q0 25 -6 34t-27 13l-55 9v48h245v-48l-57 -9q-20 -3 -25.5 -14.5t-5.5 -36.5z" />
    <glyph glyph-name="Xi" unicode="&#x39e;" horiz-adv-x="671" 
d="M443 83q55 0 78.5 20t41.5 90h55l-24 -193h-518l-23 193h55q18 -70 41 -90t78 -20h216zM572 700l37 -168l-52 -17q-25 69 -49.5 85.5t-84.5 16.5h-186q-54 0 -77.5 -20t-45.5 -82l-52 17l37 168h473zM412 323h-161q-10 0 -17 -1t-12.5 -2t-9.5 -5.5t-6.5 -6t-5 -10
t-3.5 -12t-4.5 -17t-4.5 -19.5l-41 -5v202l41 7q6 -47 16.5 -61t46.5 -14h161q10 0 17.5 1t13 2t9.5 5.5t6.5 6.5t5 10.5t3.5 12t4 16.5t4 19l41 5v-202l-41 -7q-8 51 -17 61q-12 14 -46 14z" />
    <glyph glyph-name="Omicron" unicode="&#x39f;" horiz-adv-x="779" 
d="M59 336q0 79 18.5 143t50.5 107t75.5 72.5t91.5 42.5t101 13q138 0 230.5 -90.5t92.5 -255.5q0 -178 -94.5 -280t-237.5 -102q-151 0 -239.5 98t-88.5 252zM165 357q0 -140 63 -222t171 -82q100 0 155.5 73.5t55.5 222.5q0 145 -61.5 223t-165.5 78q-99 0 -158.5 -72
t-59.5 -221z" />
    <glyph glyph-name="Pi" unicode="&#x3a0;" horiz-adv-x="830" 
d="M580 108v529h-330v-533q0 -25 5.5 -34t26.5 -13l56 -9v-48h-276v48l58 9q20 3 25.5 14t5.5 37v488q0 25 -6 34t-27 13l-56 9v48h705v-48l-57 -9q-20 -3 -25.5 -15t-5.5 -36v-488q0 -25 6 -34t27 -13l55 -9v-48h-275v48l58 9q19 3 24.5 14t5.5 37z" />
    <glyph glyph-name="Rho" unicode="&#x3a1;" horiz-adv-x="610" 
d="M76 0v48l58 9q20 3 25.5 14.5t5.5 36.5v488q0 25 -6 34t-27 13l-56 9v48h246q269 0 269 -198q0 -60 -23 -106t-60.5 -70.5t-79 -36.5t-85.5 -12q-57 0 -79 5v-176q0 -26 7 -36.5t30 -13.5l70 -8v-48h-295zM264 646v-310q17 -5 58 -5q162 0 162 168q0 82 -43.5 114.5
t-125.5 32.5h-51z" />
    <glyph glyph-name="Sigma" unicode="&#x3a3;" horiz-adv-x="653" 
d="M388 366v-9l-211 -272h224q61 0 86 28t56 116h55l-21 -229h-510v42l216 285l-220 323v50h503l12 -191l-59 5q-25 79 -48 106t-82 27h-198z" />
    <glyph glyph-name="Tau" unicode="&#x3a4;" horiz-adv-x="738" 
d="M659 700l37 -200l-55 -13q-32 99 -62 128.5t-104 29.5h-56v-539q0 -24 6.5 -33t27.5 -13l79 -12v-48h-325v48l80 12q20 3 26.5 14t6.5 36v535h-55q-74 0 -105 -29.5t-64 -128.5l-54 13l39 200h578z" />
    <glyph glyph-name="Upsilon" unicode="&#x3a5;" horiz-adv-x="708" 
d="M302 108v185l-187 298q-16 26 -27.5 36.5t-32.5 14.5l-37 7v51h279v-48l-55 -7q-47 -5 -19 -50l146 -237h5l138 233q13 24 9 35t-26 16l-46 11v47h241v-48l-49 -8q-17 -3 -27.5 -14t-29.5 -41l-183 -297v-188q0 -25 5.5 -34t26.5 -13l61 -9v-48h-285v48l62 9
q20 3 25.5 14.5t5.5 36.5z" />
    <glyph glyph-name="Phi" unicode="&#x3a6;" horiz-adv-x="836" 
d="M337 27q18 3 24 12.5t7 30.5q-153 9 -236.5 85t-83.5 193q0 131 88 202.5t232 79.5q-1 22 -7 30.5t-26 12.5l-50 9v48h265v-48l-53 -9q-18 -4 -24 -13.5t-6 -30.5q152 -10 235.5 -85.5t83.5 -191.5q0 -130 -88 -202t-231 -80q0 -22 6 -30.5t26 -12.5l51 -9v-48h-265v48z
M154 355q0 -100 58.5 -156.5t155.5 -65.5v435q-95 -2 -154.5 -54t-59.5 -159zM679 345q0 99 -58 155.5t-154 65.5v-434q94 2 153 54t59 159z" />
    <glyph glyph-name="Chi" unicode="&#x3a7;" horiz-adv-x="707" 
d="M115 100l183 240l-186 253q-28 39 -62 47l-35 8l10 52h244v-49l-40 -7q-34 -5 -6 -43l136 -186l128 182q16 22 14.5 30.5t-22.5 13.5l-38 10l10 49h215v-50l-38 -8q-20 -4 -32 -12.5t-30 -33.5l-170 -232l189 -257q31 -42 69 -49l38 -6v-52h-269v50l45 6q37 4 8 44
l-140 189l-140 -190q-9 -12 -12 -19t1.5 -12.5t18.5 -8.5l44 -10v-49h-233v50l38 8q14 3 21.5 5.5t17.5 11.5t23 25z" />
    <glyph glyph-name="Psi" unicode="&#x3a8;" horiz-adv-x="901" 
d="M403 108v81q-130 7 -203 68.5t-73 200.5v134q0 18 -1.5 26.5t-8 16.5t-20.5 10l-48 7v48h148v-238q0 -204 206 -209v343q0 25 -6 34t-27 13l-60 9v48h285v-48l-63 -9q-19 -3 -24.5 -14.5t-5.5 -36.5v-339q206 6 206 209v238h148v-48l-48 -7q-20 -3 -25 -15t-5 -38v-128
q0 -142 -73 -205t-203 -70v-85q0 -25 5.5 -34t26.5 -13l61 -9v-48h-285v48l62 9q20 3 25.5 14.5t5.5 36.5z" />
    <glyph glyph-name="uni03A9" unicode="&#x3a9;" horiz-adv-x="830" 
d="M416 650q-104 0 -163.5 -60.5t-59.5 -182.5q0 -114 46.5 -175t134.5 -90v-142h-292l-22 184h55q14 -43 20.5 -60t20 -37t32.5 -26t49 -6h78v47q-37 10 -73 30.5t-73 54.5t-59.5 89.5t-22.5 123.5q0 137 92.5 225.5t242.5 88.5q138 0 229.5 -78.5t91.5 -224.5
q0 -112 -66 -195.5t-162 -114.5v-46h78q30 0 48.5 5.5t32.5 25.5t20.5 37t20.5 61h55l-22 -184h-292v141q59 20 96.5 48.5t61.5 85t24 139.5q0 111 -64.5 173.5t-157.5 62.5z" />
    <glyph glyph-name="Iotadieresis" unicode="&#x3aa;" horiz-adv-x="401" 
d="M151 108v488q0 25 -6 34t-27 13l-60 9v48h285v-48l-63 -9q-19 -3 -24.5 -14t-5.5 -37v-488q0 -25 5.5 -34t26.5 -13l61 -9v-48h-285v48l62 9q20 3 25.5 14.5t5.5 36.5zM33 834q0 28 18 46t46 18q29 0 47.5 -17.5t18.5 -45.5t-18.5 -46t-47.5 -18q-28 0 -46 17.5t-18 45.5
zM235 834q0 28 18.5 46t46.5 18q29 0 47 -17.5t18 -45.5t-18.5 -46t-46.5 -18q-29 0 -47 17.5t-18 45.5z" />
    <glyph glyph-name="Upsilondieresis" unicode="&#x3ab;" horiz-adv-x="708" 
d="M302 108v185l-187 298q-16 26 -27.5 36.5t-32.5 14.5l-37 7v51h279v-48l-55 -7q-22 -2 -27.5 -14.5t8.5 -35.5l146 -237h5l138 233q29 41 -17 51l-46 11v47h241v-48l-49 -8q-17 -3 -27.5 -14t-29.5 -41l-183 -297v-188q0 -25 5.5 -34t26.5 -13l61 -9v-48h-285v48l62 9
q20 3 25.5 14.5t5.5 36.5zM204 834q0 28 18 46t46 18q29 0 47.5 -17.5t18.5 -45.5t-18.5 -46t-47.5 -18q-28 0 -46 17.5t-18 45.5zM406 834q0 28 18.5 46t46.5 18q29 0 47 -17.5t18 -45.5t-18.5 -46t-46.5 -18q-29 0 -47 17.5t-18 45.5z" />
    <glyph glyph-name="alphatonos" unicode="&#x3ac;" horiz-adv-x="618" 
d="M408 93q-47 -107 -166 -107q-94 0 -142 72.5t-48 188.5q0 47 9 90t31 87t67.5 70.5t108.5 26.5q107 0 149 -93l19 76l81 11l13 -6q-44 -184 -44 -315q0 -44 4 -72t13 -41.5t18.5 -17.5t24.5 -4q18 0 42 8l10 -41q-40 -40 -95 -40q-44 0 -63.5 27t-28.5 80h-3zM403 215
q0 27 2 68t2 64q-11 49 -45 82t-82 33q-127 0 -127 -207q0 -45 5 -79t17.5 -64.5t37 -47t59.5 -16.5q79 0 131 117v15.5v19v15.5zM256 591l67 163q9 23 19.5 33t29.5 10q40 0 63 -51l-1 -14l-143 -159z" />
    <glyph glyph-name="epsilontonos" unicode="&#x3ad;" horiz-adv-x="543" 
d="M271 -14q-96 0 -155 38.5t-59 105.5q0 89 107 128v1q-98 31 -98 111q0 67 58 109t157 42q96 0 152.5 -35t56.5 -96q0 -25 -15.5 -41.5t-47.5 -16.5q-56 0 -56 42q0 19 26 64q-40 22 -124 22q-117 0 -117 -87q0 -30 21.5 -53t57.5 -34q35 27 67 27q26 0 43 -14.5t17 -36.5
t-16.5 -38t-43.5 -16q-38 0 -72 27q-72 -23 -72 -86q0 -43 40.5 -64.5t103.5 -21.5q102 0 163 63l34 -35q-27 -38 -85 -71.5t-143 -33.5zM249 591l67 163q9 23 19.5 33t29.5 10q40 0 63 -51l-1 -14l-143 -159z" />
    <glyph glyph-name="etatonos" unicode="&#x3ae;" horiz-adv-x="614" 
d="M540 350v-343q0 -54 -2.5 -112t-5.5 -89l-2 -30l-12 -5l-90 18q19 116 19 237v295q0 65 -19 96.5t-82 31.5q-51 0 -91 -35.5t-40 -103.5v-310h-93v397q0 28 -7.5 38.5t-27.5 10.5t-42 -8l-10 38q42 40 94 40q34 0 52.5 -20.5t22.5 -77.5h3q59 103 171 103q162 0 162 -171
zM256 591l67 163q9 23 19.5 33t29.5 10q40 0 63 -51l-1 -14l-143 -159z" />
    <glyph glyph-name="iotatonos" unicode="&#x3af;" horiz-adv-x="320" 
d="M69 508l92 8l11 -5q-16 -208 -16 -371q0 -45 14 -63t59 -18q38 0 61 8l10 -41q-40 -40 -117 -40q-30 0 -51 10t-32 23.5t-17 36.5t-7.5 41.5t-1.5 45.5zM98 591l67 163q9 23 19.5 33t29.5 10q40 0 63 -51l-1 -14l-143 -159z" />
    <glyph glyph-name="upsilondieresistonos" unicode="&#x3b0;" horiz-adv-x="600" 
d="M117 189q0 53 5 114t5 97q0 46 -40 46q-20 0 -42 -8l-10 38q43 40 94 40q37 0 62 -22.5t25 -67.5q0 -39 -5 -98t-5 -108q0 -166 117 -166q68 0 96.5 52t28.5 154q0 104 -59 237l86 18l13 -6q56 -120 56 -249t-59.5 -201.5t-167.5 -72.5q-98 0 -149 52t-51 151zM102 682
q0 27 18 45t45 18q28 0 46.5 -17.5t18.5 -44.5t-18.5 -45t-46.5 -18q-27 0 -45 17.5t-18 44.5zM422 682q0 27 18 45t46 18t46 -17.5t18 -44.5t-18 -45t-46 -18t-46 17.5t-18 44.5zM247 589l50 170q8 24 18 35.5t32 11.5q38 0 62 -45v-14l-125 -173z" />
    <glyph glyph-name="alpha" unicode="&#x3b1;" horiz-adv-x="618" 
d="M408 93q-47 -107 -166 -107q-94 0 -142 72.5t-48 188.5q0 47 9 90t31 87t67.5 70.5t108.5 26.5q107 0 149 -93l19 76l81 11l13 -6q-44 -184 -44 -315q0 -44 4 -72t13 -41.5t18.5 -17.5t24.5 -4q18 0 42 8l10 -41q-40 -40 -95 -40q-44 0 -63.5 27t-28.5 80h-3zM403 215
q0 27 2 68t2 64q-11 49 -45 82t-82 33q-127 0 -127 -207q0 -45 5 -79t17.5 -64.5t37 -47t59.5 -16.5q79 0 131 117v15.5v19v15.5z" />
    <glyph glyph-name="beta" unicode="&#x3b2;" horiz-adv-x="611" 
d="M96 -229l-12 5q-10 109 -10 231v531q0 113 57.5 178.5t174.5 65.5q84 0 144 -48.5t60 -141.5q0 -106 -82 -159v-2q56 -13 96 -65.5t40 -136.5q0 -106 -70 -174.5t-180 -68.5q-44 0 -84 13t-61 27h-2q0 -54 4.5 -113t9.5 -91l5 -33zM368 395q-51 -36 -83 -36q-33 0 -49 17
t-16 39q0 27 16.5 44t48.5 17q42 0 76 -29q20 18 31 31t22.5 43t11.5 68q0 73 -37.5 103.5t-84.5 30.5q-37 0 -63.5 -13t-40.5 -31t-22 -46t-9.5 -49.5t-1.5 -50.5v-440q19 -19 60 -32t82 -13q68 0 111 45.5t43 124.5q0 131 -95 177z" />
    <glyph glyph-name="gamma" unicode="&#x3b3;" horiz-adv-x="572" 
d="M513 501q16 -135 -47 -274.5t-175 -219.5q20 -145 12 -185l-12.5 -2.5t-27 -4t-33.5 -1.5q-45 76 -15 183q-18 254 -46.5 351.5t-94.5 97.5q-18 0 -42 -8l-10 38q11 12 39.5 26t61.5 14q34 0 57.5 -12.5t41 -39.5t28.5 -79t18.5 -121.5t13.5 -176.5q81 78 119 203.5
t18 216.5h81z" />
    <glyph glyph-name="delta" unicode="&#x3b4;" horiz-adv-x="559" 
d="M47 218q0 93 50.5 157t132.5 89q-62 47 -90.5 82.5t-28.5 81.5q0 64 49.5 109t145.5 45q95 0 148.5 -40.5t53.5 -94.5q0 -68 -63 -68q-22 0 -39.5 11t-17.5 34q0 24 28 69q-39 28 -116 28q-55 0 -80.5 -23t-25.5 -54t24.5 -56t109.5 -83q44 -31 70 -52.5t58 -56.5t47 -77
t15 -93q0 -108 -70 -174t-170 -66q-110 0 -170.5 60t-60.5 172zM420 219q-1 80 -37 128.5t-102 85.5q-64 -22 -99 -79.5t-35 -139.5q0 -83 37 -124.5t102 -41.5q51 0 83 32t41 67t10 72z" />
    <glyph glyph-name="epsilon" unicode="&#x3b5;" horiz-adv-x="543" 
d="M271 -14q-96 0 -155 38.5t-59 105.5q0 89 107 128v1q-98 31 -98 111q0 67 58 109t157 42q96 0 152.5 -35t56.5 -96q0 -25 -15.5 -41.5t-47.5 -16.5q-56 0 -56 42q0 19 26 64q-40 22 -124 22q-117 0 -117 -87q0 -30 21.5 -53t57.5 -34q35 27 67 27q26 0 43 -14.5t17 -36.5
t-16.5 -38t-43.5 -16q-38 0 -72 27q-72 -23 -72 -86q0 -43 40.5 -64.5t103.5 -21.5q102 0 163 63l34 -35q-27 -38 -85 -71.5t-143 -33.5z" />
    <glyph glyph-name="zeta" unicode="&#x3b6;" horiz-adv-x="464" 
d="M464 717l-1 -14q-94 -79 -162 -155.5t-103 -138.5t-51 -110t-16 -87q0 -56 36 -87t115 -47q95 -19 132 -51.5t37 -93.5q0 -42 -28.5 -88.5t-66.5 -78.5l-40 31q49 65 49 107q0 14 -3 24t-13 23t-33.5 23t-60.5 17q-114 22 -161 66.5t-47 126.5q0 108 72.5 238.5
t164.5 229.5q-48 -5 -81 -5q-68 0 -106.5 19t-38.5 72q0 24 15.5 44t48.5 20q25 0 41 -13.5t16 -35.5q0 -8 -15 -41q18 -12 91 -12q36 0 80 4q34 37 67 66z" />
    <glyph glyph-name="eta" unicode="&#x3b7;" horiz-adv-x="614" 
d="M540 350v-343q0 -54 -2.5 -112t-5.5 -89l-2 -30l-12 -5l-90 18q19 116 19 237v295q0 65 -19 96.5t-82 31.5q-51 0 -91 -35.5t-40 -103.5v-310h-93v397q0 28 -7.5 38.5t-27.5 10.5t-42 -8l-10 38q42 40 94 40q34 0 52.5 -20.5t22.5 -77.5h3q59 103 171 103q162 0 162 -171
z" />
    <glyph glyph-name="theta" unicode="&#x3b8;" horiz-adv-x="588" 
d="M52 387q0 190 64 292.5t185 102.5q235 0 235 -397q0 -85 -13.5 -155t-41.5 -126t-76.5 -87t-113.5 -31q-239 0 -239 401zM298 48q141 0 141 304l-291 -14q10 -290 150 -290zM289 723q-65 0 -102.5 -72t-38.5 -226h291q-5 298 -150 298z" />
    <glyph glyph-name="iota" unicode="&#x3b9;" horiz-adv-x="320" 
d="M69 508l92 8l11 -5q-16 -208 -16 -371q0 -45 14 -63t59 -18q38 0 61 8l10 -41q-40 -40 -117 -40q-30 0 -51 10t-32 23.5t-17 36.5t-7.5 41.5t-1.5 45.5z" />
    <glyph glyph-name="kappa" unicode="&#x3ba;" horiz-adv-x="577" 
d="M161 516l11 -5q-11 -179 -14 -293l169 214q41 52 67 70.5t57 18.5q36 0 57 -18.5t21 -48.5q0 -32 -17.5 -48.5t-46.5 -16.5q-49 0 -52 44q-14 -5 -55 -58l-52 -67q26 -65 100 -191q21 -35 36.5 -45t43.5 -10q20 0 46 8l10 -41q-43 -40 -95 -40q-39 0 -62.5 16.5
t-53.5 66.5q-14 23 -40 77.5t-40 89.5l-95 -117l3 -122h-82l-8 508z" />
    <glyph glyph-name="lambda" unicode="&#x3bb;" horiz-adv-x="608" 
d="M382 112l-79 299l-164 -411h-92l-13 6l240 516l-32 122q-19 75 -95 75q-29 0 -46 -7q24 -33 24 -57q0 -16 -13.5 -28.5t-41.5 -12.5q-31 0 -44 18.5t-13 43.5q0 53 41.5 79.5t102.5 26.5q68 0 109 -34t60 -103l139 -516q11 -40 26.5 -55t39.5 -15q19 0 45 8l10 -41
q-40 -40 -92 -40q-46 0 -69 25.5t-43 100.5z" />
    <glyph glyph-name="uni03BC" unicode="&#x3bc;" horiz-adv-x="621" 
d="M167 23h-2q0 -54 7.5 -112.5t15.5 -90.5l8 -31l-90 -18l-12 5q-10 106 -10 228l-10 504l92 8l12 -5q-11 -182 -11 -421q15 -15 42 -23.5t49 -8.5q64 0 101.5 38t37.5 101l-4 311l92 8l12 -5q0 -1 -5 -53.5t-9 -122t-4 -144.5q0 -82 10.5 -107t53.5 -25q16 0 43 8l10 -41
q-40 -40 -94 -40q-26 0 -43 8.5t-27 27.5t-14 32t-9 39h-3q-21 -52 -60.5 -79.5t-84.5 -27.5q-59 0 -94 37z" />
    <glyph glyph-name="nu" unicode="&#x3bd;" horiz-adv-x="582" 
d="M290 -18l-72 11q-14 251 -46.5 352t-99.5 101q-13 0 -40 -8l-10 38q12 12 41 26t63 14q32 0 55.5 -11t40.5 -38.5t27.5 -59t18.5 -89t12 -110.5t9 -140q89 103 123.5 224t16.5 215h81l13 -6q8 -84 -9.5 -165.5t-54 -147t-79 -116.5t-90.5 -90z" />
    <glyph glyph-name="xi" unicode="&#x3be;" horiz-adv-x="494" 
d="M85 507q0 90 93 162q-20 -4 -36 -4q-25 0 -42.5 2.5t-38.5 10t-32 25.5t-11 45q0 24 15.5 44t48.5 20q25 0 41 -13.5t16 -35.5q0 -8 -15 -41q18 -12 91 -12h27q81 44 167 64l39 -63v-12q-116 -32 -179.5 -66t-81.5 -61.5t-18 -65.5q0 -37 23.5 -62.5t67.5 -34.5
q52 34 86 34q35 0 56.5 -18.5t21.5 -42.5q0 -30 -19.5 -50t-50.5 -20q-26 0 -44.5 5.5t-49.5 23.5q-125 -53 -125 -137q0 -52 35 -79.5t129 -48.5q95 -21 132.5 -53.5t37.5 -89.5q0 -42 -28.5 -88.5t-66.5 -78.5l-40 31q49 65 49 107q0 28 -25 49.5t-95 37.5q-41 9 -65.5 16
t-56 21.5t-49 32t-30 46.5t-12.5 67q0 73 48 124t108 70v2q-121 39 -121 137z" />
    <glyph glyph-name="omicron" unicode="&#x3bf;" horiz-adv-x="577" 
d="M47 241q0 128 66.5 204t186.5 76q105 0 168 -70.5t63 -184.5q0 -132 -69.5 -206t-175.5 -74q-108 0 -173.5 68.5t-65.5 186.5zM148 271q0 -99 39 -161t113 -62q59 0 94 50t35 144q0 101 -41 160.5t-104 59.5t-99.5 -49t-36.5 -142z" />
    <glyph glyph-name="pi" unicode="&#x3c0;" horiz-adv-x="671" 
d="M598 423h-108v-291q0 -41 16.5 -58.5t63.5 -17.5q18 0 46 8l10 -38q-42 -40 -105 -40q-64 0 -93 36.5t-29 109.5q0 93 18 291h-170l-57 -423l-92 -8l-13 6l90 425h-140l10 60q50 16 119 19l448 5v-70z" />
    <glyph glyph-name="rho" unicode="&#x3c1;" horiz-adv-x="577" 
d="M155 26h-2q0 -54 4.5 -113t9.5 -91l5 -33l-90 -18l-12 5q-10 109 -10 231v266q0 115 64 181.5t168 66.5q112 0 175 -68t63 -192q0 -121 -59.5 -198t-180.5 -77q-37 0 -76 13t-59 27zM287 462q-134 0 -134 -170v-199q18 -19 56 -32t72 -13q53 0 87.5 32t47.5 77.5
t13 102.5q0 98 -36.5 150t-105.5 52z" />
    <glyph glyph-name="uni03C2" unicode="&#x3c2;" horiz-adv-x="499" 
d="M255 -9q-45 10 -77 23t-64.5 38.5t-49.5 69t-17 105.5q0 125 60.5 209.5t183.5 84.5q76 0 127.5 -37t51.5 -94q0 -28 -16.5 -46.5t-49.5 -18.5q-59 0 -59 48q0 21 28 68q-38 24 -90 24q-67 0 -101 -62t-34 -158q0 -69 25.5 -108.5t108.5 -58.5q95 -21 132 -53t37 -92
q0 -42 -28.5 -88.5t-66.5 -78.5l-40 31q49 65 49 107q0 14 -3 24t-13 23t-33.5 23t-60.5 17z" />
    <glyph glyph-name="sigma" unicode="&#x3c3;" horiz-adv-x="629" 
d="M531 241q0 -106 -66 -180.5t-179 -74.5q-109 0 -174 66t-65 182q0 124 71.5 198.5t217.5 74.5h248v-73l-14 -14h-132v-2q93 -41 93 -177zM355 420h-46q-161 0 -161 -176q0 -81 38.5 -138.5t113.5 -57.5q67 0 100.5 47t33.5 133q0 128 -79 192z" />
    <glyph glyph-name="tau" unicode="&#x3c4;" horiz-adv-x="529" 
d="M475 423h-198q-8 -133 -8 -263q0 -101 76 -101q50 0 97 32l22 -36q-65 -69 -149 -69q-72 0 -101.5 37.5t-29.5 109.5q0 76 22 290h-176l10 60q50 16 119 19l330 5v-70z" />
    <glyph glyph-name="upsilon" unicode="&#x3c5;" horiz-adv-x="600" 
d="M117 189q0 53 5 114t5 97q0 46 -40 46q-20 0 -42 -8l-10 38q43 40 94 40q37 0 62 -22.5t25 -67.5q0 -39 -5 -98t-5 -108q0 -166 117 -166q68 0 96.5 52t28.5 154q0 104 -59 237l86 18l13 -6q56 -120 56 -249t-59.5 -201.5t-167.5 -72.5q-98 0 -149 52t-51 151z" />
    <glyph glyph-name="phi" unicode="&#x3c6;" horiz-adv-x="762" 
d="M412 -219h-71l-2 205q-132 6 -212 73t-80 191q0 111 70.5 185.5t219.5 85.5l-2 180l85 10l13 -6l-5 -184q128 -6 208 -72.5t80 -186.5q0 -131 -83 -201t-216 -76zM147 271q0 -204 192 -222l-2 415q-90 -3 -140 -52.5t-50 -140.5zM616 243q0 195 -189 215l-9 -415
q93 1 145.5 50.5t52.5 149.5z" />
    <glyph glyph-name="chi" unicode="&#x3c7;" horiz-adv-x="594" 
d="M322 229l129 278h90l13 -6l-201 -342l59 -152q41 -107 60 -133q25 -34 62 -34q18 0 45 8l10 -41q-15 -14 -23.5 -20t-26.5 -13t-39 -7q-63 0 -91 31t-63 133l-48 140l-125 -290h-90l-13 6l198 354l-68 170q-34 86 -54.5 110.5t-64.5 24.5q-21 0 -40 -8l-10 38
q38 40 100 40q60 0 86 -29t52 -103z" />
    <glyph glyph-name="psi" unicode="&#x3c8;" horiz-adv-x="771" 
d="M439 -219h-72l-2 205q-248 0 -248 203q0 41 5 111.5t5 100.5q0 45 -40 45q-20 0 -42 -8l-10 38q42 40 95 40q39 0 62.5 -24.5t23.5 -63.5q0 -25 -5 -98.5t-5 -123.5q0 -77 33 -114.5t126 -37.5l-3 647l84 10l13 -6l-14 -651q75 0 124.5 49.5t49.5 158.5q0 102 -59 235
l86 18l13 -6q56 -118 56 -246q0 -123 -73 -200t-199 -77z" />
    <glyph glyph-name="omega" unicode="&#x3c9;" horiz-adv-x="793" 
d="M431 163q39 -105 115 -105q49 0 73.5 46t24.5 126q0 63 -28 137.5t-72 125.5l80 22l12 -3q41 -41 72.5 -118t31.5 -158q0 -112 -50.5 -181t-135.5 -69q-53 0 -94 28.5t-59 80.5h-3q-12 -40 -56.5 -74.5t-106.5 -34.5q-83 0 -133 65t-50 172q0 93 44.5 171.5t109.5 119.5
l40 -27q-95 -121 -95 -272q0 -68 24.5 -112.5t76.5 -44.5q76 0 115 105q-38 62 -38 105q0 42 20 68.5t48 26.5t50 -26t22 -69q0 -41 -38 -105z" />
    <glyph glyph-name="iotadieresis" unicode="&#x3ca;" horiz-adv-x="320" 
d="M69 508l92 8l11 -5q-16 -208 -16 -371q0 -45 14 -63t59 -18q38 0 61 8l10 -41q-40 -40 -117 -40q-30 0 -51 10t-32 23.5t-17 36.5t-7.5 41.5t-1.5 45.5zM-49 682q0 27 18 45t45 18q28 0 46.5 -17.5t18.5 -44.5t-18.5 -45t-46.5 -18q-27 0 -45 17.5t-18 44.5zM149 682
q0 27 18 45t46 18t46 -17.5t18 -44.5t-18 -45t-46 -18t-46 17.5t-18 44.5z" />
    <glyph glyph-name="upsilondieresis" unicode="&#x3cb;" horiz-adv-x="600" 
d="M117 189q0 53 5 114t5 97q0 46 -40 46q-20 0 -42 -8l-10 38q43 40 94 40q37 0 62 -22.5t25 -67.5q0 -39 -5 -98t-5 -108q0 -166 117 -166q68 0 96.5 52t28.5 154q0 104 -59 237l86 18l13 -6q56 -120 56 -249t-59.5 -201.5t-167.5 -72.5q-98 0 -149 52t-51 151zM137 682
q0 27 18 45t45 18q28 0 46.5 -17.5t18.5 -44.5t-18.5 -45t-46.5 -18q-27 0 -45 17.5t-18 44.5zM335 682q0 27 18 45t46 18t46 -17.5t18 -44.5t-18 -45t-46 -18t-46 17.5t-18 44.5z" />
    <glyph glyph-name="omicrontonos" unicode="&#x3cc;" horiz-adv-x="577" 
d="M47 241q0 128 66.5 204t186.5 76q105 0 168 -70.5t63 -184.5q0 -132 -69.5 -206t-175.5 -74q-108 0 -173.5 68.5t-65.5 186.5zM148 271q0 -99 39 -161t113 -62q59 0 94 50t35 144q0 101 -41 160.5t-104 59.5t-99.5 -49t-36.5 -142zM267 591l67 163q9 23 19.5 33t29.5 10
q40 0 63 -51l-1 -14l-143 -159z" />
    <glyph glyph-name="upsilontonos" unicode="&#x3cd;" horiz-adv-x="600" 
d="M117 189q0 53 5 114t5 97q0 46 -40 46q-20 0 -42 -8l-10 38q43 40 94 40q37 0 62 -22.5t25 -67.5q0 -39 -5 -98t-5 -108q0 -166 117 -166q68 0 96.5 52t28.5 154q0 104 -59 237l86 18l13 -6q56 -120 56 -249t-59.5 -201.5t-167.5 -72.5q-98 0 -149 52t-51 151zM272 591
l67 163q9 23 19.5 33t29.5 10q40 0 63 -51l-1 -14l-143 -159z" />
    <glyph glyph-name="omegatonos" unicode="&#x3ce;" horiz-adv-x="799" 
d="M431 163q39 -105 115 -105q49 0 73.5 46t24.5 126q0 63 -28 137.5t-72 125.5l80 22l12 -3q41 -41 72.5 -118t31.5 -158q0 -112 -50.5 -181t-135.5 -69q-53 0 -94 28.5t-59 80.5h-3q-12 -40 -56.5 -74.5t-106.5 -34.5q-83 0 -133 65t-50 172q0 93 44.5 171.5t109.5 119.5
l40 -27q-95 -121 -95 -272q0 -68 24.5 -112.5t76.5 -44.5q76 0 115 105q-38 62 -38 105q0 42 20 68.5t48 26.5t50 -26t22 -69q0 -41 -38 -105zM371 591l67 163q9 23 19.5 33t29.5 10q40 0 63 -51l-1 -14l-143 -159z" />
    <glyph glyph-name="uni03D7" unicode="&#x3d7;" horiz-adv-x="571" 
d="M177 511l-14 -290q27 49 58.5 96t71 95.5t82 78.5t78.5 30q34 0 53.5 -19t19.5 -52q0 -29 -17.5 -45t-43.5 -16q-52 0 -58 45q-32 -18 -51.5 -54t-19.5 -74q0 -27 15 -55t29 -43t47 -48q34 -34 53.5 -57.5t37.5 -65.5t18 -87q0 -32 -9.5 -60.5t-31 -57t-65.5 -45
t-105 -16.5q-47 0 -74 10v53h9q58 0 97 9t57.5 26t25.5 35.5t7 43.5q0 20 -14 44t-25 36t-41 44q-31 32 -48.5 53.5t-34 55.5t-16.5 66q0 26 11 47q-63 -84 -121 -186l-5 -108h-79v508l93 8z" />
    <glyph glyph-name="uni03D8" unicode="&#x3d8;" horiz-adv-x="779" 
d="M59 336q0 79 18.5 143t50.5 107t75.5 72.5t91.5 42.5t101 13q138 0 230.5 -90.5t92.5 -255.5q0 -162 -79 -261.5t-203 -116.5l12 -201l-90 -8l-12 5q3 140 4 202q-135 12 -213.5 108t-78.5 240zM165 357q0 -123 49 -202.5t136 -96.5l-4 157l87 11l13 -6q-9 -114 -9 -164
q83 13 128 86t45 207q0 145 -61.5 223t-165.5 78q-99 0 -158.5 -72t-59.5 -221z" />
    <glyph glyph-name="uni03D9" unicode="&#x3d9;" horiz-adv-x="587" 
d="M47 242q0 141 74 210t183 69q104 0 170.5 -66t66.5 -188q0 -120 -58 -193t-153 -85l9 -144l-73 -6l-10 4q3 95 4 145q-102 9 -157.5 78.5t-55.5 175.5zM148 272q0 -87 28.5 -143.5t82.5 -73.5l-3 82l70 9l11 -5l-7 -91q52 9 80.5 58.5t28.5 134.5q0 103 -41 161t-110 58
q-65 0 -102.5 -47t-37.5 -143z" />
    <glyph glyph-name="uni03DA" unicode="&#x3da;" horiz-adv-x="668" 
d="M387 650q-112 0 -166.5 -78.5t-54.5 -219.5q0 -64 20 -112.5t58 -79.5t75.5 -49t90.5 -34q91 -28 124 -59.5t33 -76.5q0 -69 -86 -166l-41 13q38 73 38 111q0 27 -22 46t-73 34q-79 25 -133 51.5t-100 67t-68.5 100.5t-22.5 141q0 170 87 272.5t245 102.5
q68 0 115.5 -16.5t69 -43t30 -48t8.5 -41.5q0 -31 -19 -52t-55 -21q-67 0 -67 54q0 24 32 77q-39 27 -118 27z" />
    <glyph glyph-name="uni03DB" unicode="&#x3db;" horiz-adv-x="504" 
d="M294 443q-146 0 -146 -175q0 -71 36.5 -114.5t118.5 -68.5q83 -26 108.5 -50t25.5 -65q0 -62 -78 -151l-38 12q35 65 35 101q0 24 -15 36.5t-63 27.5q-127 39 -179 99.5t-52 153.5q0 127 69 199.5t184 72.5h15q38 0 53.5 0.5t32 5t21.5 14t5 26.5l30 7q18 -29 18 -69
q0 -15 -4 -26t-15.5 -18t-21 -10.5t-33.5 -5.5t-38.5 -2h-49.5h-19z" />
    <glyph glyph-name="uni03DC" unicode="&#x3dc;" horiz-adv-x="615" 
d="M62 0v48l58 9q20 3 25.5 14.5t5.5 36.5v488q0 25 -6 34t-27 13l-56 9v48h474l36 -179l-52 -18q-33 89 -63 116t-103 27h-104v-279h87q55 0 68 11t25 71l46 6v-247l-46 -8q-12 73 -24 89t-69 16h-87v-199q0 -26 7 -36.5t30 -13.5l70 -8v-48h-295z" />
    <glyph glyph-name="uni03DD" unicode="&#x3dd;" horiz-adv-x="387" 
d="M129 108v336h-80v50l80 10v41q0 111 47.5 174t136.5 63q60 0 100 -25.5t40 -70.5q0 -27 -16 -46.5t-44 -19.5q-55 0 -55 39q0 17 25 59q-23 12 -54 12q-45 0 -66 -30.5t-21 -100.5v-92h146v-63h-146v-325l5 -119l-87 -8l-12 5q1 77 1 111z" />
    <glyph glyph-name="uni03DE" unicode="&#x3de;" horiz-adv-x="553" 
d="M388 269l-300 -157l-38 60l93 145q84 132 84 180q0 35 -37 35q-20 0 -42 -8l-8 36q36 40 89 40q44 0 66 -24t22 -59q0 -34 -20.5 -73.5t-63.5 -102.5l-68 -99l300 157l38 -60l-107 -167q-70 -111 -70 -158q0 -35 37 -35q20 0 42 8l8 -36q-36 -40 -90 -40
q-38 0 -62.5 21.5t-24.5 62.5q0 33 21 73.5t69 110.5z" />
    <glyph glyph-name="uni03DF" unicode="&#x3df;" horiz-adv-x="465" 
d="M415 287v-30l-100 -129q-1 -2 -9 -12.5t-10.5 -13.5t-9 -12.5t-9 -14t-6 -12t-5 -14t-1.5 -12.5q0 -34 36 -34q20 0 40 8l7 -36q-34 -34 -88 -34q-36 0 -60 18.5t-24 53.5q0 26 13.5 51t49.5 72l58 74h-247v30l100 129q50 65 50 91q0 34 -36 34q-20 0 -40 -8l-7 36
q34 34 87 34q37 0 61 -18.5t24 -53.5q0 -43 -56 -114l-65 -83h247z" />
    <glyph glyph-name="uni03E0" unicode="&#x3e0;" horiz-adv-x="738" 
d="M673 -172l-87 2q5 103 5 133q0 104 -18 179l-296 -215q-21 -19 -13 -34l17 -33l-33 -22l-104 149l32 20l18 -18q14 -13 21 -12.5t22 11.5l311 230q-26 60 -73 107l-314 -230q-22 -17 -14 -34l18 -33l-34 -22l-103 149l32 20l18 -18q13 -13 20 -12.5t22 11.5l293 217
q-106 64 -278 67l3 72q149 -1 255.5 -41t168.5 -114.5t90 -170.5t28 -221q0 -71 -7 -137z" />
    <glyph glyph-name="uni03E1" unicode="&#x3e1;" horiz-adv-x="573" 
d="M138 465l20 60q180 -48 273.5 -168.5t93.5 -299.5q0 -139 -60 -304l-73 20q51 138 51 265q0 17 -1 27l-244 -98q-22 -11 -18 -26l7 -32l-32 -11l-59 151l33 13l15 -26q6 -10 13 -10.5t18 5.5l261 106q-7 54 -31 108l-269 -108q-23 -11 -19 -26l7 -33l-32 -11l-58 151
l32 13l15 -26q6 -10 13 -10.5t18 5.5l260 106q-72 111 -234 159z" />
    <glyph glyph-name="uni0400" unicode="&#x400;" horiz-adv-x="637" 
d="M337 325h-87v-271h129q72 0 100.5 24.5t49.5 105.5h55l-24 -184h-498v48l58 9q20 3 25.5 14.5t5.5 36.5v488q0 25 -6 34t-27 13l-56 9v48h463l37 -163l-52 -17q-30 79 -60 102.5t-103 23.5h-97v-259h87h24.5t19 2t14 2t10 6t7 6.5t5 11l4.5 13.5t4.5 19t4.5 22l46 6v-227
l-46 -8q-9 60 -21.5 72.5t-71.5 12.5zM284 899l131 -119l-20 -28l-151 66q-42 18 -42 56q0 18 12.5 33t30.5 15q13 0 39 -23z" />
    <glyph glyph-name="uni0401" unicode="&#x401;" horiz-adv-x="637" 
d="M337 325h-87v-271h129q72 0 100.5 24.5t49.5 105.5h55l-24 -184h-498v48l58 9q20 3 25.5 14.5t5.5 36.5v488q0 25 -6 34t-27 13l-56 9v48h463l37 -163l-52 -17q-30 79 -60 102.5t-103 23.5h-97v-259h87h24.5t19 2t14 2t10 6t7 6.5t5 11l4.5 13.5t4.5 19t4.5 22l46 6v-227
l-46 -8q-9 60 -21.5 72.5t-71.5 12.5zM161 834q0 28 18 46t46 18q29 0 47.5 -17.5t18.5 -45.5t-18.5 -46t-47.5 -18q-28 0 -46 17.5t-18 45.5zM363 834q0 28 18.5 46t46.5 18q29 0 47 -17.5t18 -45.5t-18.5 -46t-46.5 -18q-29 0 -47 17.5t-18 45.5z" />
    <glyph glyph-name="uni0402" unicode="&#x402;" horiz-adv-x="832" 
d="M648 700l37 -200l-55 -13q-32 99 -62 128.5t-104 29.5h-106v-302q97 74 209 74q103 0 162 -58t59 -159q0 -198 -205 -309l-28 41q60 48 95 106.5t35 147.5q0 163 -145 163q-50 0 -101 -22t-81 -52v-169q0 -19 1 -26t7.5 -13.5t20.5 -8.5l59 -10v-48h-276v48l56 9
q20 3 26.5 15t6.5 37v536h-26q-74 0 -105 -29.5t-64 -128.5l-54 13l39 200h599z" />
    <glyph glyph-name="uni0403" unicode="&#x403;" horiz-adv-x="604" 
d="M62 0v48l58 9q20 3 25.5 14.5t5.5 36.5v488q0 25 -6 34t-27 13l-56 9v48h476l36 -179l-52 -18q-33 89 -63 116t-103 27h-106v-540q0 -26 7 -36.5t30 -13.5l70 -8v-48h-295zM265 780l131 119q26 23 39 23q18 0 30.5 -15t12.5 -33q0 -38 -42 -56l-151 -66z" />
    <glyph glyph-name="uni0404" unicode="&#x404;" horiz-adv-x="669" 
d="M504 390v-60h-337q5 -118 61.5 -195t153.5 -77q68 0 116 28t87 84l47 -34q-36 -61 -102.5 -104t-157.5 -43q-80 0 -141.5 29.5t-97.5 80.5t-54.5 112.5t-18.5 131.5q0 171 86 269t222 98q102 0 163 -61l10 63h49l29 -213l-54 -12q-29 89 -76.5 126t-117.5 37
q-92 0 -144.5 -68.5t-59.5 -191.5h337z" />
    <glyph glyph-name="uni0405" unicode="&#x405;" horiz-adv-x="613" 
d="M308 659q-53 0 -86.5 -30t-33.5 -80q0 -51 37.5 -82.5t90.5 -48.5t106 -37.5t90.5 -65t37.5 -115.5q0 -84 -57.5 -149t-166.5 -65q-59 0 -105.5 20t-74.5 47l-16 -59h-44l-20 216l57 5q61 -165 200 -165q63 0 96.5 30.5t33.5 84.5q0 48 -27 80t-67 46t-87 31.5t-87 36
t-67 60t-27 102.5q0 80 55.5 136.5t158.5 56.5q87 0 148 -52l13 52h47l22 -202l-56 -8q-25 86 -68.5 120.5t-102.5 34.5z" />
    <glyph glyph-name="uni0406" unicode="&#x406;" horiz-adv-x="401" 
d="M151 108v488q0 25 -6 34t-27 13l-60 9v48h285v-48l-63 -9q-19 -3 -24.5 -14.5t-5.5 -36.5v-488q0 -25 5.5 -34t26.5 -13l61 -9v-48h-285v48l62 9q20 3 25.5 14.5t5.5 36.5z" />
    <glyph glyph-name="uni0407" unicode="&#x407;" horiz-adv-x="401" 
d="M151 108v488q0 25 -6 34t-27 13l-60 9v48h285v-48l-63 -9q-19 -3 -24.5 -14.5t-5.5 -36.5v-488q0 -25 5.5 -34t26.5 -13l61 -9v-48h-285v48l62 9q20 3 25.5 14.5t5.5 36.5zM35 834q0 28 18 46t46 18q29 0 47.5 -17.5t18.5 -45.5t-18.5 -46t-47.5 -18q-28 0 -46 17.5
t-18 45.5zM237 834q0 28 18.5 46t46.5 18q29 0 47 -17.5t18 -45.5t-18.5 -46t-46.5 -18q-29 0 -47 17.5t-18 45.5z" />
    <glyph glyph-name="uni0408" unicode="&#x408;" horiz-adv-x="575" 
d="M243 50q55 0 80 37.5t25 113.5v393q0 25 -6 34.5t-27 12.5l-70 10v49h295v-48l-63 -9q-19 -3 -24.5 -14t-5.5 -37v-368q0 -44 -9 -82t-30.5 -75t-65 -59t-105.5 -22q-74 0 -126.5 32.5t-52.5 89.5q0 34 20.5 58t54.5 24q31 0 47 -12.5t16 -32.5q0 -21 -30 -71
q27 -24 77 -24z" />
    <glyph glyph-name="uni0409" unicode="&#x409;" horiz-adv-x="1010" 
d="M131 652v48h560v-48l-57 -9q-18 -4 -24 -14t-7 -35v-193q23 5 99 5q45 0 87.5 -9t84 -29t66.5 -60t25 -94q0 -214 -284 -214h-265v48l57 9q20 3 25.5 14.5t5.5 36.5v529h-218q0 -114 -12 -286q-25 -364 -184 -364q-30 0 -52.5 19t-22.5 53q0 32 15 51.5t42 19.5
q7 0 14 -2t11 -4t11 -8.5t9.5 -9.5t11.5 -13t12 -14q25 21 43 79q36 119 36 438q0 22 -9.5 31t-33.5 15zM603 345v-291h71q184 0 184 147q0 149 -177 149q-61 0 -78 -5z" />
    <glyph glyph-name="uni040A" unicode="&#x40a;" horiz-adv-x="1071" 
d="M580 108v220h-330v-224q0 -25 5.5 -34t26.5 -13l56 -9v-48h-276v48l58 9q20 3 25.5 14.5t5.5 36.5v488q0 25 -6 34t-27 13l-56 9v48h276v-48l-58 -9q-19 -3 -24.5 -14.5t-5.5 -36.5v-201h330v205q0 25 -6 34t-27 13l-55 9v48h275v-48l-57 -9q-20 -3 -25.5 -14.5
t-5.5 -36.5v-191q23 5 84 5q45 0 87.5 -9t84 -29t66.5 -60t25 -94q0 -214 -284 -214h-250v48l57 9q20 3 25.5 14.5t5.5 36.5zM679 345v-291h56q184 0 184 147q0 149 -177 149q-46 0 -63 -5z" />
    <glyph glyph-name="uni040B" unicode="&#x40b;" horiz-adv-x="936" 
d="M668 700l36 -180l-55 -13q-16 50 -28.5 76.5t-33 41t-41 17.5t-62.5 3h-106v-268q104 64 216 64q213 0 213 -202v-135q0 -25 6 -34t27 -13l56 -9v-48h-276v48l58 9q19 3 24.5 14.5t5.5 36.5v120q0 150 -137 150q-88 0 -193 -64v-217q0 -20 5.5 -28t23.5 -11l59 -10v-48
h-276v48l56 9q20 3 26.5 14.5t6.5 36.5v537h-26q-74 0 -105 -29.5t-64 -128.5l-54 13l39 200h599z" />
    <glyph glyph-name="uni040C" unicode="&#x40c;" horiz-adv-x="725" 
d="M155 108v488q0 25 -6 34t-27 13l-60 9v48h285v-48l-63 -9q-19 -3 -24.5 -14t-5.5 -37v-215h20q55 1 76 13q41 23 63.5 55t45.5 104q12 37 20 56.5t25 48t41.5 42t56.5 13.5q36 0 59.5 -20t23.5 -50q0 -28 -19 -50t-44 -22q-22 0 -36 14.5t-28 42.5q-15 -19 -23.5 -39
t-29.5 -84q-36 -110 -120 -142v-3q112 -4 169 -144q4 -11 11.5 -29.5t11.5 -28t10.5 -24.5t10.5 -22.5t10.5 -18.5t11.5 -16t11.5 -10.5t13.5 -7.5t15 -2q22 0 44 11l11 -35q-25 -25 -48 -34t-58 -9q-24 0 -44 11t-32.5 22.5t-27 39t-19.5 39.5t-18 45q-39 100 -70 141.5
t-89 41.5h-55v-222q0 -25 5.5 -34t26.5 -13l61 -9v-48h-285v48l62 9q20 3 25.5 14.5t5.5 36.5zM365 780l131 119q26 23 39 23q18 0 30.5 -15t12.5 -33q0 -38 -42 -56l-151 -66z" />
    <glyph glyph-name="uni040D" unicode="&#x40d;" horiz-adv-x="840" 
d="M590 108v365l-340 -331v-38q0 -25 5.5 -34t26.5 -13l56 -9v-48h-276v48l58 9q20 3 25.5 14.5t5.5 36.5v488q0 25 -6 34t-27 13l-56 9v48h276v-48l-58 -9q-19 -3 -24.5 -14.5t-5.5 -36.5v-368l340 333v39q0 25 -6 34t-27 13l-55 9v48h275v-48l-57 -9q-20 -3 -25.5 -14.5
t-5.5 -36.5v-488q0 -25 6 -34t27 -13l55 -9v-48h-275v48l57 9q20 3 25.5 14.5t5.5 36.5zM354 899l131 -119l-20 -28l-151 66q-42 18 -42 56q0 18 12.5 33t30.5 15q13 0 39 -23z" />
    <glyph glyph-name="uni040E" unicode="&#x40e;" horiz-adv-x="664" 
d="M451 842q-18 31 -18 68q0 17 14 27.5t41 10.5q28 0 43 -19t15 -46q0 -48 -58 -73.5t-127 -25.5q-41 0 -80 8t-72 31.5t-33 59.5q0 27 15 46t43 19q55 0 55 -38q0 -37 -18 -68q23 -13 89 -13q65 0 91 13zM674 652l-49 -8q-39 -6 -57 -55q-10 -28 -33.5 -93t-39 -106.5
t-40 -102.5t-47.5 -113q-19 -42 -32 -66t-36 -57t-52.5 -49t-65.5 -16q-31 0 -56 16t-25 46q0 31 18.5 51.5t43.5 20.5q20 0 33.5 -12t37.5 -43q12 8 29.5 32.5t28.5 59.5l-220 434q-13 25 -25.5 36t-34.5 15l-37 7v51h274v-48l-55 -7q-42 -5 -19 -50l164 -332h5
q39 93 117 328q9 25 6 36t-23 15l-46 11v47h236v-48z" />
    <glyph glyph-name="uni040F" unicode="&#x40f;" horiz-adv-x="844" 
d="M250 63h340v529q0 25 -5.5 36.5t-25.5 14.5l-57 9v48h275v-48l-55 -9q-21 -4 -27 -13t-6 -34v-492q0 -25 5.5 -34t26.5 -13l61 -9v-48h-309l-23 -155h-51l-28 155h-309v48l56 9q21 4 27 13t6 34v488q0 25 -5.5 36.5t-25.5 14.5l-58 9v48h276v-48l-56 -9q-21 -4 -26.5 -13
t-5.5 -34v-533z" />
    <glyph glyph-name="uni0410" unicode="&#x410;" horiz-adv-x="735" 
d="M530 105l-43 126h-268l-42 -122q-9 -26 -4 -37.5t27 -16.5l57 -8v-47h-242v48l48 8q18 4 26 14t20 40l211 590h106l209 -591q11 -29 17.5 -37.5t26.5 -13.5l41 -8v-50h-267v48l58 7q20 3 24.5 13.5t-5.5 36.5zM353 617l-114 -329h229l-111 329h-4z" />
    <glyph glyph-name="uni0411" unicode="&#x411;" horiz-adv-x="666" 
d="M250 646v-247q66 6 116 5q70 -2 123 -19.5t90 -62.5t37 -114q0 -100 -74.5 -154t-218.5 -54h-261v48l58 9q20 3 25.5 14.5t5.5 36.5v488q0 21 -6.5 32.5t-26.5 14.5l-56 9v48h484l36 -179l-52 -18q-33 89 -63 116t-103 27h-114zM250 343v-283q22 -5 71 -5q188 0 188 147
q0 145 -184 145q-44 0 -75 -4z" />
    <glyph glyph-name="uni0412" unicode="&#x412;" horiz-adv-x="660" 
d="M62 0v48l58 9q20 3 25.5 14.5t5.5 36.5v488q0 25 -6 34t-27 13l-56 9v48h255q125 0 192 -38t67 -128q0 -60 -42.5 -102.5t-102.5 -56.5v-5q88 -8 136.5 -50.5t48.5 -120.5q0 -93 -75 -146t-218 -53h-261zM250 333v-273q22 -5 71 -5q91 0 139.5 37t48.5 110
q0 135 -184 135q-44 0 -75 -4zM250 646v-255q13 -2 55 -2q77 0 120.5 36.5t43.5 104.5q0 67 -40 91.5t-121 24.5h-58z" />
    <glyph glyph-name="uni0413" unicode="&#x413;" horiz-adv-x="604" 
d="M62 0v48l58 9q20 3 25.5 14.5t5.5 36.5v488q0 25 -6 34t-27 13l-56 9v48h476l36 -179l-52 -18q-33 89 -63 116t-103 27h-106v-540q0 -26 7 -36.5t30 -13.5l70 -8v-48h-295z" />
    <glyph glyph-name="uni0414" unicode="&#x414;" horiz-adv-x="725" 
d="M659 652l-55 -9q-21 -4 -27 -13t-6 -34v-532h104v-225h-55l-14 75q-1 4 -3 15t-2.5 14t-2.5 12t-3.5 12t-4 9.5t-5.5 8.5t-7 6t-8.5 5.5t-10.5 2.5t-13 1h-407q-27 0 -42.5 -15.5t-19 -29.5t-8.5 -50q-1 -8 -2 -12l-8 -59h-54v231h101q44 107 61 218.5t17 312.5
q0 25 -6.5 34.5t-26.5 12.5l-60 9v48h568v-48zM472 637h-214q1 -244 -28 -389q-20 -105 -51 -183h293v572z" />
    <glyph glyph-name="uni0415" unicode="&#x415;" horiz-adv-x="637" 
d="M337 325h-87v-271h129q72 0 100.5 24.5t49.5 105.5h55l-24 -184h-498v48l58 9q20 3 25.5 14.5t5.5 36.5v488q0 25 -6 34t-27 13l-56 9v48h463l37 -163l-52 -17q-30 79 -60 102.5t-103 23.5h-97v-259h87h24.5t19 2t14 2t10 6t7 6.5t5 11l4.5 13.5t4.5 19t4.5 22l46 6v-227
l-46 -8q-9 60 -21.5 72.5t-71.5 12.5z" />
    <glyph glyph-name="uni0416" unicode="&#x416;" horiz-adv-x="1024" 
d="M271 545q25 -79 41 -107t53 -48q21 -11 86 -13h11v219q0 25 -6 34t-27 13l-60 9v48h285v-48l-63 -9q-19 -3 -24.5 -14t-5.5 -37v-215h12q65 2 86 13q38 21 53 48t42 107q11 32 15.5 45.5t18 41.5t27 41t36 24.5t49.5 11.5q35 0 59 -20t24 -52q0 -26 -20.5 -48t-45.5 -22
q-15 0 -27 9.5t-18 19t-17 29.5q-15 -17 -24.5 -38.5t-26.5 -80.5q-18 -62 -40 -95t-70 -52v-3q63 -8 95.5 -39t63.5 -105q4 -11 11.5 -29.5t11.5 -28t10.5 -24.5t10.5 -22.5t10.5 -18.5t11.5 -16t11.5 -10.5t13.5 -7.5t15 -2q22 0 44 11l11 -35q-42 -43 -106 -43
q-24 0 -44 11t-32.5 22.5t-27 39t-19.5 39.5t-18 45q-39 100 -70 141.5t-89 41.5h-47v-222q0 -25 5.5 -34t26.5 -13l61 -9v-48h-285v48l62 9q20 3 25.5 14.5t5.5 36.5v218h-46q-58 0 -89 -41.5t-70 -141.5q-14 -36 -23.5 -56t-27 -47.5t-40 -40.5t-50.5 -13q-63 0 -106 43
l11 35q22 -11 44 -11q37 0 67 60q10 19 41 96q27 68 60.5 102t98.5 45v3q-49 20 -72.5 54.5t-43.5 101.5q-2 6 -5.5 18.5t-5 17t-4 13.5t-4 12.5t-4 10t-3.5 9.5t-3.5 8t-4.5 8t-4 6.5t-5 6.5q-11 -20 -17 -29.5t-18 -19t-27 -9.5q-25 0 -45.5 22t-20.5 48q0 32 24 52t59 20
q32 0 56 -12.5t39 -35.5t25 -48t20 -57q2 -7 3 -11z" />
    <glyph glyph-name="uni0417" unicode="&#x417;" horiz-adv-x="578" 
d="M151 329v61h77q77 0 125.5 37.5t48.5 105.5q0 64 -33.5 93.5t-85.5 29.5q-69 0 -106.5 -41.5t-40.5 -120.5l-50 -1l-18 217h61l12 -52q67 57 159 57q90 0 149.5 -41t59.5 -127q0 -72 -48 -115t-122 -57v-5q193 -11 193 -166q0 -94 -73 -156t-188 -62q-209 0 -241 185
l61 19q31 -134 175 -134q76 0 117.5 39.5t41.5 104.5q0 73 -46.5 101t-130.5 28h-97z" />
    <glyph glyph-name="uni0418" unicode="&#x418;" horiz-adv-x="840" 
d="M590 108v365l-340 -331v-38q0 -25 5.5 -34t26.5 -13l56 -9v-48h-276v48l58 9q20 3 25.5 14.5t5.5 36.5v488q0 25 -6 34t-27 13l-56 9v48h276v-48l-58 -9q-19 -3 -24.5 -14.5t-5.5 -36.5v-368l340 333v39q0 25 -6 34t-27 13l-55 9v48h275v-48l-57 -9q-20 -3 -25.5 -14.5
t-5.5 -36.5v-488q0 -25 6 -34t27 -13l55 -9v-48h-275v48l57 9q20 3 25.5 14.5t5.5 36.5z" />
    <glyph glyph-name="uni0419" unicode="&#x419;" horiz-adv-x="840" 
d="M517 842q-18 31 -18 68q0 17 14 27.5t41 10.5q28 0 43 -19t15 -46q0 -48 -58 -73.5t-127 -25.5q-41 0 -80 8t-72 31.5t-33 59.5q0 27 15 46t43 19q55 0 55 -38q0 -37 -18 -68q37 -13 89 -13q56 0 91 13zM590 108v365l-340 -331v-38q0 -25 5.5 -34t26.5 -13l56 -9v-48
h-276v48l58 9q20 3 25.5 14.5t5.5 36.5v488q0 25 -6 34t-27 13l-56 9v48h276v-48l-58 -9q-19 -3 -24.5 -14.5t-5.5 -36.5v-368l340 333v39q0 25 -6 34t-27 13l-55 9v48h275v-48l-57 -9q-20 -3 -25.5 -14.5t-5.5 -36.5v-488q0 -25 6 -34t27 -13l55 -9v-48h-275v48l57 9
q20 3 25.5 14.5t5.5 36.5z" />
    <glyph glyph-name="uni041A" unicode="&#x41a;" horiz-adv-x="725" 
d="M155 108v488q0 25 -6 34t-27 13l-60 9v48h285v-48l-63 -9q-19 -3 -24.5 -14t-5.5 -37v-215h20q55 1 76 13q41 23 63.5 55t45.5 104q12 37 20 56.5t25 48t41.5 42t56.5 13.5q36 0 59.5 -20t23.5 -50q0 -28 -19 -50t-44 -22q-22 0 -36 14.5t-28 42.5q-15 -19 -23.5 -39
t-29.5 -84q-36 -110 -120 -142v-3q112 -4 169 -144q4 -11 11.5 -29.5t11.5 -28t10.5 -24.5t10.5 -22.5t10.5 -18.5t11.5 -16t11.5 -10.5t13.5 -7.5t15 -2q22 0 44 11l11 -35q-25 -25 -48 -34t-58 -9q-24 0 -44 11t-32.5 22.5t-27 39t-19.5 39.5t-18 45q-39 100 -70 141.5
t-89 41.5h-55v-222q0 -25 5.5 -34t26.5 -13l61 -9v-48h-285v48l62 9q20 3 25.5 14.5t5.5 36.5z" />
    <glyph glyph-name="uni041B" unicode="&#x41b;" horiz-adv-x="758" 
d="M509 108v529h-223q0 -114 -12 -286q-25 -364 -184 -364q-30 0 -52.5 19t-22.5 53q0 32 15 51.5t42 19.5q7 0 14 -2t11 -4t11 -8.5t9.5 -9.5t11.5 -13t12 -14q25 21 43 79q36 119 36 438q0 22 -9.5 31t-33.5 15l-46 10v48h565v-48l-57 -9q-20 -3 -25.5 -14.5t-5.5 -36.5
v-488q0 -25 6 -34t27 -13l55 -9v-48h-275v48l57 9q20 3 25.5 14.5t5.5 36.5z" />
    <glyph glyph-name="uni041C" unicode="&#x41c;" horiz-adv-x="1003" 
d="M748 108l-30 514l-187 -509h-100l-180 510l-30 -519q0 -25 5.5 -34t26.5 -13l56 -9v-48h-246v48l58 9q19 3 24.5 14.5t5.5 36.5l30 488q0 25 -5.5 34t-26.5 13l-56 9v48h232l171 -507l183 507h231v-48l-63 -9q-19 -3 -24.5 -14t-5.5 -37l30 -488q0 -25 5.5 -34t26.5 -13
l61 -9v-48h-285v48l62 9q20 3 25.5 14.5t5.5 36.5z" />
    <glyph glyph-name="uni041D" unicode="&#x41d;" horiz-adv-x="840" 
d="M590 108v220h-340v-224q0 -25 5.5 -34t26.5 -13l56 -9v-48h-276v48l58 9q20 3 25.5 14.5t5.5 36.5v488q0 25 -6 34t-27 13l-56 9v48h276v-48l-58 -9q-19 -3 -24.5 -14.5t-5.5 -36.5v-201h340v205q0 25 -6 34t-27 13l-55 9v48h275v-48l-57 -9q-20 -3 -25.5 -14.5
t-5.5 -36.5v-488q0 -25 6 -34t27 -13l55 -9v-48h-275v48l57 9q20 3 25.5 14.5t5.5 36.5z" />
    <glyph glyph-name="uni041E" unicode="&#x41e;" horiz-adv-x="779" 
d="M59 336q0 79 18.5 143t50.5 107t75.5 72.5t91.5 42.5t101 13q138 0 230.5 -90.5t92.5 -255.5q0 -178 -94.5 -280t-237.5 -102q-151 0 -239.5 98t-88.5 252zM165 357q0 -140 63 -222t171 -82q100 0 155.5 73.5t55.5 222.5q0 145 -61.5 223t-165.5 78q-99 0 -158.5 -72
t-59.5 -221z" />
    <glyph glyph-name="uni041F" unicode="&#x41f;" horiz-adv-x="839" 
d="M590 108v529h-340v-533q0 -25 5.5 -34t26.5 -13l56 -9v-48h-276v48l58 9q20 3 25.5 14.5t5.5 36.5v488q0 25 -6 34t-27 13l-56 9v48h715v-48l-57 -9q-20 -3 -25.5 -14.5t-5.5 -36.5v-488q0 -25 6 -34t27 -13l55 -9v-48h-275v48l57 9q20 3 25.5 14.5t5.5 36.5z" />
    <glyph glyph-name="uni0420" unicode="&#x420;" horiz-adv-x="602" 
d="M62 0v48l58 9q20 3 25.5 14.5t5.5 36.5v488q0 25 -6 34t-27 13l-56 9v48h246q269 0 269 -198q0 -60 -23 -106t-60.5 -70.5t-79 -36.5t-85.5 -12q-57 0 -79 5v-176q0 -26 7 -36.5t30 -13.5l70 -8v-48h-295zM250 646v-310q17 -5 58 -5q162 0 162 168q0 82 -43.5 114.5
t-125.5 32.5h-51z" />
    <glyph glyph-name="uni0421" unicode="&#x421;" horiz-adv-x="708" 
d="M377 714q105 0 166 -61l10 63h49l39 -233l-54 -12q-30 94 -79 137t-129 43q-106 0 -159.5 -77.5t-53.5 -221.5q0 -127 63.5 -212t174.5 -85q68 0 116 28t87 84l47 -34q-36 -61 -102.5 -104t-157.5 -43q-83 0 -148.5 30t-105.5 81.5t-60.5 116t-20.5 137.5q0 167 89 265
t229 98z" />
    <glyph glyph-name="uni0422" unicode="&#x422;" horiz-adv-x="728" 
d="M654 700l37 -200l-55 -13q-32 99 -62 128.5t-104 29.5h-56v-539q0 -24 6.5 -33t27.5 -13l79 -12v-48h-325v48l80 12q20 3 26.5 14t6.5 36v535h-55q-74 0 -105 -29.5t-64 -128.5l-54 13l39 200h578z" />
    <glyph glyph-name="uni0423" unicode="&#x423;" horiz-adv-x="664" 
d="M674 652l-49 -8q-39 -6 -57 -55q-10 -28 -33.5 -93t-39 -106.5t-40 -102.5t-47.5 -113q-19 -42 -32 -66t-36 -57t-52.5 -49t-65.5 -16q-31 0 -56 16t-25 46q0 31 18.5 51.5t43.5 20.5q20 0 33.5 -12t37.5 -43q12 8 29.5 32.5t28.5 59.5l-220 434q-13 25 -25.5 36
t-34.5 15l-37 7v51h274v-48l-55 -7q-42 -5 -19 -50l164 -332h5q39 93 117 328q9 25 6 36t-23 15l-46 11v47h236v-48z" />
    <glyph glyph-name="uni0424" unicode="&#x424;" horiz-adv-x="823" 
d="M362 91v33q-22 -5 -69 -5q-110 0 -181.5 64t-71.5 185q0 113 71 179t187 66q26 0 64 -4v21q0 25 -6 34t-27 13l-60 9v48h285v-48l-63 -9q-20 -4 -25 -13.5t-5 -34.5v-20q28 4 64 4q116 0 187 -64t71 -177q0 -120 -77 -186.5t-187 -66.5q-35 0 -58 5v-37q0 -25 5.5 -34
t26.5 -13l61 -9v-48h-285v48l62 9q20 3 25.5 14.5t5.5 36.5zM461 557v-379q17 -5 55 -5q81 0 123 56.5t42 139.5q0 89 -42 140.5t-121 51.5q-17 0 -57 -4zM308 173q36 0 53 5l-1 379q-36 4 -55 4q-76 0 -119.5 -53.5t-43.5 -142.5q0 -83 42.5 -137.5t123.5 -54.5z" />
    <glyph glyph-name="uni0425" unicode="&#x425;" horiz-adv-x="707" 
d="M115 100l183 240l-186 253q-20 24 -31 33t-31 14l-35 8l10 52h244v-49l-40 -7q-37 -5 -6 -43l136 -186l128 182q11 14 14 22.5t-2 13t-20 8.5l-38 10l10 49h215v-50l-38 -8q-19 -4 -31 -12.5t-31 -33.5l-170 -232l189 -257q34 -43 69 -49l38 -6v-52h-269v50l45 6
q40 5 8 44l-140 189l-140 -190q-9 -12 -12 -19t1.5 -12.5t18.5 -8.5l44 -10v-49h-233v50l38 8q17 4 27.5 11t34.5 31z" />
    <glyph glyph-name="uni0426" unicode="&#x426;" horiz-adv-x="855" 
d="M590 63v529q0 25 -5.5 36.5t-25.5 14.5l-57 9v48h275v-48l-55 -9q-21 -4 -27 -13t-6 -34v-532h116v-211l-55 -10l-14 78q-8 42 -22 60.5t-46 18.5h-606v48l56 9q21 4 27 13t6 34v488q0 25 -5.5 36.5t-25.5 14.5l-58 9v48h276v-48l-56 -9q-21 -4 -26.5 -13t-5.5 -34v-533
h340z" />
    <glyph glyph-name="uni0427" unicode="&#x427;" horiz-adv-x="768" 
d="M519 109v208q-3 -2 -17.5 -11.5t-19 -12t-19 -10.5t-23 -11.5t-24 -9t-29 -7.5t-31.5 -4t-38 -2q-94 0 -151.5 49t-57.5 156v142q0 25 -6 34t-27 13l-56 9v48h276v-48l-58 -9q-19 -3 -24.5 -14.5t-5.5 -36.5v-127q0 -65 33 -107t109 -42q11 0 22 1t19 2t19 4.5t16.5 5
t17 7.5t14.5 7t15.5 9t14 9t16 10.5t15.5 10.5v214q0 25 -6 34t-27 13l-55 9v48h275v-48l-57 -9q-20 -3 -25.5 -14.5t-5.5 -36.5v-488q0 -25 6 -34t27 -13l55 -9v-48h-295v48l77 10q20 3 25.5 14.5t5.5 36.5z" />
    <glyph glyph-name="uni0428" unicode="&#x428;" horiz-adv-x="1158" 
d="M909 63v529q0 25 -5.5 36.5t-25.5 14.5l-57 9v48h275v-48l-55 -9q-21 -4 -27 -13t-6 -34v-492q0 -25 6 -34t27 -13l55 -9v-48h-1034v48l56 9q21 4 27 13t6 34v488q0 25 -5.5 36.5t-25.5 14.5l-58 9v48h276v-48l-56 -9q-21 -4 -26.5 -13t-5.5 -34v-533h280v529
q0 25 -5.5 36.5t-25.5 14.5l-58 9v48h276v-48l-56 -9q-21 -4 -26.5 -13t-5.5 -34v-533h280z" />
    <glyph glyph-name="uni0429" unicode="&#x429;" horiz-adv-x="1174" 
d="M909 63v529q0 25 -5.5 36.5t-25.5 14.5l-57 9v48h275v-48l-55 -9q-21 -4 -27 -13t-6 -34v-532h116v-211l-55 -10l-14 80q-9 41 -24 59t-55 18h-914v48l56 9q21 4 27 13t6 34v488q0 25 -5.5 36.5t-25.5 14.5l-58 9v48h276v-48l-56 -9q-21 -4 -26.5 -13t-5.5 -34v-533h280
v529q0 25 -5.5 36.5t-25.5 14.5l-58 9v48h276v-48l-56 -9q-21 -4 -26.5 -13t-5.5 -34v-533h280z" />
    <glyph glyph-name="uni042A" unicode="&#x42a;" horiz-adv-x="764" 
d="M225 57q21 4 27 13t6 34v541h-40q-25 0 -41.5 -1.5t-30.5 -10.5t-21.5 -15.5t-18 -28.5t-15.5 -36.5t-18 -53.5q-3 -8 -4 -12l-54 13l39 200h392v-48l-52 -8q-23 -3 -30 -13.5t-7 -36.5v-193q23 5 99 5q45 0 87.5 -9t84 -29t66.5 -60t25 -94q0 -214 -284 -214h-266v48z
M357 345v-291h71q184 0 184 147q0 149 -177 149q-61 0 -78 -5z" />
    <glyph glyph-name="uni042B" unicode="&#x42b;" horiz-adv-x="981" 
d="M62 652v48h277v-48l-52 -8q-23 -3 -30 -13.5t-7 -36.5v-193q22 5 99 5q45 0 86 -9t80.5 -29t63 -60t23.5 -94q0 -118 -73.5 -166t-200.5 -48h-266v48l56 9q21 4 27 13t6 34v488q0 25 -5.5 36.5t-25.5 14.5zM250 345v-291h71q82 0 128 32.5t46 114.5q0 77 -40.5 113
t-126.5 36q-61 0 -78 -5zM727 108v488q0 25 -6 34t-27 13l-60 9v48h285v-48l-63 -9q-19 -3 -24.5 -14.5t-5.5 -36.5v-488q0 -25 5.5 -34t26.5 -13l61 -9v-48h-285v48l62 9q20 3 25.5 14.5t5.5 36.5z" />
    <glyph glyph-name="uni042C" unicode="&#x42c;" horiz-adv-x="657" 
d="M62 652v48h277v-48l-52 -8q-23 -3 -30 -13.5t-7 -36.5v-193q22 5 99 5q45 0 87.5 -9t84 -29t66.5 -60t25 -94q0 -214 -284 -214h-266v48l56 9q21 4 27 13t6 34v488q0 25 -5.5 36.5t-25.5 14.5zM250 345v-291h71q184 0 184 147q0 149 -177 149q-61 0 -78 -5z" />
    <glyph glyph-name="uni042D" unicode="&#x42d;" horiz-adv-x="669" 
d="M151 329v60h349q0 264 -198 264q-161 0 -166 -160l-50 -1l-18 217h61l12 -54q67 59 182 59q75 0 131.5 -28t89.5 -77t49 -108t16 -128q0 -57 -9.5 -110t-33 -104.5t-59.5 -89t-93.5 -60.5t-130.5 -23q-50 0 -97 17t-90.5 63t-60.5 114l60 16q53 -140 194 -140
q59 0 102 25.5t65.5 67.5t33 87t10.5 93h-349z" />
    <glyph glyph-name="uni042E" unicode="&#x42e;" horiz-adv-x="1109" 
d="M250 592v-201h180q7 84 36.5 148t74.5 101t96 55.5t108 18.5q127 0 215.5 -90.5t88.5 -254.5q0 -180 -87.5 -281.5t-224.5 -101.5t-222 96t-87 246h-178v-224q0 -25 5.5 -34t26.5 -13l56 -9v-48h-276v48l58 9q20 3 25.5 14.5t5.5 36.5v488q0 25 -6 34t-27 13l-56 9v48
h276v-48l-58 -9q-19 -3 -24.5 -14.5t-5.5 -36.5zM529 357q0 -140 59.5 -222t159.5 -82q92 0 145 74t53 222q0 145 -58.5 223t-154.5 78q-92 0 -148 -70.5t-56 -222.5z" />
    <glyph glyph-name="uni042F" unicode="&#x42f;" horiz-adv-x="704" 
d="M642 48v-48h-295v48l70 8q23 3 30 13.5t7 36.5v193q-89 0 -101 -2q-52 -9 -75 -44t-43 -110q-19 -74 -50 -113.5t-86 -39.5q-54 0 -94 43l17 37q17 -10 39 -10q29 0 45 25t43 100q20 56 64 91t91 43v3q-83 5 -137 48.5t-54 123.5q0 206 283 206h246v-48l-56 -9
q-21 -4 -27 -13t-6 -34v-488q0 -25 5.5 -36.5t25.5 -14.5zM454 363v283h-65q-83 0 -128 -29.5t-45 -107.5q0 -151 166 -151q55 0 72 5z" />
    <glyph glyph-name="uni0430" unicode="&#x430;" horiz-adv-x="539" 
d="M432 100q0 -62 92 -36l10 -38q-42 -40 -92 -40q-86 0 -95 89q-56 -89 -155 -89q-56 0 -98 33t-42 102q0 64 40.5 102t114.5 49q54 8 132 12v68q0 64 -27.5 91t-80.5 27q-30 0 -55.5 -9t-36.5 -21q26 -44 26 -56q0 -18 -15 -31.5t-39 -13.5q-57 0 -57 52q0 53 58 91.5
t133 38.5q87 0 137 -40t50 -140v-241zM339 161v71q-43 0 -97 -9q-50 -7 -71.5 -32.5t-21.5 -58.5q0 -39 23 -58t58 -19q39 0 74 25.5t35 80.5z" />
    <glyph glyph-name="uni0431" unicode="&#x431;" horiz-adv-x="578" 
d="M526 776q-4 -65 -20 -96.5t-64 -44.5q-28 -7 -151 -13q-77 -4 -114.5 -61.5t-43.5 -169.5q39 60 82 87.5t102 27.5q99 0 161 -63t62 -180q0 -125 -71 -200.5t-176 -75.5q-110 0 -172.5 86.5t-57.5 224.5l2 58q3 92 28 164t63 114.5t83 64t92 21.5h52q15 0 31 -0.5
t22.5 -1.5t14.5 1t9.5 2.5t5.5 7.5t4.5 11.5t3.5 19t6 26.5zM166 260q0 -100 36.5 -157t106.5 -57q61 0 96 51.5t35 142.5q0 100 -36.5 154.5t-101.5 54.5q-60 0 -98 -50t-38 -139z" />
    <glyph glyph-name="uni0432" unicode="&#x432;" horiz-adv-x="562" 
d="M58 507h244q183 0 183 -116q0 -49 -35.5 -81.5t-101.5 -41.5q28 -2 48.5 -5t44 -11.5t38.5 -20.5t25 -33.5t10 -50.5q0 -67 -52.5 -107t-168.5 -40h-241v47l48 9q18 3 22 13t4 35v303q0 22 -4.5 31t-20.5 12l-53 11zM309 234h-90v-178q36 -4 82 -4q51 0 82.5 24.5
t31.5 72.5q0 36 -26.5 60.5t-79.5 24.5zM283 456q-37 0 -64 -3v-163h81q43 0 64.5 25.5t21.5 64.5q0 41 -25.5 58.5t-77.5 17.5z" />
    <glyph glyph-name="uni0433" unicode="&#x433;" 
d="M102 57q17 3 21.5 13.5t4.5 34.5v307q-1 17 -6.5 25t-23.5 12l-50 10l10 48h386l26 -179l-51 -12q-5 14 -13.5 38.5t-11.5 32.5t-9.5 23.5t-11.5 19t-13.5 11.5t-19 9.5t-24 3t-32.5 1.5h-63v-352q0 -23 4 -31.5t21 -11.5l86 -13v-47h-278v48z" />
    <glyph glyph-name="uni0434" unicode="&#x434;" horiz-adv-x="598" 
d="M395 0h-233q-41 0 -58.5 -22t-24.5 -64l-11 -68l-54 -1v210h78q28 72 41 144.5t13 195.5q0 29 -6 40.5t-24 15.5l-52 8l10 48h473v-49l-49 -9q-18 -3 -23.5 -11t-5.5 -24v-359h81l-4 -205l-53 -8l-11 69q-8 47 -24.5 68t-62.5 21zM376 451h-160q0 -172 -20 -270
q-11 -56 -39 -126h219v396z" />
    <glyph glyph-name="uni0435" unicode="&#x435;" horiz-adv-x="520" 
d="M47 247q0 126 68 200t176 74q80 0 132 -47.5t52 -129.5q0 -48 -14 -98h-313q3 -86 45 -136t116 -50q80 0 138 60l35 -35q-31 -42 -82.5 -70.5t-113.5 -28.5q-114 0 -176.5 73.5t-62.5 187.5zM148 302h230q3 20 3 46q0 120 -101 120q-117 0 -132 -166z" />
    <glyph glyph-name="uni0436" unicode="&#x436;" horiz-adv-x="852" 
d="M308 300q22 -13 70 -15v122q0 22 -4.5 31t-20.5 12l-53 11l10 46h235v-47l-48 -9q-18 -3 -22 -13t-4 -35v-118q56 2 76 17q9 7 15 13t11.5 17t8.5 17.5t11 27t13 32.5q9 24 16.5 38t22 34t35.5 30t48 10q32 0 56 -20t24 -52q0 -25 -19 -41.5t-41 -16.5q-18 0 -27.5 11.5
t-26.5 47.5q-15 -12 -23 -26.5t-23 -56.5q-10 -29 -16 -42.5t-18 -27.5t-30 -24v-3q58 -13 76 -26q31 -21 54 -81q3 -8 8 -21l7.5 -19.5t6.5 -16t6.5 -14t6.5 -11t7.5 -9.5t8 -6t9.5 -4t11 -1q20 0 39 8l10 -36q-42 -40 -87 -40q-50 0 -73 30.5t-44 98.5q-2 8 -7.5 25.5
t-7.5 23t-6.5 17.5t-7.5 16t-9 11.5t-13 10t-16 6t-21 4.5q-14 2 -71 2v-138q0 -22 4.5 -31t20.5 -12l53 -11v-46h-245v47l48 9q18 3 22 13t4 35v134q-44 0 -56 -2q-26 -4 -42 -11.5t-27 -25.5t-16 -31t-15 -46q-9 -30 -16.5 -49.5t-20.5 -39.5t-31.5 -30t-43.5 -10
q-50 0 -92 40l10 36q19 -8 41 -8q27 0 45 34q5 11 27 66q9 22 16.5 38t19 27t17.5 17t22.5 12t22.5 7.5t29 6.5v3l-1 1q-26 14 -39 35t-27 60q-16 45 -23.5 59t-21.5 26q-13 -32 -24.5 -46.5t-30.5 -14.5q-20 0 -38.5 16t-18.5 41q0 32 24 52t56 20q27 0 48 -10t35.5 -30
t21.5 -34t16 -38q3 -8 10 -24.5t9 -22t7 -16.5t8 -15.5t8 -11.5t10 -11t11 -8z" />
    <glyph glyph-name="uni0437" unicode="&#x437;" horiz-adv-x="497" 
d="M126 521l11 -43q49 43 129 43q76 0 120.5 -32t44.5 -93q0 -50 -38 -84t-105 -43v-2q33 -4 57 -9.5t50 -18.5t40 -37.5t14 -60.5q0 -62 -57 -108.5t-163 -46.5q-78 0 -128 35t-50 92q0 27 16 44.5t47 17.5q54 0 54 -47q0 -17 -27 -63q38 -27 94 -27q47 0 81 27t34 76
q0 43 -28.5 67.5t-83.5 24.5h-79v56h69q49 0 76.5 28t27.5 67q0 44 -20 65t-65 21q-55 0 -85.5 -35.5t-33.5 -96.5l-48 -1l-12 184h58z" />
    <glyph glyph-name="uni0438" unicode="&#x438;" horiz-adv-x="682" 
d="M556 403v-303q0 -22 4.5 -31t20.5 -12l53 -11v-46h-245v47l48 9q18 3 22 13t4 35v217l-244 -207v-14q0 -22 4.5 -31t20.5 -12l53 -11v-46h-245v47l48 9q18 3 22 13t4 35v303q0 22 -4.5 31t-20.5 12l-53 11l10 46h235v-47l-48 -9q-18 -3 -22 -13t-4 -35v-217l244 207v14
q0 22 -4.5 31t-20.5 12l-53 11l10 46h235v-47l-48 -9q-18 -3 -22 -13t-4 -35z" />
    <glyph glyph-name="uni0439" unicode="&#x439;" horiz-adv-x="682" 
d="M423 646q-17 30 -17 65q0 37 53 37q27 0 41.5 -18.5t14.5 -44.5q0 -46 -54 -70.5t-120 -24.5q-39 0 -75.5 7.5t-67 30.5t-30.5 57q0 26 14.5 44.5t41.5 18.5q53 0 53 -37q0 -35 -17 -65q22 -13 80 -13t83 13zM556 403v-303q0 -22 4.5 -31t20.5 -12l53 -11v-46h-245v47
l48 9q18 3 22 13t4 35v217l-244 -207v-14q0 -22 4.5 -31t20.5 -12l53 -11v-46h-245v47l48 9q18 3 22 13t4 35v303q0 22 -4.5 31t-20.5 12l-53 11l10 46h235v-47l-48 -9q-18 -3 -22 -13t-4 -35v-217l244 207v14q0 22 -4.5 31t-20.5 12l-53 11l10 46h235v-47l-48 -9
q-18 -3 -22 -13t-4 -35z" />
    <glyph glyph-name="uni043A" unicode="&#x43a;" horiz-adv-x="592" 
d="M219 403v-117q33 0 54 7q6 2 11.5 5.5t11 9.5t9.5 11t9 14t8 14t8 16t7 15t6.5 16t5.5 14q10 24 18 39.5t22.5 34.5t35.5 29t47 10q30 0 54.5 -18.5t24.5 -51.5q0 -24 -18.5 -42.5t-41.5 -18.5q-14 0 -24.5 9t-15.5 17.5t-17 32.5q-5 -5 -9 -10.5t-6.5 -9.5t-6 -11.5
t-5 -12t-6 -15.5t-7.5 -17q-17 -40 -33.5 -62t-43.5 -38v-3q50 -3 84.5 -26.5t57.5 -80.5q23 -56 40 -80t39 -24q10 0 34 10l10 -36q-42 -40 -89 -40q-12 0 -23 1.5t-20 7.5t-15.5 9t-13.5 14t-10.5 15t-10 19t-8.5 19t-9 22.5t-8 21.5q-12 32 -18.5 46t-19.5 31.5t-30.5 25
t-43.5 11.5q-13 2 -44 2v-138q0 -22 4.5 -31t20.5 -12l53 -11v-46h-245v47l48 9q18 3 22 13t4 35v303q0 22 -4.5 31t-20.5 12l-53 11l10 46h235v-47l-48 -9q-18 -3 -22 -13t-4 -35z" />
    <glyph glyph-name="uni043B" unicode="&#x43b;" horiz-adv-x="622" 
d="M403 104v347h-154q0 -162 -20 -272q-7 -38 -15 -65t-23.5 -59.5t-40.5 -50t-58 -17.5q-31 0 -53 17t-22 44q0 28 15.5 47t34.5 19q6 0 11.5 -1.5t9 -3.5t9.5 -7t8.5 -7.5l10.5 -10.5l11 -11q15 13 28 57q29 95 29 265q0 29 -6 41t-24 15l-52 8l10 48h462v-49l-49 -9
q-17 -3 -22.5 -10.5t-6.5 -24.5v-314q0 -22 4.5 -31t20.5 -12l53 -11v-46h-245v47l48 9q18 3 22 13t4 35z" />
    <glyph glyph-name="uni043C" unicode="&#x43c;" horiz-adv-x="764" 
d="M640 403v-303q0 -22 4.5 -31t20.5 -12l53 -11v-46h-245v47l48 9q18 3 22 13t4 35v294h-4l-139 -294l-72 -8l-137 308l-7 1v-305q0 -22 4.5 -31t20.5 -12l53 -11v-46h-215v47l48 9q18 3 22 13t4 35v303q0 22 -4.5 31t-20.5 12l-53 11l10 46h192l136 -322l149 322h180v-47
l-48 -9q-18 -3 -22 -13t-4 -35z" />
    <glyph glyph-name="uni043D" unicode="&#x43d;" horiz-adv-x="682" 
d="M556 403v-303q0 -22 4.5 -31t20.5 -12l53 -11v-46h-245v47l48 9q18 3 22 13t4 35v126h-244v-130q0 -22 4.5 -31t20.5 -12l53 -11v-46h-245v47l48 9q18 3 22 13t4 35v303q0 22 -4.5 31t-20.5 12l-53 11l10 46h235v-47l-48 -9q-18 -3 -22 -13t-4 -35v-117h244v121
q0 22 -4.5 31t-20.5 12l-53 11l10 46h235v-47l-48 -9q-18 -3 -22 -13t-4 -35z" />
    <glyph glyph-name="uni043E" unicode="&#x43e;" horiz-adv-x="586" 
d="M46 242q0 141 74 210t183 69q104 0 170.5 -66t66.5 -188q0 -133 -70 -207t-181 -74q-115 0 -179 71t-64 185zM147 272q0 -103 41 -163.5t115 -60.5q64 0 99.5 50t35.5 145q0 103 -41 161t-110 58q-65 0 -102.5 -47t-37.5 -143z" />
    </font>
</defs>
</svg>
